{"glyphs":{"0":{"ha":1417,"x_min":0,"x_max":0,"o":"m 340 -6 l 1076 -6 b 1333 246 1249 -6 1333 85 l 1333 726 b 1076 978 1333 888 1249 978 l 340 978 b 83 726 168 978 83 888 l 83 246 b 340 -6 83 85 168 -6 z m 378 149 b 257 260 300 149 257 179 l 257 713 b 378 824 257 793 300 824 l 1039 824 b 1160 713 1118 824 1160 793 l 1160 260 b 1039 149 1160 179 1118 149 z "},"1":{"ha":544,"x_min":0,"x_max":0,"o":"m 433 972 l 64 972 b 42 950 49 972 42 965 l 42 847 b 64 824 42 832 49 824 l 288 824 l 288 21 b 308 0 288 7 294 0 l 433 0 b 454 21 447 0 454 7 l 454 951 b 433 972 454 965 447 972 z "},"2":{"ha":1315,"x_min":0,"x_max":0,"o":"m 83 0 l 1221 0 b 1243 22 1236 0 1243 7 l 1243 125 b 1221 149 1243 140 1236 149 l 233 149 l 233 200 b 365 333 233 268 265 324 l 1039 401 b 1253 713 1224 421 1253 519 b 976 979 1253 864 1181 979 l 371 979 b 75 721 168 979 75 896 l 75 694 b 96 672 75 679 82 672 l 221 672 b 242 694 235 672 242 679 b 372 831 242 796 288 831 l 968 831 b 1086 713 1047 831 1086 789 b 969 539 1086 626 1083 551 l 297 471 b 63 158 101 451 63 318 l 63 21 b 83 0 63 7 69 0 z "},"3":{"ha":1314,"x_min":0,"x_max":0,"o":"m 1083 493 l 1083 507 b 1235 713 1183 532 1235 574 b 956 979 1235 864 1160 979 l 369 979 b 74 721 167 979 74 896 l 74 694 b 94 672 74 679 81 672 l 219 672 b 240 694 233 672 240 679 b 371 831 240 796 286 831 l 947 831 b 1068 713 1026 831 1068 789 b 928 574 1068 632 1053 574 l 344 574 b 321 551 329 574 321 567 l 321 449 b 344 425 321 433 329 425 l 928 425 b 1085 263 1053 425 1085 371 b 964 143 1085 186 1043 143 l 360 143 b 229 279 275 143 229 176 b 208 300 229 293 222 300 l 83 300 b 63 279 69 300 63 293 l 63 251 b 358 -7 63 76 156 -7 l 972 -7 b 1251 263 1176 -7 1251 111 b 1083 493 1251 432 1183 471 z "},"4":{"ha":1329,"x_min":0,"x_max":0,"o":"m 1244 338 l 1147 338 l 1147 538 b 1126 558 1147 551 1140 558 l 999 558 b 976 538 985 558 976 551 l 976 338 l 290 338 l 292 344 l 896 944 b 885 972 910 958 903 972 l 729 972 b 693 957 714 972 704 968 l 76 344 b 64 304 63 331 61 321 l 82 203 b 104 189 85 190 96 189 l 976 189 l 976 21 b 999 0 976 7 985 0 l 1126 0 b 1147 21 1140 0 1147 7 l 1147 189 l 1244 189 b 1267 210 1258 189 1267 196 l 1267 317 b 1244 338 1267 331 1258 338 z "},"5":{"ha":1321,"x_min":0,"x_max":0,"o":"m 365 -7 l 968 -7 b 1251 278 1172 -7 1251 103 l 1251 354 b 986 640 1251 501 1201 640 l 428 640 b 257 574 349 640 281 608 l 247 574 l 274 824 l 1169 824 b 1192 847 1185 824 1192 832 l 1192 950 b 1169 972 1192 965 1185 972 l 149 972 b 128 951 135 972 129 965 l 81 446 b 101 421 79 429 86 421 l 246 421 b 369 490 263 454 293 490 l 954 490 b 1085 356 1036 490 1085 457 l 1085 278 b 960 143 1085 175 1039 143 l 367 143 b 236 279 282 143 236 176 b 215 300 236 293 229 300 l 90 300 b 69 279 76 300 69 293 l 69 251 b 365 -7 69 76 163 -7 z "},"6":{"ha":1364,"x_min":0,"x_max":0,"o":"m 369 -7 l 1008 -7 b 1294 278 1210 -7 1294 103 l 1294 321 b 1031 606 1294 468 1244 606 l 425 606 b 261 540 354 606 285 575 l 250 540 l 250 713 b 367 829 250 789 288 829 l 975 829 b 1106 732 1060 829 1106 810 b 1126 711 1106 718 1113 711 l 1251 711 b 1272 732 1265 711 1272 718 l 1272 760 b 978 979 1272 910 1181 979 l 360 979 b 83 713 156 979 83 864 l 83 278 b 369 -7 83 103 168 -7 z m 379 143 b 250 278 299 143 250 175 l 250 321 b 379 457 250 424 299 457 l 997 457 b 1128 321 1079 457 1128 424 l 1128 278 b 997 143 1128 175 1079 143 z "},"7":{"ha":1278,"x_min":0,"x_max":0,"o":"m 1208 831 l 1208 951 b 1188 972 1208 965 1201 972 l 90 972 b 69 951 76 972 69 965 l 69 836 b 90 815 69 822 76 815 l 979 815 l 979 797 l 94 31 b 103 0 82 19 85 0 l 281 0 b 328 22 300 0 313 8 l 1189 783 b 1208 831 1206 799 1208 811 z "},"8":{"ha":1429,"x_min":0,"x_max":0,"o":"m 1204 533 b 1313 721 1279 565 1313 625 b 1047 979 1313 890 1232 979 l 382 979 b 117 721 197 979 117 890 b 225 533 117 625 150 565 b 83 314 125 497 83 426 l 83 268 b 369 -7 83 103 168 -7 l 1060 -7 b 1346 268 1261 -7 1346 103 l 1346 314 b 1204 533 1346 426 1304 497 z m 393 838 l 1036 838 b 1154 721 1132 838 1154 790 b 1036 606 1154 653 1132 606 l 393 606 b 275 721 297 606 275 653 b 393 838 275 790 297 838 z m 1179 268 b 1049 143 1179 175 1131 143 l 379 143 b 250 268 299 143 250 175 l 250 314 b 379 446 250 413 299 446 l 1049 446 b 1179 314 1131 446 1179 413 z "},"9":{"ha":1364,"x_min":0,"x_max":0,"o":"m 1008 979 l 369 979 b 83 694 168 979 83 871 l 83 651 b 347 367 83 504 132 367 l 953 367 b 1117 432 1024 367 1093 397 l 1128 432 l 1128 260 b 1010 143 1128 183 1090 143 l 403 143 b 272 240 317 143 272 163 b 251 261 272 254 265 261 l 126 261 b 106 240 113 261 106 254 l 106 214 b 400 -7 106 63 197 -7 l 1018 -7 b 1294 260 1221 -7 1294 108 l 1294 694 b 1008 979 1294 871 1210 979 z m 997 829 b 1128 694 1079 829 1128 797 l 1128 651 b 997 515 1128 549 1079 515 l 379 515 b 250 651 299 515 250 549 l 250 694 b 379 829 250 797 299 829 z "},"A":{"ha":1522,"x_min":0,"x_max":0,"o":"m 1463 26 l 864 950 b 833 972 856 964 849 972 l 689 972 b 660 950 675 972 668 964 l 60 26 b 72 0 49 10 58 0 l 226 0 b 258 24 242 0 249 8 l 351 167 l 1172 167 l 1265 24 b 1296 0 1275 8 1281 0 l 1450 0 b 1463 26 1464 0 1474 10 z m 447 317 l 753 789 l 769 789 l 1075 317 z "},"Á":{"ha":1522,"x_min":0,"x_max":0,"o":"m 713 1040 l 818 1040 b 853 1065 832 1040 844 1051 l 976 1225 b 969 1250 989 1240 983 1250 l 801 1250 b 772 1225 788 1250 781 1242 l 700 1065 b 713 1040 692 1049 697 1040 z m 1463 26 l 864 950 b 833 972 856 964 849 972 l 689 972 b 660 950 675 972 668 964 l 60 26 b 72 0 49 10 58 0 l 226 0 b 258 24 242 0 249 8 l 351 167 l 1172 167 l 1265 24 b 1296 0 1275 8 1281 0 l 1450 0 b 1463 26 1464 0 1474 10 z m 447 317 l 753 789 l 769 789 l 1075 317 z "},"Ă":{"ha":1522,"x_min":0,"x_max":0,"o":"m 719 1032 l 803 1032 b 993 1229 933 1032 993 1096 b 972 1250 993 1243 986 1250 l 878 1250 b 857 1229 864 1250 858 1243 b 779 1147 853 1185 838 1147 l 743 1147 b 665 1229 685 1147 669 1185 b 644 1250 664 1243 658 1250 l 550 1250 b 529 1229 536 1250 529 1243 b 719 1032 529 1096 589 1032 z m 1463 26 l 864 950 b 833 972 856 964 849 972 l 689 972 b 660 950 675 972 668 964 l 60 26 b 72 0 49 10 58 0 l 226 0 b 258 24 242 0 249 8 l 351 167 l 1172 167 l 1265 24 b 1296 0 1275 8 1281 0 l 1450 0 b 1463 26 1464 0 1474 10 z m 447 317 l 753 789 l 769 789 l 1075 317 z "},"Ǎ":{"ha":1522,"x_min":0,"x_max":0,"o":"m 657 1060 b 694 1040 668 1046 679 1040 l 828 1040 b 867 1060 843 1040 856 1047 l 1010 1224 b 999 1250 1021 1236 1013 1250 l 879 1250 b 836 1224 860 1250 850 1240 l 768 1144 l 754 1144 l 688 1224 b 644 1250 674 1240 664 1250 l 525 1250 b 514 1224 511 1250 503 1236 z m 1463 26 l 864 950 b 833 972 856 964 849 972 l 689 972 b 660 950 675 972 668 964 l 60 26 b 72 0 49 10 58 0 l 226 0 b 258 24 242 0 249 8 l 351 167 l 1172 167 l 1265 24 b 1296 0 1275 8 1281 0 l 1450 0 b 1463 26 1464 0 1474 10 z m 447 317 l 753 789 l 769 789 l 1075 317 z "},"Â":{"ha":1522,"x_min":0,"x_max":0,"o":"m 525 1040 l 644 1040 b 688 1067 664 1040 674 1050 l 754 1146 l 768 1146 l 836 1067 b 879 1040 850 1050 860 1040 l 999 1040 b 1010 1067 1013 1040 1021 1054 l 867 1231 b 828 1250 856 1243 843 1250 l 694 1250 b 657 1231 679 1250 668 1244 l 514 1067 b 525 1040 503 1054 511 1040 z m 1463 26 l 864 950 b 833 972 856 964 849 972 l 689 972 b 660 950 675 972 668 964 l 60 26 b 72 0 49 10 58 0 l 226 0 b 258 24 242 0 249 8 l 351 167 l 1172 167 l 1265 24 b 1296 0 1275 8 1281 0 l 1450 0 b 1463 26 1464 0 1474 10 z m 447 317 l 753 789 l 769 789 l 1075 317 z "},"Ä":{"ha":1522,"x_min":0,"x_max":0,"o":"m 511 1078 l 642 1078 b 663 1099 656 1078 663 1085 l 663 1229 b 642 1250 663 1243 656 1250 l 511 1250 b 490 1229 497 1250 490 1243 l 490 1099 b 511 1078 490 1085 497 1078 z m 858 1078 l 988 1078 b 1010 1099 1001 1078 1010 1085 l 1010 1229 b 988 1250 1010 1243 1001 1250 l 858 1250 b 838 1229 844 1250 838 1243 l 838 1099 b 858 1078 838 1085 844 1078 z m 1463 26 l 864 950 b 833 972 856 964 849 972 l 689 972 b 660 950 675 972 668 964 l 60 26 b 72 0 49 10 58 0 l 226 0 b 258 24 242 0 249 8 l 351 167 l 1172 167 l 1265 24 b 1296 0 1275 8 1281 0 l 1450 0 b 1463 26 1464 0 1474 10 z m 447 317 l 753 789 l 769 789 l 1075 317 z "},"À":{"ha":1522,"x_min":0,"x_max":0,"o":"m 671 1065 b 704 1040 681 1051 690 1040 l 810 1040 b 824 1065 825 1040 832 1049 l 751 1225 b 722 1250 743 1242 736 1250 l 561 1250 b 547 1225 546 1250 535 1240 z m 1463 26 l 864 950 b 833 972 856 964 849 972 l 689 972 b 660 950 675 972 668 964 l 60 26 b 72 0 49 10 58 0 l 226 0 b 258 24 242 0 249 8 l 351 167 l 1172 167 l 1265 24 b 1296 0 1275 8 1281 0 l 1450 0 b 1463 26 1464 0 1474 10 z m 447 317 l 753 789 l 769 789 l 1075 317 z "},"Ā":{"ha":1522,"x_min":0,"x_max":0,"o":"m 536 1100 l 986 1100 b 1007 1121 999 1100 1007 1107 l 1007 1229 b 986 1250 1007 1243 999 1250 l 536 1250 b 515 1229 522 1250 515 1243 l 515 1121 b 536 1100 515 1107 522 1100 z m 1463 26 l 864 950 b 833 972 856 964 849 972 l 689 972 b 660 950 675 972 668 964 l 60 26 b 72 0 49 10 58 0 l 226 0 b 258 24 242 0 249 8 l 351 167 l 1172 167 l 1265 24 b 1296 0 1275 8 1281 0 l 1450 0 b 1463 26 1464 0 1474 10 z m 447 317 l 753 789 l 769 789 l 1075 317 z "},"Ą":{"ha":1567,"x_min":0,"x_max":0,"o":"m 1501 -37 l 1465 19 b 1463 26 1465 22 1464 24 l 864 950 b 833 972 856 964 849 972 l 689 972 b 660 950 675 972 668 964 l 60 26 b 72 0 49 10 58 0 l 226 0 b 258 24 242 0 249 8 l 351 167 l 1172 167 l 1265 24 b 1283 3 1272 14 1276 7 l 1289 -6 b 1239 -42 1306 -31 1271 -37 l 1190 -47 b 1089 -164 1113 -56 1089 -72 b 1231 -286 1089 -265 1119 -286 l 1421 -286 b 1435 -272 1431 -286 1435 -281 l 1435 -194 b 1421 -178 1435 -185 1429 -178 l 1260 -178 b 1239 -161 1243 -178 1239 -172 b 1257 -142 1239 -147 1242 -143 l 1457 -121 b 1501 -37 1492 -117 1531 -86 z m 447 317 l 753 789 l 769 789 l 1075 317 z "},"Å":{"ha":1522,"x_min":0,"x_max":0,"o":"m 751 1025 l 769 1025 b 886 1140 838 1025 886 1075 l 886 1156 b 769 1272 886 1221 838 1272 l 751 1272 b 635 1156 683 1272 635 1221 l 635 1140 b 751 1025 635 1075 683 1025 z m 725 1154 b 754 1183 725 1169 738 1183 l 767 1183 b 797 1154 785 1183 797 1169 l 797 1144 b 767 1114 797 1128 785 1114 l 754 1114 b 725 1144 738 1114 725 1128 z m 1463 26 l 864 950 b 833 972 856 964 849 972 l 689 972 b 660 950 675 972 668 964 l 60 26 b 72 0 49 10 58 0 l 226 0 b 258 24 242 0 249 8 l 351 167 l 1172 167 l 1265 24 b 1296 0 1275 8 1281 0 l 1450 0 b 1463 26 1464 0 1474 10 z m 447 317 l 753 789 l 769 789 l 1075 317 z "},"Ã":{"ha":1522,"x_min":0,"x_max":0,"o":"m 556 1092 b 582 1086 560 1083 568 1076 b 665 1113 614 1106 632 1113 b 853 1056 736 1113 757 1056 b 990 1101 900 1056 942 1065 b 1003 1133 1001 1110 1008 1118 l 968 1221 b 942 1228 964 1229 954 1235 b 857 1200 907 1208 890 1200 b 669 1257 788 1200 765 1257 b 532 1211 624 1257 582 1247 b 519 1179 521 1203 514 1194 z m 1463 26 l 864 950 b 833 972 856 964 849 972 l 689 972 b 660 950 675 972 668 964 l 60 26 b 72 0 49 10 58 0 l 226 0 b 258 24 242 0 249 8 l 351 167 l 1172 167 l 1265 24 b 1296 0 1275 8 1281 0 l 1450 0 b 1463 26 1464 0 1474 10 z m 447 317 l 753 789 l 769 789 l 1075 317 z "},"Æ":{"ha":2217,"x_min":0,"x_max":0,"o":"m 2119 154 l 1182 154 l 1182 410 l 2099 410 b 2119 431 2113 410 2119 417 l 2119 542 b 2099 563 2119 556 2113 563 l 1182 563 l 1182 818 l 2113 818 b 2133 839 2126 818 2133 825 l 2133 951 b 2113 972 2133 965 2126 972 l 1015 972 b 979 951 1000 972 992 965 l 61 25 b 71 0 49 11 57 0 l 240 0 b 279 25 256 0 267 11 l 418 167 l 1008 167 l 1008 21 b 1029 0 1008 7 1015 0 l 2119 0 b 2140 21 2133 0 2140 7 l 2140 133 b 2119 154 2140 147 2133 154 z m 567 317 l 1008 767 l 1008 317 z "},"B":{"ha":1371,"x_min":0,"x_max":0,"o":"m 1168 497 l 1168 514 b 1260 699 1235 547 1260 610 l 1260 725 b 1001 972 1260 896 1178 972 l 111 972 b 90 951 97 972 90 965 l 90 21 b 111 0 90 7 97 0 l 1006 0 b 1294 261 1201 0 1294 88 l 1294 313 b 1168 497 1294 404 1254 465 z m 1089 707 l 1089 678 b 979 567 1089 586 1047 567 l 264 567 l 264 818 l 979 818 b 1089 707 1047 818 1089 804 z m 1124 267 b 994 154 1124 176 1079 154 l 264 154 l 264 428 l 994 428 b 1124 313 1079 428 1124 401 z "},"C":{"ha":1410,"x_min":0,"x_max":0,"o":"m 1181 643 l 1313 643 b 1333 665 1326 643 1333 651 l 1333 726 b 1085 978 1333 888 1257 978 l 340 978 b 83 726 168 978 83 888 l 83 246 b 340 -6 83 85 168 -6 l 1085 -6 b 1333 242 1257 -6 1333 83 l 1333 274 b 1313 296 1333 288 1326 296 l 1181 296 b 1160 274 1167 296 1160 288 l 1160 256 b 1050 149 1160 178 1128 149 l 378 149 b 257 260 300 149 257 179 l 257 713 b 378 824 257 793 300 824 l 1050 824 b 1160 713 1128 824 1160 793 l 1160 665 b 1181 643 1160 651 1167 643 z "},"Ć":{"ha":1365,"x_min":0,"x_max":0,"o":"m 699 1225 l 626 1065 b 639 1040 618 1049 624 1040 l 744 1040 b 779 1065 758 1040 769 1051 l 903 1225 b 896 1250 915 1240 910 1250 l 728 1250 b 699 1225 714 1250 707 1242 z m 1181 643 l 1313 643 b 1333 665 1326 643 1333 651 l 1333 726 b 1085 978 1333 888 1257 978 l 340 978 b 83 726 168 978 83 888 l 83 246 b 340 -6 83 85 168 -6 l 1085 -6 b 1333 242 1257 -6 1333 83 l 1333 274 b 1313 296 1333 288 1326 296 l 1181 296 b 1160 274 1167 296 1160 288 l 1160 256 b 1050 149 1160 178 1128 149 l 378 149 b 257 260 300 149 257 179 l 257 713 b 378 824 257 793 300 824 l 1050 824 b 1160 713 1128 824 1160 793 l 1160 665 b 1181 643 1160 651 1167 643 z "},"Č":{"ha":1365,"x_min":0,"x_max":0,"o":"m 613 1040 l 746 1040 b 785 1060 761 1040 774 1047 l 928 1224 b 917 1250 939 1236 931 1250 l 797 1250 b 754 1224 778 1250 768 1240 l 686 1144 l 672 1144 l 606 1224 b 563 1250 592 1240 582 1250 l 443 1250 b 432 1224 429 1250 421 1236 l 575 1060 b 613 1040 586 1046 597 1040 z m 1181 643 l 1313 643 b 1333 665 1326 643 1333 651 l 1333 726 b 1085 978 1333 888 1257 978 l 340 978 b 83 726 168 978 83 888 l 83 246 b 340 -6 83 85 168 -6 l 1085 -6 b 1333 242 1257 -6 1333 83 l 1333 274 b 1313 296 1333 288 1326 296 l 1181 296 b 1160 274 1167 296 1160 288 l 1160 256 b 1050 149 1160 178 1128 149 l 378 149 b 257 260 300 149 257 179 l 257 713 b 378 824 257 793 300 824 l 1050 824 b 1160 713 1128 824 1160 793 l 1160 665 b 1181 643 1160 651 1167 643 z "},"Ç":{"ha":1365,"x_min":0,"x_max":0,"o":"m 1181 643 l 1313 643 b 1333 665 1326 643 1333 651 l 1333 726 b 1085 978 1333 888 1257 978 l 340 978 b 83 726 168 978 83 888 l 83 246 b 340 -6 83 85 168 -6 l 651 -6 b 596 -82 613 -42 596 -57 b 651 -131 596 -115 621 -128 b 793 -167 768 -142 793 -144 b 750 -189 793 -185 776 -189 l 722 -189 b 682 -168 699 -189 686 -179 b 667 -154 681 -160 675 -154 l 568 -154 b 554 -172 557 -154 554 -161 b 676 -285 554 -240 585 -285 l 785 -285 b 921 -165 875 -285 921 -242 b 794 -46 921 -79 889 -56 b 793 -6 765 -43 736 -37 l 1085 -6 b 1333 242 1257 -6 1333 83 l 1333 274 b 1313 296 1333 288 1326 296 l 1181 296 b 1160 274 1167 296 1160 288 l 1160 256 b 1050 149 1160 178 1128 149 l 378 149 b 257 260 300 149 257 179 l 257 713 b 378 824 257 793 300 824 l 1050 824 b 1160 713 1128 824 1160 793 l 1160 665 b 1181 643 1160 651 1167 643 z "},"Ċ":{"ha":1365,"x_min":0,"x_max":0,"o":"m 624 1078 l 754 1078 b 775 1099 768 1078 775 1085 l 775 1229 b 754 1250 775 1243 768 1250 l 624 1250 b 603 1229 610 1250 603 1243 l 603 1099 b 624 1078 603 1085 610 1078 z m 1181 643 l 1313 643 b 1333 665 1326 643 1333 651 l 1333 726 b 1085 978 1333 888 1257 978 l 340 978 b 83 726 168 978 83 888 l 83 246 b 340 -6 83 85 168 -6 l 1085 -6 b 1333 242 1257 -6 1333 83 l 1333 274 b 1313 296 1333 288 1326 296 l 1181 296 b 1160 274 1167 296 1160 288 l 1160 256 b 1050 149 1160 178 1128 149 l 378 149 b 257 260 300 149 257 179 l 257 713 b 378 824 257 793 300 824 l 1050 824 b 1160 713 1128 824 1160 793 l 1160 665 b 1181 643 1160 651 1167 643 z "},"D":{"ha":1446,"x_min":0,"x_max":0,"o":"m 1113 972 l 111 972 b 90 951 97 972 90 965 l 90 21 b 111 0 90 7 97 0 l 1113 0 b 1363 251 1285 0 1363 90 l 1363 721 b 1113 972 1363 882 1285 972 z m 1190 265 b 1078 154 1190 185 1156 154 l 264 154 l 264 818 l 1078 818 b 1190 707 1156 818 1190 788 z "},"Ð":{"ha":1479,"x_min":0,"x_max":0,"o":"m 1146 972 l 144 972 b 124 951 131 972 124 965 l 124 579 l 29 579 b 7 557 14 579 7 572 l 7 454 b 29 431 7 438 14 431 l 124 431 l 124 21 b 144 0 124 7 131 0 l 1146 0 b 1396 251 1318 0 1396 90 l 1396 721 b 1146 972 1396 882 1318 972 z m 1224 265 b 1111 154 1224 185 1189 154 l 297 154 l 297 431 l 404 431 b 426 454 419 431 426 438 l 426 557 b 404 579 426 572 419 579 l 297 579 l 297 818 l 1111 818 b 1224 707 1189 818 1224 788 z "},"Ď":{"ha":1446,"x_min":0,"x_max":0,"o":"m 618 1060 b 656 1040 629 1046 640 1040 l 789 1040 b 828 1060 804 1040 817 1047 l 971 1224 b 960 1250 982 1236 974 1250 l 840 1250 b 797 1224 821 1250 811 1240 l 729 1144 l 715 1144 l 649 1224 b 606 1250 635 1240 625 1250 l 486 1250 b 475 1224 472 1250 464 1236 z m 1113 972 l 111 972 b 90 951 97 972 90 965 l 90 21 b 111 0 90 7 97 0 l 1113 0 b 1363 251 1285 0 1363 90 l 1363 721 b 1113 972 1363 882 1285 972 z m 1190 265 b 1078 154 1190 185 1156 154 l 264 154 l 264 818 l 1078 818 b 1190 707 1156 818 1190 788 z "},"Đ":{"ha":1479,"x_min":0,"x_max":0,"o":"m 1146 972 l 144 972 b 124 951 131 972 124 965 l 124 579 l 29 579 b 7 557 14 579 7 572 l 7 454 b 29 431 7 438 14 431 l 124 431 l 124 21 b 144 0 124 7 131 0 l 1146 0 b 1396 251 1318 0 1396 90 l 1396 721 b 1146 972 1396 882 1318 972 z m 1224 265 b 1111 154 1224 185 1189 154 l 297 154 l 297 431 l 404 431 b 426 454 419 431 426 438 l 426 557 b 404 579 426 572 419 579 l 297 579 l 297 818 l 1111 818 b 1224 707 1189 818 1224 788 z "},"E":{"ha":1300,"x_min":0,"x_max":0,"o":"m 1203 154 l 264 154 l 264 410 l 1182 410 b 1203 431 1196 410 1203 417 l 1203 542 b 1182 563 1203 556 1196 563 l 264 563 l 264 818 l 1196 818 b 1217 839 1210 818 1217 825 l 1217 951 b 1196 972 1217 965 1210 972 l 111 972 b 90 951 97 972 90 965 l 90 21 b 111 0 90 7 97 0 l 1203 0 b 1224 21 1217 0 1224 7 l 1224 133 b 1203 154 1224 147 1217 154 z "},"É":{"ha":1300,"x_min":0,"x_max":0,"o":"m 615 1040 l 721 1040 b 756 1065 735 1040 747 1051 l 879 1225 b 872 1250 892 1240 886 1250 l 704 1250 b 675 1225 690 1250 683 1242 l 603 1065 b 615 1040 594 1049 600 1040 z m 1203 154 l 264 154 l 264 410 l 1182 410 b 1203 431 1196 410 1203 417 l 1203 542 b 1182 563 1203 556 1196 563 l 264 563 l 264 818 l 1196 818 b 1217 839 1210 818 1217 825 l 1217 951 b 1196 972 1217 965 1210 972 l 111 972 b 90 951 97 972 90 965 l 90 21 b 111 0 90 7 97 0 l 1203 0 b 1224 21 1217 0 1224 7 l 1224 133 b 1203 154 1224 147 1217 154 z "},"Ě":{"ha":1300,"x_min":0,"x_max":0,"o":"m 560 1060 b 597 1040 571 1046 582 1040 l 731 1040 b 769 1060 746 1040 758 1047 l 913 1224 b 901 1250 924 1236 915 1250 l 782 1250 b 739 1224 763 1250 753 1240 l 671 1144 l 657 1144 l 590 1224 b 547 1250 576 1240 567 1250 l 428 1250 b 417 1224 414 1250 406 1236 z m 1203 154 l 264 154 l 264 410 l 1182 410 b 1203 431 1196 410 1203 417 l 1203 542 b 1182 563 1203 556 1196 563 l 264 563 l 264 818 l 1196 818 b 1217 839 1210 818 1217 825 l 1217 951 b 1196 972 1217 965 1210 972 l 111 972 b 90 951 97 972 90 965 l 90 21 b 111 0 90 7 97 0 l 1203 0 b 1224 21 1217 0 1224 7 l 1224 133 b 1203 154 1224 147 1217 154 z "},"Ȩ":{"ha":1300,"x_min":0,"x_max":0,"o":"m 1203 154 l 264 154 l 264 410 l 1182 410 b 1203 431 1196 410 1203 417 l 1203 542 b 1182 563 1203 556 1196 563 l 264 563 l 264 818 l 1196 818 b 1217 839 1210 818 1217 825 l 1217 951 b 1196 972 1217 965 1210 972 l 111 972 b 90 951 97 972 90 965 l 90 21 b 111 0 90 7 97 0 l 621 0 b 560 -82 578 -40 560 -56 b 615 -131 560 -115 585 -128 b 757 -167 733 -142 757 -144 b 714 -189 757 -185 740 -189 l 686 -189 b 646 -168 663 -189 650 -179 b 631 -154 644 -160 639 -154 l 532 -154 b 518 -172 521 -154 518 -161 b 640 -285 518 -240 549 -285 l 750 -285 b 885 -165 840 -285 885 -242 b 760 -46 885 -79 853 -56 b 768 0 728 -43 699 -37 l 1203 0 b 1224 21 1217 0 1224 7 l 1224 133 b 1203 154 1224 147 1217 154 z "},"Ê":{"ha":1300,"x_min":0,"x_max":0,"o":"m 428 1040 l 547 1040 b 590 1067 567 1040 576 1050 l 657 1146 l 671 1146 l 739 1067 b 782 1040 753 1050 763 1040 l 901 1040 b 913 1067 915 1040 924 1054 l 769 1231 b 731 1250 758 1243 746 1250 l 597 1250 b 560 1231 582 1250 571 1244 l 417 1067 b 428 1040 406 1054 414 1040 z m 1203 154 l 264 154 l 264 410 l 1182 410 b 1203 431 1196 410 1203 417 l 1203 542 b 1182 563 1203 556 1196 563 l 264 563 l 264 818 l 1196 818 b 1217 839 1210 818 1217 825 l 1217 951 b 1196 972 1217 965 1210 972 l 111 972 b 90 951 97 972 90 965 l 90 21 b 111 0 90 7 97 0 l 1203 0 b 1224 21 1217 0 1224 7 l 1224 133 b 1203 154 1224 147 1217 154 z "},"Ë":{"ha":1300,"x_min":0,"x_max":0,"o":"m 414 1078 l 544 1078 b 565 1099 558 1078 565 1085 l 565 1229 b 544 1250 565 1243 558 1250 l 414 1250 b 393 1229 400 1250 393 1243 l 393 1099 b 414 1078 393 1085 400 1078 z m 761 1078 l 890 1078 b 913 1099 904 1078 913 1085 l 913 1229 b 890 1250 913 1243 904 1250 l 761 1250 b 740 1229 747 1250 740 1243 l 740 1099 b 761 1078 740 1085 747 1078 z m 1203 154 l 264 154 l 264 410 l 1182 410 b 1203 431 1196 410 1203 417 l 1203 542 b 1182 563 1203 556 1196 563 l 264 563 l 264 818 l 1196 818 b 1217 839 1210 818 1217 825 l 1217 951 b 1196 972 1217 965 1210 972 l 111 972 b 90 951 97 972 90 965 l 90 21 b 111 0 90 7 97 0 l 1203 0 b 1224 21 1217 0 1224 7 l 1224 133 b 1203 154 1224 147 1217 154 z "},"Ė":{"ha":1300,"x_min":0,"x_max":0,"o":"m 599 1078 l 729 1078 b 750 1099 743 1078 750 1085 l 750 1229 b 729 1250 750 1243 743 1250 l 599 1250 b 578 1229 585 1250 578 1243 l 578 1099 b 599 1078 578 1085 585 1078 z m 1203 154 l 264 154 l 264 410 l 1182 410 b 1203 431 1196 410 1203 417 l 1203 542 b 1182 563 1203 556 1196 563 l 264 563 l 264 818 l 1196 818 b 1217 839 1210 818 1217 825 l 1217 951 b 1196 972 1217 965 1210 972 l 111 972 b 90 951 97 972 90 965 l 90 21 b 111 0 90 7 97 0 l 1203 0 b 1224 21 1217 0 1224 7 l 1224 133 b 1203 154 1224 147 1217 154 z "},"È":{"ha":1300,"x_min":0,"x_max":0,"o":"m 574 1065 b 607 1040 583 1051 593 1040 l 713 1040 b 726 1065 728 1040 735 1049 l 654 1225 b 625 1250 646 1242 639 1250 l 464 1250 b 450 1225 449 1250 438 1240 z m 1203 154 l 264 154 l 264 410 l 1182 410 b 1203 431 1196 410 1203 417 l 1203 542 b 1182 563 1203 556 1196 563 l 264 563 l 264 818 l 1196 818 b 1217 839 1210 818 1217 825 l 1217 951 b 1196 972 1217 965 1210 972 l 111 972 b 90 951 97 972 90 965 l 90 21 b 111 0 90 7 97 0 l 1203 0 b 1224 21 1217 0 1224 7 l 1224 133 b 1203 154 1224 147 1217 154 z "},"Ē":{"ha":1300,"x_min":0,"x_max":0,"o":"m 439 1100 l 889 1100 b 910 1121 901 1100 910 1107 l 910 1229 b 889 1250 910 1243 901 1250 l 439 1250 b 418 1229 425 1250 418 1243 l 418 1121 b 439 1100 418 1107 425 1100 z m 1203 154 l 264 154 l 264 410 l 1182 410 b 1203 431 1196 410 1203 417 l 1203 542 b 1182 563 1203 556 1196 563 l 264 563 l 264 818 l 1196 818 b 1217 839 1210 818 1217 825 l 1217 951 b 1196 972 1217 965 1210 972 l 111 972 b 90 951 97 972 90 965 l 90 21 b 111 0 90 7 97 0 l 1203 0 b 1224 21 1217 0 1224 7 l 1224 133 b 1203 154 1224 147 1217 154 z "},"Ę":{"ha":1300,"x_min":0,"x_max":0,"o":"m 1203 154 l 264 154 l 264 410 l 1182 410 b 1203 431 1196 410 1203 417 l 1203 542 b 1182 563 1203 556 1196 563 l 264 563 l 264 818 l 1196 818 b 1217 839 1210 818 1217 825 l 1217 951 b 1196 972 1217 965 1210 972 l 111 972 b 90 951 97 972 90 965 l 90 21 b 111 0 90 7 97 0 l 1056 0 b 1008 -22 1051 -18 1035 -19 l 957 -28 b 856 -144 879 -36 856 -53 b 997 -267 856 -246 886 -267 l 1188 -267 b 1201 -253 1197 -267 1201 -261 l 1201 -175 b 1188 -158 1201 -165 1196 -158 l 1026 -158 b 1006 -142 1011 -158 1006 -153 b 1024 -122 1006 -128 1010 -124 l 1126 -110 b 1224 -28 1192 -101 1224 -96 l 1224 133 b 1203 154 1224 147 1217 154 z "},"F":{"ha":1293,"x_min":0,"x_max":0,"o":"m 1196 972 l 111 972 b 90 951 97 972 90 965 l 90 21 b 111 0 90 7 97 0 l 243 0 b 264 21 257 0 264 7 l 264 428 l 1182 428 b 1203 449 1196 428 1203 435 l 1203 561 b 1182 582 1203 575 1196 582 l 264 582 l 264 818 l 1196 818 b 1217 839 1210 818 1217 825 l 1217 951 b 1196 972 1217 965 1210 972 z "},"G":{"ha":1410,"x_min":0,"x_max":0,"o":"m 340 -6 l 1083 -6 b 1333 246 1256 -6 1333 85 l 1333 475 b 1306 503 1333 492 1324 503 l 763 503 b 733 475 744 503 733 493 l 733 378 b 763 350 733 360 744 350 l 1160 350 l 1160 260 b 1047 149 1160 179 1125 149 l 378 149 b 257 260 300 149 257 179 l 257 713 b 378 824 257 793 300 824 l 1047 824 b 1157 713 1125 824 1157 793 l 1157 665 b 1178 643 1157 651 1164 643 l 1310 643 b 1331 665 1324 643 1331 651 l 1331 726 b 1082 978 1331 888 1254 978 l 340 978 b 83 726 168 978 83 888 l 83 246 b 340 -6 83 85 168 -6 z "},"Ğ":{"ha":1410,"x_min":0,"x_max":0,"o":"m 664 1032 l 747 1032 b 938 1229 878 1032 938 1096 b 917 1250 938 1243 931 1250 l 822 1250 b 801 1229 808 1250 803 1243 b 724 1147 797 1185 782 1147 l 688 1147 b 610 1229 629 1147 614 1185 b 589 1250 608 1243 603 1250 l 494 1250 b 474 1229 481 1250 474 1243 b 664 1032 474 1096 533 1032 z m 340 -6 l 1083 -6 b 1333 246 1256 -6 1333 85 l 1333 475 b 1306 503 1333 492 1324 503 l 763 503 b 733 475 744 503 733 493 l 733 378 b 763 350 733 360 744 350 l 1160 350 l 1160 260 b 1047 149 1160 179 1125 149 l 378 149 b 257 260 300 149 257 179 l 257 713 b 378 824 257 793 300 824 l 1047 824 b 1157 713 1125 824 1157 793 l 1157 665 b 1178 643 1157 651 1164 643 l 1310 643 b 1331 665 1324 643 1331 651 l 1331 726 b 1082 978 1331 888 1254 978 l 340 978 b 83 726 168 978 83 888 l 83 246 b 340 -6 83 85 168 -6 z "},"Ǧ":{"ha":1410,"x_min":0,"x_max":0,"o":"m 639 1040 l 772 1040 b 811 1060 788 1040 800 1047 l 954 1224 b 943 1250 965 1236 957 1250 l 824 1250 b 781 1224 804 1250 794 1240 l 713 1144 l 699 1144 l 632 1224 b 589 1250 618 1240 608 1250 l 469 1250 b 458 1224 456 1250 447 1236 l 601 1060 b 639 1040 613 1046 624 1040 z m 340 -6 l 1083 -6 b 1333 246 1256 -6 1333 85 l 1333 475 b 1306 503 1333 492 1324 503 l 763 503 b 733 475 744 503 733 493 l 733 378 b 763 350 733 360 744 350 l 1160 350 l 1160 260 b 1047 149 1160 179 1125 149 l 378 149 b 257 260 300 149 257 179 l 257 713 b 378 824 257 793 300 824 l 1047 824 b 1157 713 1125 824 1157 793 l 1157 665 b 1178 643 1157 651 1164 643 l 1310 643 b 1331 665 1324 643 1331 651 l 1331 726 b 1082 978 1331 888 1254 978 l 340 978 b 83 726 168 978 83 888 l 83 246 b 340 -6 83 85 168 -6 z "},"Ģ":{"ha":1410,"x_min":0,"x_max":0,"o":"m 340 -6 l 1083 -6 b 1333 246 1256 -6 1333 85 l 1333 475 b 1306 503 1333 492 1324 503 l 763 503 b 733 475 744 503 733 493 l 733 378 b 763 350 733 360 744 350 l 1160 350 l 1160 260 b 1047 149 1160 179 1125 149 l 378 149 b 257 260 300 149 257 179 l 257 713 b 378 824 257 793 300 824 l 1047 824 b 1157 713 1125 824 1157 793 l 1157 665 b 1178 643 1157 651 1164 643 l 1310 643 b 1331 665 1324 643 1331 651 l 1331 726 b 1082 978 1331 888 1254 978 l 340 978 b 83 726 168 978 83 888 l 83 246 b 340 -6 83 85 168 -6 z m 758 -83 l 654 -83 b 633 -104 640 -83 633 -90 l 633 -342 l 574 -342 b 553 -362 560 -342 553 -349 l 553 -460 b 574 -481 553 -474 560 -481 l 731 -481 b 779 -431 763 -481 779 -464 l 779 -104 b 758 -83 779 -90 772 -83 z "},"Ġ":{"ha":1410,"x_min":0,"x_max":0,"o":"m 640 1078 l 771 1078 b 792 1099 785 1078 792 1085 l 792 1229 b 771 1250 792 1243 785 1250 l 640 1250 b 619 1229 626 1250 619 1243 l 619 1099 b 640 1078 619 1085 626 1078 z m 340 -6 l 1083 -6 b 1333 246 1256 -6 1333 85 l 1333 475 b 1306 503 1333 492 1324 503 l 763 503 b 733 475 744 503 733 493 l 733 378 b 763 350 733 360 744 350 l 1160 350 l 1160 260 b 1047 149 1160 179 1125 149 l 378 149 b 257 260 300 149 257 179 l 257 713 b 378 824 257 793 300 824 l 1047 824 b 1157 713 1125 824 1157 793 l 1157 665 b 1178 643 1157 651 1164 643 l 1310 643 b 1331 665 1324 643 1331 651 l 1331 726 b 1082 978 1331 888 1254 978 l 340 978 b 83 726 168 978 83 888 l 83 246 b 340 -6 83 85 168 -6 z "},"H":{"ha":1378,"x_min":0,"x_max":0,"o":"m 1265 972 l 1133 972 b 1113 951 1119 972 1113 965 l 1113 563 l 264 563 l 264 951 b 243 972 264 965 257 972 l 111 972 b 90 951 97 972 90 965 l 90 21 b 111 0 90 7 97 0 l 243 0 b 264 21 257 0 264 7 l 264 410 l 1113 410 l 1113 21 b 1133 0 1113 7 1119 0 l 1265 0 b 1288 21 1279 0 1288 7 l 1288 951 b 1265 972 1288 965 1279 972 z "},"Ħ":{"ha":1378,"x_min":0,"x_max":0,"o":"m 1265 972 l 1133 972 b 1113 951 1119 972 1113 965 l 1113 813 l 264 813 l 264 951 b 243 972 264 965 257 972 l 111 972 b 90 951 97 972 90 965 l 90 21 b 111 0 90 7 97 0 l 243 0 b 264 21 257 0 264 7 l 264 410 l 1113 410 l 1113 21 b 1133 0 1113 7 1119 0 l 1265 0 b 1288 21 1279 0 1288 7 l 1288 951 b 1265 972 1288 965 1279 972 z m 264 563 l 264 660 l 1113 660 l 1113 563 z "},"I":{"ha":354,"x_min":0,"x_max":0,"o":"m 90 951 l 90 21 b 111 0 90 7 97 0 l 243 0 b 264 21 257 0 264 7 l 264 951 b 243 972 264 965 257 972 l 111 972 b 90 951 97 972 90 965 z "},"Ĳ":{"ha":1710,"x_min":0,"x_max":0,"o":"m 90 951 l 90 21 b 111 0 90 7 97 0 l 243 0 b 264 21 257 0 264 7 l 264 951 b 243 972 264 965 257 972 l 111 972 b 90 951 97 972 90 965 z m 451 0 l 1368 0 b 1619 251 1540 0 1619 90 l 1619 951 b 1597 972 1619 965 1611 972 l 1465 972 b 1444 951 1451 972 1444 965 l 1444 265 b 1332 154 1444 185 1410 154 l 451 154 b 431 133 438 154 431 147 l 431 21 b 451 0 431 7 438 0 z "},"Í":{"ha":354,"x_min":0,"x_max":0,"o":"m 189 1225 l 117 1065 b 129 1040 108 1049 114 1040 l 235 1040 b 269 1065 249 1040 261 1051 l 393 1225 b 386 1250 406 1240 400 1250 l 218 1250 b 189 1225 204 1250 197 1242 z m 90 951 l 90 21 b 111 0 90 7 97 0 l 243 0 b 264 21 257 0 264 7 l 264 951 b 243 972 264 965 257 972 l 111 972 b 90 951 97 972 90 965 z "},"Ǐ":{"ha":354,"x_min":0,"x_max":0,"o":"m 110 1040 l 243 1040 b 282 1060 258 1040 271 1047 l 425 1224 b 414 1250 436 1236 428 1250 l 294 1250 b 251 1224 275 1250 265 1240 l 183 1144 l 169 1144 l 103 1224 b 60 1250 89 1240 79 1250 l -60 1250 b -71 1224 -74 1250 -82 1236 l 72 1060 b 110 1040 83 1046 94 1040 z m 90 951 l 90 21 b 111 0 90 7 97 0 l 243 0 b 264 21 257 0 264 7 l 264 951 b 243 972 264 965 257 972 l 111 972 b 90 951 97 972 90 965 z "},"Î":{"ha":354,"x_min":0,"x_max":0,"o":"m 110 1250 b 72 1231 94 1250 83 1244 l -71 1067 b -60 1040 -82 1054 -74 1040 l 60 1040 b 103 1067 79 1040 89 1050 l 169 1146 l 183 1146 l 251 1067 b 294 1040 265 1050 275 1040 l 414 1040 b 425 1067 428 1040 436 1054 l 282 1231 b 243 1250 271 1243 258 1250 z m 90 951 l 90 21 b 111 0 90 7 97 0 l 243 0 b 264 21 257 0 264 7 l 264 951 b 243 972 264 965 257 972 l 111 972 b 90 951 97 972 90 965 z "},"Ï":{"ha":354,"x_min":0,"x_max":0,"o":"m -74 1078 l 57 1078 b 78 1099 71 1078 78 1085 l 78 1229 b 57 1250 78 1243 71 1250 l -74 1250 b -94 1229 -87 1250 -94 1243 l -94 1099 b -74 1078 -94 1085 -87 1078 z m 274 1078 l 403 1078 b 425 1099 417 1078 425 1085 l 425 1229 b 403 1250 425 1243 417 1250 l 274 1250 b 253 1229 260 1250 253 1243 l 253 1099 b 274 1078 253 1085 260 1078 z m 90 951 l 90 21 b 111 0 90 7 97 0 l 243 0 b 264 21 257 0 264 7 l 264 951 b 243 972 264 965 257 972 l 111 972 b 90 951 97 972 90 965 z "},"İ":{"ha":354,"x_min":0,"x_max":0,"o":"m 111 1078 l 242 1078 b 263 1099 256 1078 263 1085 l 263 1229 b 242 1250 263 1243 256 1250 l 111 1250 b 90 1229 97 1250 90 1243 l 90 1099 b 111 1078 90 1085 97 1078 z m 90 951 l 90 21 b 111 0 90 7 97 0 l 243 0 b 264 21 257 0 264 7 l 264 951 b 243 972 264 965 257 972 l 111 972 b 90 951 97 972 90 965 z "},"Ì":{"ha":354,"x_min":0,"x_max":0,"o":"m 167 1225 b 138 1250 158 1242 151 1250 l -24 1250 b -37 1225 -39 1250 -50 1240 l 86 1065 b 119 1040 96 1051 106 1040 l 225 1040 b 239 1065 240 1040 247 1049 z m 90 951 l 90 21 b 111 0 90 7 97 0 l 243 0 b 264 21 257 0 264 7 l 264 951 b 243 972 264 965 257 972 l 111 972 b 90 951 97 972 90 965 z "},"Ī":{"ha":354,"x_min":0,"x_max":0,"o":"m -47 1100 l 403 1100 b 424 1121 415 1100 424 1107 l 424 1229 b 403 1250 424 1243 415 1250 l -47 1250 b -68 1229 -61 1250 -68 1243 l -68 1121 b -47 1100 -68 1107 -61 1100 z m 90 951 l 90 21 b 111 0 90 7 97 0 l 243 0 b 264 21 257 0 264 7 l 264 951 b 243 972 264 965 257 972 l 111 972 b 90 951 97 972 90 965 z "},"Į":{"ha":357,"x_min":0,"x_max":0,"o":"m 246 972 l 114 972 b 93 951 100 972 93 965 l 93 -6 b 50 -42 93 -37 82 -39 l -3 -47 b -103 -164 -79 -56 -103 -72 b 38 -286 -103 -265 -72 -286 l 229 -286 b 243 -272 239 -286 243 -281 l 243 -194 b 229 -178 243 -185 238 -178 l 68 -178 b 46 -161 51 -178 46 -172 b 65 -142 46 -147 50 -143 l 171 -129 b 267 -47 236 -122 267 -115 l 267 951 b 246 972 267 965 260 972 z "},"J":{"ha":1356,"x_min":0,"x_max":0,"o":"m 97 0 l 1014 0 b 1265 251 1186 0 1265 90 l 1265 951 b 1243 972 1265 965 1257 972 l 1111 972 b 1090 951 1097 972 1090 965 l 1090 265 b 978 154 1090 185 1056 154 l 97 154 b 76 133 83 154 76 147 l 76 21 b 97 0 76 7 83 0 z "},"K":{"ha":1385,"x_min":0,"x_max":0,"o":"m 1329 33 l 689 565 l 1290 938 b 1285 972 1310 950 1301 972 l 1100 972 b 1040 950 1078 972 1060 961 l 264 474 l 264 951 b 243 972 264 965 257 972 l 111 972 b 90 951 97 972 90 965 l 90 21 b 111 0 90 7 97 0 l 243 0 b 264 21 257 0 264 7 l 264 301 l 553 479 l 1106 22 b 1153 0 1122 8 1133 0 l 1318 0 b 1329 33 1339 0 1342 22 z "},"Ķ":{"ha":1385,"x_min":0,"x_max":0,"o":"m 1329 33 l 689 565 l 1290 938 b 1285 972 1310 950 1301 972 l 1100 972 b 1040 950 1078 972 1060 961 l 264 474 l 264 951 b 243 972 264 965 257 972 l 111 972 b 90 951 97 972 90 965 l 90 21 b 111 0 90 7 97 0 l 243 0 b 264 21 257 0 264 7 l 264 301 l 553 479 l 1106 22 b 1153 0 1122 8 1133 0 l 1318 0 b 1329 33 1339 0 1342 22 z m 742 -83 l 638 -83 b 617 -104 624 -83 617 -90 l 617 -342 l 557 -342 b 536 -362 543 -342 536 -349 l 536 -460 b 557 -481 536 -474 543 -481 l 714 -481 b 763 -431 746 -481 763 -464 l 763 -104 b 742 -83 763 -90 756 -83 z "},"L":{"ha":1293,"x_min":0,"x_max":0,"o":"m 1203 154 l 264 154 l 264 951 b 243 972 264 965 257 972 l 111 972 b 90 951 97 972 90 965 l 90 21 b 111 0 90 7 97 0 l 1203 0 b 1224 21 1217 0 1224 7 l 1224 133 b 1203 154 1224 147 1217 154 z "},"Ĺ":{"ha":1293,"x_min":0,"x_max":0,"o":"m 121 1040 l 226 1040 b 261 1065 240 1040 253 1051 l 385 1225 b 378 1250 397 1240 392 1250 l 210 1250 b 181 1225 196 1250 189 1242 l 108 1065 b 121 1040 100 1049 106 1040 z m 1203 154 l 264 154 l 264 951 b 243 972 264 965 257 972 l 111 972 b 90 951 97 972 90 965 l 90 21 b 111 0 90 7 97 0 l 1203 0 b 1224 21 1217 0 1224 7 l 1224 133 b 1203 154 1224 147 1217 154 z "},"Ľ":{"ha":1293,"x_min":0,"x_max":0,"o":"m 1203 154 l 264 154 l 264 951 b 243 972 264 965 257 972 l 111 972 b 90 951 97 972 90 965 l 90 21 b 111 0 90 7 97 0 l 1203 0 b 1224 21 1217 0 1224 7 l 1224 133 b 1203 154 1224 147 1217 154 z m 404 575 l 561 575 b 610 625 593 575 610 592 l 610 951 b 589 972 610 965 603 972 l 485 972 b 464 951 471 972 464 965 l 464 715 l 404 715 b 383 693 390 715 383 707 l 383 596 b 404 575 383 582 390 575 z "},"Ļ":{"ha":1293,"x_min":0,"x_max":0,"o":"m 1203 154 l 264 154 l 264 951 b 243 972 264 965 257 972 l 111 972 b 90 951 97 972 90 965 l 90 21 b 111 0 90 7 97 0 l 1203 0 b 1224 21 1217 0 1224 7 l 1224 133 b 1203 154 1224 147 1217 154 z m 700 -83 l 596 -83 b 575 -104 582 -83 575 -90 l 575 -342 l 515 -342 b 494 -362 501 -342 494 -349 l 494 -460 b 515 -481 494 -474 501 -481 l 672 -481 b 721 -431 704 -481 721 -464 l 721 -104 b 700 -83 721 -90 714 -83 z "},"Ŀ":{"ha":1293,"x_min":0,"x_max":0,"o":"m 1203 154 l 264 154 l 264 951 b 243 972 264 965 257 972 l 111 972 b 90 951 97 972 90 965 l 90 21 b 111 0 90 7 97 0 l 1203 0 b 1224 21 1217 0 1224 7 l 1224 133 b 1203 154 1224 147 1217 154 z m 517 406 l 647 406 b 668 426 661 406 668 413 l 668 557 b 647 578 668 571 661 578 l 517 578 b 496 557 503 578 496 571 l 496 426 b 517 406 496 413 503 406 z "},"Ł":{"ha":1396,"x_min":0,"x_max":0,"o":"m 1304 154 l 367 154 l 367 424 l 549 628 b 536 653 561 642 553 653 l 389 653 b 367 640 381 653 376 650 l 367 951 b 346 972 367 965 360 972 l 214 972 b 193 951 200 972 193 965 l 193 446 l 1 231 b 15 206 -12 217 -1 206 l 161 206 b 193 229 172 206 176 210 l 193 21 b 214 0 193 7 200 0 l 1304 0 b 1326 21 1318 0 1326 7 l 1326 133 b 1304 154 1326 147 1318 154 z "},"M":{"ha":1629,"x_min":0,"x_max":0,"o":"m 111 0 l 243 0 b 264 21 257 0 264 7 l 264 746 l 278 746 l 724 21 b 754 0 732 7 740 0 l 874 0 b 906 21 889 0 897 7 l 1351 746 l 1365 746 l 1365 21 b 1386 0 1365 7 1372 0 l 1518 0 b 1539 21 1532 0 1539 7 l 1539 951 b 1518 972 1539 965 1532 972 l 1317 972 b 1288 951 1303 972 1296 965 l 822 197 l 806 197 l 342 951 b 313 972 333 965 326 972 l 111 972 b 90 951 97 972 90 965 l 90 21 b 111 0 90 7 97 0 z "},"Ḿ":{"ha":1629,"x_min":0,"x_max":0,"o":"m 831 1225 l 758 1065 b 771 1040 750 1049 756 1040 l 876 1040 b 911 1065 890 1040 903 1051 l 1035 1225 b 1028 1250 1047 1240 1042 1250 l 860 1250 b 831 1225 846 1250 839 1242 z m 111 0 l 243 0 b 264 21 257 0 264 7 l 264 746 l 278 746 l 724 21 b 754 0 732 7 740 0 l 874 0 b 906 21 889 0 897 7 l 1351 746 l 1365 746 l 1365 21 b 1386 0 1365 7 1372 0 l 1518 0 b 1539 21 1532 0 1539 7 l 1539 951 b 1518 972 1539 965 1532 972 l 1317 972 b 1288 951 1303 972 1296 965 l 822 197 l 806 197 l 342 951 b 313 972 333 965 326 972 l 111 972 b 90 951 97 972 90 965 l 90 21 b 111 0 90 7 97 0 z "},"N":{"ha":1392,"x_min":0,"x_max":0,"o":"m 111 0 l 243 0 b 264 21 257 0 264 7 l 264 771 l 279 771 l 1086 15 b 1115 0 1097 6 1103 0 l 1279 0 b 1301 21 1293 0 1301 7 l 1301 951 b 1279 972 1301 965 1293 972 l 1147 972 b 1126 951 1133 972 1126 965 l 1126 201 l 1111 201 l 306 957 b 276 972 294 967 289 972 l 111 972 b 90 951 97 972 90 965 l 90 21 b 111 0 90 7 97 0 z "},"Ń":{"ha":1392,"x_min":0,"x_max":0,"o":"m 708 1225 l 636 1065 b 649 1040 628 1049 633 1040 l 754 1040 b 789 1065 768 1040 781 1051 l 913 1225 b 906 1250 925 1240 919 1250 l 738 1250 b 708 1225 724 1250 717 1242 z m 111 0 l 243 0 b 264 21 257 0 264 7 l 264 771 l 279 771 l 1086 15 b 1115 0 1097 6 1103 0 l 1279 0 b 1301 21 1293 0 1301 7 l 1301 951 b 1279 972 1301 965 1293 972 l 1147 972 b 1126 951 1133 972 1126 965 l 1126 201 l 1111 201 l 306 957 b 276 972 294 967 289 972 l 111 972 b 90 951 97 972 90 965 l 90 21 b 111 0 90 7 97 0 z "},"Ň":{"ha":1392,"x_min":0,"x_max":0,"o":"m 629 1040 l 763 1040 b 801 1060 778 1040 790 1047 l 944 1224 b 933 1250 956 1236 947 1250 l 814 1250 b 771 1224 794 1250 785 1240 l 703 1144 l 689 1144 l 622 1224 b 579 1250 608 1240 599 1250 l 460 1250 b 449 1224 446 1250 438 1236 l 592 1060 b 629 1040 603 1046 614 1040 z m 111 0 l 243 0 b 264 21 257 0 264 7 l 264 771 l 279 771 l 1086 15 b 1115 0 1097 6 1103 0 l 1279 0 b 1301 21 1293 0 1301 7 l 1301 951 b 1279 972 1301 965 1293 972 l 1147 972 b 1126 951 1133 972 1126 965 l 1126 201 l 1111 201 l 306 957 b 276 972 294 967 289 972 l 111 972 b 90 951 97 972 90 965 l 90 21 b 111 0 90 7 97 0 z "},"Ņ":{"ha":1392,"x_min":0,"x_max":0,"o":"m 111 0 l 243 0 b 264 21 257 0 264 7 l 264 771 l 279 771 l 1086 15 b 1115 0 1097 6 1103 0 l 1279 0 b 1301 21 1293 0 1301 7 l 1301 951 b 1279 972 1301 965 1293 972 l 1147 972 b 1126 951 1133 972 1126 965 l 1126 201 l 1111 201 l 306 957 b 276 972 294 967 289 972 l 111 972 b 90 951 97 972 90 965 l 90 21 b 111 0 90 7 97 0 z m 750 -83 l 646 -83 b 625 -104 632 -83 625 -90 l 625 -342 l 565 -342 b 544 -362 551 -342 544 -349 l 544 -460 b 565 -481 544 -474 551 -481 l 722 -481 b 771 -431 754 -481 771 -464 l 771 -104 b 750 -83 771 -90 764 -83 z "},"Ŋ":{"ha":1392,"x_min":0,"x_max":0,"o":"m 1279 972 l 1147 972 b 1126 951 1133 972 1126 965 l 1126 201 l 1111 201 l 306 957 b 276 972 294 967 289 972 l 111 972 b 90 951 97 972 90 965 l 90 21 b 111 0 90 7 97 0 l 243 0 b 264 21 257 0 264 7 l 264 771 l 279 771 l 1086 15 b 1115 0 1097 6 1103 0 l 1126 0 l 1126 -12 b 1014 -124 1126 -93 1092 -124 l 111 -124 b 90 -144 97 -124 90 -131 l 90 -257 b 111 -278 90 -271 97 -278 l 1050 -278 b 1301 -26 1222 -278 1301 -187 l 1301 951 b 1279 972 1301 965 1293 972 z "},"Ñ":{"ha":1392,"x_min":0,"x_max":0,"o":"m 788 1056 b 925 1101 835 1056 876 1065 b 938 1133 936 1110 943 1118 l 903 1221 b 876 1228 899 1229 889 1235 b 792 1200 842 1208 825 1200 b 604 1257 722 1200 700 1257 b 467 1211 558 1257 517 1247 b 454 1179 456 1203 449 1194 l 490 1092 b 517 1086 494 1083 503 1076 b 600 1113 549 1106 567 1113 b 788 1056 671 1113 692 1056 z m 111 0 l 243 0 b 264 21 257 0 264 7 l 264 771 l 279 771 l 1086 15 b 1115 0 1097 6 1103 0 l 1279 0 b 1301 21 1293 0 1301 7 l 1301 951 b 1279 972 1301 965 1293 972 l 1147 972 b 1126 951 1133 972 1126 965 l 1126 201 l 1111 201 l 306 957 b 276 972 294 967 289 972 l 111 972 b 90 951 97 972 90 965 l 90 21 b 111 0 90 7 97 0 z "},"O":{"ha":1417,"x_min":0,"x_max":0,"o":"m 340 -6 l 1076 -6 b 1333 246 1249 -6 1333 85 l 1333 726 b 1076 978 1333 888 1249 978 l 340 978 b 83 726 168 978 83 888 l 83 246 b 340 -6 83 85 168 -6 z m 378 149 b 257 260 300 149 257 179 l 257 713 b 378 824 257 793 300 824 l 1039 824 b 1160 713 1118 824 1160 793 l 1160 260 b 1039 149 1160 179 1118 149 z "},"Ó":{"ha":1417,"x_min":0,"x_max":0,"o":"m 719 1225 l 647 1065 b 660 1040 639 1049 644 1040 l 765 1040 b 800 1065 779 1040 792 1051 l 924 1225 b 917 1250 936 1240 931 1250 l 749 1250 b 719 1225 735 1250 728 1242 z m 340 -6 l 1076 -6 b 1333 246 1249 -6 1333 85 l 1333 726 b 1076 978 1333 888 1249 978 l 340 978 b 83 726 168 978 83 888 l 83 246 b 340 -6 83 85 168 -6 z m 378 149 b 257 260 300 149 257 179 l 257 713 b 378 824 257 793 300 824 l 1039 824 b 1160 713 1118 824 1160 793 l 1160 260 b 1039 149 1160 179 1118 149 z "},"Ǒ":{"ha":1417,"x_min":0,"x_max":0,"o":"m 642 1040 l 775 1040 b 814 1060 790 1040 803 1047 l 957 1224 b 946 1250 968 1236 960 1250 l 826 1250 b 783 1224 807 1250 797 1240 l 715 1144 l 701 1144 l 635 1224 b 592 1250 621 1240 611 1250 l 472 1250 b 461 1224 458 1250 450 1236 l 604 1060 b 642 1040 615 1046 626 1040 z m 340 -6 l 1076 -6 b 1333 246 1249 -6 1333 85 l 1333 726 b 1076 978 1333 888 1249 978 l 340 978 b 83 726 168 978 83 888 l 83 246 b 340 -6 83 85 168 -6 z m 378 149 b 257 260 300 149 257 179 l 257 713 b 378 824 257 793 300 824 l 1039 824 b 1160 713 1118 824 1160 793 l 1160 260 b 1039 149 1160 179 1118 149 z "},"Ô":{"ha":1417,"x_min":0,"x_max":0,"o":"m 642 1250 b 604 1231 626 1250 615 1244 l 461 1067 b 472 1040 450 1054 458 1040 l 592 1040 b 635 1067 611 1040 621 1050 l 701 1146 l 715 1146 l 783 1067 b 826 1040 797 1050 807 1040 l 946 1040 b 957 1067 960 1040 968 1054 l 814 1231 b 775 1250 803 1243 790 1250 z m 340 -6 l 1076 -6 b 1333 246 1249 -6 1333 85 l 1333 726 b 1076 978 1333 888 1249 978 l 340 978 b 83 726 168 978 83 888 l 83 246 b 340 -6 83 85 168 -6 z m 378 149 b 257 260 300 149 257 179 l 257 713 b 378 824 257 793 300 824 l 1039 824 b 1160 713 1118 824 1160 793 l 1160 260 b 1039 149 1160 179 1118 149 z "},"Ö":{"ha":1417,"x_min":0,"x_max":0,"o":"m 458 1078 l 589 1078 b 610 1099 603 1078 610 1085 l 610 1229 b 589 1250 610 1243 603 1250 l 458 1250 b 438 1229 444 1250 438 1243 l 438 1099 b 458 1078 438 1085 444 1078 z m 806 1078 l 935 1078 b 957 1099 949 1078 957 1085 l 957 1229 b 935 1250 957 1243 949 1250 l 806 1250 b 785 1229 792 1250 785 1243 l 785 1099 b 806 1078 785 1085 792 1078 z m 340 -6 l 1076 -6 b 1333 246 1249 -6 1333 85 l 1333 726 b 1076 978 1333 888 1249 978 l 340 978 b 83 726 168 978 83 888 l 83 246 b 340 -6 83 85 168 -6 z m 378 149 b 257 260 300 149 257 179 l 257 713 b 378 824 257 793 300 824 l 1039 824 b 1160 713 1118 824 1160 793 l 1160 260 b 1039 149 1160 179 1118 149 z "},"Ò":{"ha":1417,"x_min":0,"x_max":0,"o":"m 699 1225 b 669 1250 690 1242 683 1250 l 508 1250 b 494 1225 493 1250 482 1240 l 618 1065 b 651 1040 628 1051 638 1040 l 757 1040 b 771 1065 772 1040 779 1049 z m 340 -6 l 1076 -6 b 1333 246 1249 -6 1333 85 l 1333 726 b 1076 978 1333 888 1249 978 l 340 978 b 83 726 168 978 83 888 l 83 246 b 340 -6 83 85 168 -6 z m 378 149 b 257 260 300 149 257 179 l 257 713 b 378 824 257 793 300 824 l 1039 824 b 1160 713 1118 824 1160 793 l 1160 260 b 1039 149 1160 179 1118 149 z "},"Ő":{"ha":1417,"x_min":0,"x_max":0,"o":"m 581 1225 l 508 1065 b 521 1040 500 1049 506 1040 l 626 1040 b 661 1065 640 1040 653 1051 l 785 1225 b 778 1250 797 1240 792 1250 l 610 1250 b 581 1225 596 1250 589 1242 z m 844 1225 l 772 1065 b 785 1040 764 1049 769 1040 l 890 1040 b 925 1065 904 1040 915 1051 l 1049 1225 b 1042 1250 1061 1240 1056 1250 l 874 1250 b 844 1225 860 1250 853 1242 z m 340 -6 l 1076 -6 b 1333 246 1249 -6 1333 85 l 1333 726 b 1076 978 1333 888 1249 978 l 340 978 b 83 726 168 978 83 888 l 83 246 b 340 -6 83 85 168 -6 z m 378 149 b 257 260 300 149 257 179 l 257 713 b 378 824 257 793 300 824 l 1039 824 b 1160 713 1118 824 1160 793 l 1160 260 b 1039 149 1160 179 1118 149 z "},"Ō":{"ha":1417,"x_min":0,"x_max":0,"o":"m 483 1100 l 933 1100 b 954 1121 946 1100 954 1107 l 954 1229 b 933 1250 954 1243 946 1250 l 483 1250 b 463 1229 469 1250 463 1243 l 463 1121 b 483 1100 463 1107 469 1100 z m 340 -6 l 1076 -6 b 1333 246 1249 -6 1333 85 l 1333 726 b 1076 978 1333 888 1249 978 l 340 978 b 83 726 168 978 83 888 l 83 246 b 340 -6 83 85 168 -6 z m 378 149 b 257 260 300 149 257 179 l 257 713 b 378 824 257 793 300 824 l 1039 824 b 1160 713 1118 824 1160 793 l 1160 260 b 1039 149 1160 179 1118 149 z "},"Ø":{"ha":1417,"x_min":0,"x_max":0,"o":"m 1076 978 l 1000 978 l 1008 997 b 994 1019 1014 1011 1008 1019 l 868 1019 b 840 999 854 1019 846 1013 l 832 978 l 340 978 b 83 726 168 978 83 888 l 83 246 b 340 -6 83 85 168 -6 l 417 -6 l 408 -25 b 422 -47 403 -39 408 -47 l 550 -47 b 578 -26 564 -47 572 -40 l 586 -6 l 1076 -6 b 1333 246 1249 -6 1333 85 l 1333 726 b 1076 978 1333 888 1249 978 z m 378 149 b 257 260 300 149 257 179 l 257 713 b 378 824 257 793 300 824 l 767 824 l 482 149 z m 1160 260 b 1039 149 1160 179 1118 149 l 651 149 l 935 824 l 1039 824 b 1160 713 1118 824 1160 793 z "},"Õ":{"ha":1417,"x_min":0,"x_max":0,"o":"m 800 1056 b 938 1101 847 1056 889 1065 b 950 1133 949 1110 956 1118 l 915 1221 b 889 1228 911 1229 901 1235 b 804 1200 854 1208 838 1200 b 617 1257 735 1200 713 1257 b 479 1211 571 1257 529 1247 b 467 1179 468 1203 461 1194 l 503 1092 b 529 1086 507 1083 515 1076 b 613 1113 561 1106 579 1113 b 800 1056 683 1113 704 1056 z m 340 -6 l 1076 -6 b 1333 246 1249 -6 1333 85 l 1333 726 b 1076 978 1333 888 1249 978 l 340 978 b 83 726 168 978 83 888 l 83 246 b 340 -6 83 85 168 -6 z m 378 149 b 257 260 300 149 257 179 l 257 713 b 378 824 257 793 300 824 l 1039 824 b 1160 713 1118 824 1160 793 l 1160 260 b 1039 149 1160 179 1118 149 z "},"Œ":{"ha":2369,"x_min":0,"x_max":0,"o":"m 2272 154 l 1333 154 l 1333 410 l 2251 410 b 2272 431 2265 410 2272 417 l 2272 542 b 2251 563 2272 556 2265 563 l 1333 563 l 1333 818 l 2265 818 b 2286 839 2279 818 2286 825 l 2286 951 b 2265 972 2286 965 2279 972 l 1181 972 b 1165 968 1174 972 1169 971 b 1076 978 1139 975 1110 978 l 340 978 b 83 726 168 978 83 888 l 83 246 b 340 -6 83 85 168 -6 l 1076 -6 b 1165 4 1110 -6 1139 -3 b 1181 0 1169 1 1174 0 l 2272 0 b 2293 21 2286 0 2293 7 l 2293 133 b 2272 154 2293 147 2286 154 z m 1039 149 l 378 149 b 257 260 300 149 257 179 l 257 713 b 378 824 257 793 300 824 l 1039 824 b 1160 713 1118 824 1160 793 l 1160 260 b 1039 149 1160 179 1118 149 z "},"P":{"ha":1342,"x_min":0,"x_max":0,"o":"m 1008 972 l 111 972 b 90 951 97 972 90 965 l 90 21 b 111 0 90 7 97 0 l 243 0 b 264 21 257 0 264 7 l 264 207 l 1008 207 b 1258 458 1181 207 1258 297 l 1258 721 b 1008 972 1258 882 1181 972 z m 1085 472 b 971 360 1085 392 1050 360 l 264 360 l 264 818 l 971 818 b 1085 707 1050 818 1085 788 z "},"Þ":{"ha":1328,"x_min":0,"x_max":0,"o":"m 994 785 l 264 785 l 264 951 b 243 972 264 965 257 972 l 111 972 b 90 951 97 972 90 965 l 90 21 b 111 0 90 7 97 0 l 243 0 b 264 21 257 0 264 7 l 264 188 l 994 188 b 1244 439 1167 188 1244 278 l 1244 533 b 994 785 1244 694 1167 785 z m 1071 453 b 957 340 1071 372 1036 340 l 264 340 l 264 632 l 957 632 b 1071 519 1036 632 1071 600 z "},"Q":{"ha":1417,"x_min":0,"x_max":0,"o":"m 1076 978 l 340 978 b 83 726 168 978 83 888 l 83 246 b 340 -6 83 85 168 -6 l 622 -6 l 622 -124 b 643 -144 622 -137 629 -144 l 775 -144 b 796 -124 789 -144 796 -137 l 796 -6 l 1076 -6 b 1333 246 1249 -6 1333 85 l 1333 726 b 1076 978 1333 888 1249 978 z m 1160 260 b 1039 149 1160 179 1118 149 l 378 149 b 257 260 300 149 257 179 l 257 713 b 378 824 257 793 300 824 l 1039 824 b 1160 713 1118 824 1160 793 z "},"R":{"ha":1356,"x_min":0,"x_max":0,"o":"m 1268 32 l 1107 275 b 1258 514 1211 306 1258 389 l 1258 721 b 1008 972 1258 882 1181 972 l 111 972 b 90 951 97 972 90 965 l 90 21 b 111 0 90 7 97 0 l 243 0 b 264 21 257 0 264 7 l 264 263 l 928 263 l 1090 21 b 1124 0 1100 7 1108 0 l 1246 0 b 1268 32 1267 0 1281 14 z m 264 818 l 971 818 b 1085 707 1050 818 1085 788 l 1085 529 b 971 417 1085 447 1050 417 l 264 417 z "},"Ŕ":{"ha":1356,"x_min":0,"x_max":0,"o":"m 622 1040 l 728 1040 b 763 1065 742 1040 754 1051 l 886 1225 b 879 1250 899 1240 893 1250 l 711 1250 b 682 1225 697 1250 690 1242 l 610 1065 b 622 1040 601 1049 607 1040 z m 1268 32 l 1107 275 b 1258 514 1211 306 1258 389 l 1258 721 b 1008 972 1258 882 1181 972 l 111 972 b 90 951 97 972 90 965 l 90 21 b 111 0 90 7 97 0 l 243 0 b 264 21 257 0 264 7 l 264 263 l 928 263 l 1090 21 b 1124 0 1100 7 1108 0 l 1246 0 b 1268 32 1267 0 1281 14 z m 264 818 l 971 818 b 1085 707 1050 818 1085 788 l 1085 529 b 971 417 1085 447 1050 417 l 264 417 z "},"Ř":{"ha":1356,"x_min":0,"x_max":0,"o":"m 565 1060 b 603 1040 576 1046 588 1040 l 736 1040 b 775 1060 751 1040 764 1047 l 918 1224 b 907 1250 929 1236 921 1250 l 788 1250 b 744 1224 768 1250 758 1240 l 676 1144 l 663 1144 l 596 1224 b 553 1250 582 1240 572 1250 l 433 1250 b 422 1224 419 1250 411 1236 z m 1268 32 l 1107 275 b 1258 514 1211 306 1258 389 l 1258 721 b 1008 972 1258 882 1181 972 l 111 972 b 90 951 97 972 90 965 l 90 21 b 111 0 90 7 97 0 l 243 0 b 264 21 257 0 264 7 l 264 263 l 928 263 l 1090 21 b 1124 0 1100 7 1108 0 l 1246 0 b 1268 32 1267 0 1281 14 z m 264 818 l 971 818 b 1085 707 1050 818 1085 788 l 1085 529 b 971 417 1085 447 1050 417 l 264 417 z "},"Ŗ":{"ha":1356,"x_min":0,"x_max":0,"o":"m 1268 32 l 1107 275 b 1258 514 1211 306 1258 389 l 1258 721 b 1008 972 1258 882 1181 972 l 111 972 b 90 951 97 972 90 965 l 90 21 b 111 0 90 7 97 0 l 243 0 b 264 21 257 0 264 7 l 264 263 l 928 263 l 1090 21 b 1124 0 1100 7 1108 0 l 1246 0 b 1268 32 1267 0 1281 14 z m 264 818 l 971 818 b 1085 707 1050 818 1085 788 l 1085 529 b 971 417 1085 447 1050 417 l 264 417 z m 724 -83 l 619 -83 b 599 -104 606 -83 599 -90 l 599 -342 l 539 -342 b 518 -362 525 -342 518 -349 l 518 -460 b 539 -481 518 -474 525 -481 l 696 -481 b 744 -431 728 -481 744 -464 l 744 -104 b 724 -83 744 -90 738 -83 z "},"S":{"ha":1390,"x_min":0,"x_max":0,"o":"m 1018 539 l 388 575 b 254 706 285 581 254 631 b 385 824 254 790 297 824 l 996 824 b 1115 738 1068 824 1106 796 b 1147 710 1118 719 1128 710 l 1257 710 b 1286 738 1276 710 1286 719 b 1017 978 1286 890 1208 978 l 374 978 b 83 711 181 978 83 899 b 372 433 83 539 175 444 l 1003 397 b 1136 267 1106 392 1136 342 b 1006 149 1136 182 1093 149 l 374 149 b 254 235 301 149 264 176 b 222 263 251 253 242 263 l 113 263 b 83 235 93 263 83 253 b 353 -6 83 82 161 -6 l 1017 -6 b 1307 263 1210 -6 1307 74 b 1018 539 1307 433 1215 528 z "},"Ś":{"ha":1390,"x_min":0,"x_max":0,"o":"m 685 1225 l 613 1065 b 625 1040 604 1049 610 1040 l 731 1040 b 765 1065 744 1040 757 1051 l 889 1225 b 882 1250 901 1240 896 1250 l 714 1250 b 685 1225 700 1250 693 1242 z m 1018 539 l 388 575 b 254 706 285 581 254 631 b 385 824 254 790 297 824 l 996 824 b 1115 738 1068 824 1106 796 b 1147 710 1118 719 1128 710 l 1257 710 b 1286 738 1276 710 1286 719 b 1017 978 1286 890 1208 978 l 374 978 b 83 711 181 978 83 899 b 372 433 83 539 175 444 l 1003 397 b 1136 267 1106 392 1136 342 b 1006 149 1136 182 1093 149 l 374 149 b 254 235 301 149 264 176 b 222 263 251 253 242 263 l 113 263 b 83 235 93 263 83 253 b 353 -6 83 82 161 -6 l 1017 -6 b 1307 263 1210 -6 1307 74 b 1018 539 1307 433 1215 528 z "},"Š":{"ha":1390,"x_min":0,"x_max":0,"o":"m 607 1040 l 740 1040 b 779 1060 756 1040 768 1047 l 922 1224 b 911 1250 933 1236 925 1250 l 792 1250 b 749 1224 772 1250 763 1240 l 681 1144 l 667 1144 l 600 1224 b 557 1250 586 1240 576 1250 l 438 1250 b 426 1224 424 1250 415 1236 l 569 1060 b 607 1040 581 1046 592 1040 z m 1018 539 l 388 575 b 254 706 285 581 254 631 b 385 824 254 790 297 824 l 996 824 b 1115 738 1068 824 1106 796 b 1147 710 1118 719 1128 710 l 1257 710 b 1286 738 1276 710 1286 719 b 1017 978 1286 890 1208 978 l 374 978 b 83 711 181 978 83 899 b 372 433 83 539 175 444 l 1003 397 b 1136 267 1106 392 1136 342 b 1006 149 1136 182 1093 149 l 374 149 b 254 235 301 149 264 176 b 222 263 251 253 242 263 l 113 263 b 83 235 93 263 83 253 b 353 -6 83 82 161 -6 l 1017 -6 b 1307 263 1210 -6 1307 74 b 1018 539 1307 433 1215 528 z "},"Ş":{"ha":1390,"x_min":0,"x_max":0,"o":"m 1018 539 l 388 575 b 254 706 285 581 254 631 b 385 824 254 790 297 824 l 996 824 b 1115 738 1068 824 1106 796 b 1147 710 1118 719 1128 710 l 1257 710 b 1286 738 1276 710 1286 719 b 1017 978 1286 890 1208 978 l 374 978 b 83 711 181 978 83 899 b 372 433 83 539 175 444 l 1003 397 b 1136 267 1106 392 1136 342 b 1006 149 1136 182 1093 149 l 374 149 b 254 235 301 149 264 176 b 222 263 251 253 242 263 l 113 263 b 83 235 93 263 83 253 b 353 -6 83 82 161 -6 l 625 -6 b 569 -82 586 -42 569 -57 b 625 -131 569 -115 594 -128 b 767 -167 743 -142 767 -144 b 724 -189 767 -185 750 -189 l 696 -189 b 656 -168 672 -189 660 -179 b 640 -154 654 -160 649 -154 l 542 -154 b 528 -172 531 -154 528 -161 b 650 -285 528 -240 558 -285 l 760 -285 b 894 -165 850 -285 894 -242 b 769 -46 894 -79 863 -56 b 768 -6 739 -43 711 -37 l 1017 -6 b 1307 263 1210 -6 1307 74 b 1018 539 1307 433 1215 528 z "},"Ș":{"ha":1390,"x_min":0,"x_max":0,"o":"m 1018 539 l 388 575 b 254 706 285 581 254 631 b 385 824 254 790 297 824 l 996 824 b 1115 738 1068 824 1106 796 b 1147 710 1118 719 1128 710 l 1257 710 b 1286 738 1276 710 1286 719 b 1017 978 1286 890 1208 978 l 374 978 b 83 711 181 978 83 899 b 372 433 83 539 175 444 l 1003 397 b 1136 267 1106 392 1136 342 b 1006 149 1136 182 1093 149 l 374 149 b 254 235 301 149 264 176 b 222 263 251 253 242 263 l 113 263 b 83 235 93 263 83 253 b 353 -6 83 82 161 -6 l 1017 -6 b 1307 263 1210 -6 1307 74 b 1018 539 1307 433 1215 528 z m 726 -83 l 622 -83 b 601 -104 608 -83 601 -90 l 601 -342 l 542 -342 b 521 -362 528 -342 521 -349 l 521 -460 b 542 -481 521 -474 528 -481 l 699 -481 b 747 -431 731 -481 747 -464 l 747 -104 b 726 -83 747 -90 740 -83 z "},"T":{"ha":1349,"x_min":0,"x_max":0,"o":"m 1264 972 l 83 972 b 63 951 69 972 63 965 l 63 839 b 83 818 63 825 69 818 l 589 818 l 589 21 b 610 0 589 7 596 0 l 739 0 b 760 21 753 0 760 7 l 760 818 l 1264 818 b 1286 839 1278 818 1286 825 l 1286 951 b 1264 972 1286 965 1278 972 z "},"Ŧ":{"ha":1354,"x_min":0,"x_max":0,"o":"m 1264 972 l 83 972 b 63 951 69 972 63 965 l 63 839 b 83 818 63 825 69 818 l 589 818 l 589 663 l 449 663 b 428 642 435 663 428 656 l 428 532 b 449 511 428 518 435 511 l 589 511 l 589 21 b 610 0 589 7 596 0 l 739 0 b 760 21 753 0 760 7 l 760 511 l 899 511 b 919 532 911 511 919 518 l 919 642 b 899 663 919 656 911 663 l 760 663 l 760 818 l 1264 818 b 1286 839 1278 818 1286 825 l 1286 951 b 1264 972 1286 965 1278 972 z "},"Ť":{"ha":1349,"x_min":0,"x_max":0,"o":"m 571 1060 b 608 1040 582 1046 593 1040 l 742 1040 b 781 1060 757 1040 769 1047 l 924 1224 b 913 1250 935 1236 926 1250 l 793 1250 b 750 1224 774 1250 764 1240 l 682 1144 l 668 1144 l 601 1224 b 558 1250 588 1240 578 1250 l 439 1250 b 428 1224 425 1250 417 1236 z m 1264 972 l 83 972 b 63 951 69 972 63 965 l 63 839 b 83 818 63 825 69 818 l 589 818 l 589 21 b 610 0 589 7 596 0 l 739 0 b 760 21 753 0 760 7 l 760 818 l 1264 818 b 1286 839 1278 818 1286 825 l 1286 951 b 1264 972 1286 965 1278 972 z "},"Ţ":{"ha":1349,"x_min":0,"x_max":0,"o":"m 1264 972 l 83 972 b 63 951 69 972 63 965 l 63 839 b 83 818 63 825 69 818 l 589 818 l 589 21 b 610 0 589 7 596 0 l 632 0 b 571 -82 589 -40 571 -56 b 626 -131 571 -115 596 -128 b 768 -167 744 -142 768 -144 b 725 -189 768 -185 751 -189 l 697 -189 b 657 -168 674 -189 661 -179 b 642 -154 656 -160 650 -154 l 543 -154 b 529 -172 532 -154 529 -161 b 651 -285 529 -240 560 -285 l 761 -285 b 896 -165 851 -285 896 -242 b 771 -46 896 -79 864 -56 b 779 0 739 -43 710 -37 l 739 0 b 760 21 753 0 760 7 l 760 818 l 1264 818 b 1286 839 1278 818 1286 825 l 1286 951 b 1264 972 1286 965 1278 972 z "},"Ț":{"ha":1349,"x_min":0,"x_max":0,"o":"m 1264 972 l 83 972 b 63 951 69 972 63 965 l 63 839 b 83 818 63 825 69 818 l 589 818 l 589 21 b 610 0 589 7 596 0 l 739 0 b 760 21 753 0 760 7 l 760 818 l 1264 818 b 1286 839 1278 818 1286 825 l 1286 951 b 1264 972 1286 965 1278 972 z m 728 -83 l 624 -83 b 603 -104 610 -83 603 -90 l 603 -342 l 543 -342 b 522 -362 529 -342 522 -349 l 522 -460 b 543 -481 522 -474 529 -481 l 700 -481 b 749 -431 732 -481 749 -464 l 749 -104 b 728 -83 749 -90 742 -83 z "},"U":{"ha":1431,"x_min":0,"x_max":0,"o":"m 340 0 l 1090 0 b 1340 251 1263 0 1340 90 l 1340 951 b 1319 972 1340 965 1333 972 l 1188 972 b 1167 951 1174 972 1167 965 l 1167 265 b 1054 154 1167 185 1132 154 l 378 154 b 264 265 300 154 264 185 l 264 951 b 243 972 264 965 257 972 l 111 972 b 90 951 97 972 90 965 l 90 251 b 340 0 90 90 168 0 z "},"Ú":{"ha":1431,"x_min":0,"x_max":0,"o":"m 726 1225 l 654 1065 b 667 1040 646 1049 651 1040 l 772 1040 b 807 1065 786 1040 799 1051 l 931 1225 b 924 1250 943 1240 938 1250 l 756 1250 b 726 1225 742 1250 735 1242 z m 340 0 l 1090 0 b 1340 251 1263 0 1340 90 l 1340 951 b 1319 972 1340 965 1333 972 l 1188 972 b 1167 951 1174 972 1167 965 l 1167 265 b 1054 154 1167 185 1132 154 l 378 154 b 264 265 300 154 264 185 l 264 951 b 243 972 264 965 257 972 l 111 972 b 90 951 97 972 90 965 l 90 251 b 340 0 90 90 168 0 z "},"Ŭ":{"ha":1431,"x_min":0,"x_max":0,"o":"m 674 1032 l 757 1032 b 947 1229 888 1032 947 1096 b 926 1250 947 1243 940 1250 l 832 1250 b 811 1229 818 1250 813 1243 b 733 1147 807 1185 792 1147 l 697 1147 b 619 1229 639 1147 624 1185 b 599 1250 618 1243 613 1250 l 504 1250 b 483 1229 490 1250 483 1243 b 674 1032 483 1096 543 1032 z m 340 0 l 1090 0 b 1340 251 1263 0 1340 90 l 1340 951 b 1319 972 1340 965 1333 972 l 1188 972 b 1167 951 1174 972 1167 965 l 1167 265 b 1054 154 1167 185 1132 154 l 378 154 b 264 265 300 154 264 185 l 264 951 b 243 972 264 965 257 972 l 111 972 b 90 951 97 972 90 965 l 90 251 b 340 0 90 90 168 0 z "},"Û":{"ha":1431,"x_min":0,"x_max":0,"o":"m 649 1250 b 611 1231 633 1250 622 1244 l 468 1067 b 479 1040 457 1054 465 1040 l 599 1040 b 642 1067 618 1040 628 1050 l 708 1146 l 722 1146 l 790 1067 b 833 1040 804 1050 814 1040 l 953 1040 b 964 1067 967 1040 975 1054 l 821 1231 b 782 1250 810 1243 797 1250 z m 340 0 l 1090 0 b 1340 251 1263 0 1340 90 l 1340 951 b 1319 972 1340 965 1333 972 l 1188 972 b 1167 951 1174 972 1167 965 l 1167 265 b 1054 154 1167 185 1132 154 l 378 154 b 264 265 300 154 264 185 l 264 951 b 243 972 264 965 257 972 l 111 972 b 90 951 97 972 90 965 l 90 251 b 340 0 90 90 168 0 z "},"Ü":{"ha":1431,"x_min":0,"x_max":0,"o":"m 465 1078 l 596 1078 b 617 1099 610 1078 617 1085 l 617 1229 b 596 1250 617 1243 610 1250 l 465 1250 b 444 1229 451 1250 444 1243 l 444 1099 b 465 1078 444 1085 451 1078 z m 813 1078 l 942 1078 b 964 1099 956 1078 964 1085 l 964 1229 b 942 1250 964 1243 956 1250 l 813 1250 b 792 1229 799 1250 792 1243 l 792 1099 b 813 1078 792 1085 799 1078 z m 340 0 l 1090 0 b 1340 251 1263 0 1340 90 l 1340 951 b 1319 972 1340 965 1333 972 l 1188 972 b 1167 951 1174 972 1167 965 l 1167 265 b 1054 154 1167 185 1132 154 l 378 154 b 264 265 300 154 264 185 l 264 951 b 243 972 264 965 257 972 l 111 972 b 90 951 97 972 90 965 l 90 251 b 340 0 90 90 168 0 z "},"Ù":{"ha":1431,"x_min":0,"x_max":0,"o":"m 706 1225 b 676 1250 697 1242 690 1250 l 515 1250 b 501 1225 500 1250 489 1240 l 625 1065 b 658 1040 635 1051 644 1040 l 764 1040 b 778 1065 779 1040 786 1049 z m 340 0 l 1090 0 b 1340 251 1263 0 1340 90 l 1340 951 b 1319 972 1340 965 1333 972 l 1188 972 b 1167 951 1174 972 1167 965 l 1167 265 b 1054 154 1167 185 1132 154 l 378 154 b 264 265 300 154 264 185 l 264 951 b 243 972 264 965 257 972 l 111 972 b 90 951 97 972 90 965 l 90 251 b 340 0 90 90 168 0 z "},"Ű":{"ha":1431,"x_min":0,"x_max":0,"o":"m 588 1225 l 515 1065 b 528 1040 507 1049 513 1040 l 633 1040 b 668 1065 647 1040 660 1051 l 792 1225 b 785 1250 804 1240 799 1250 l 617 1250 b 588 1225 603 1250 596 1242 z m 851 1225 l 779 1065 b 792 1040 771 1049 776 1040 l 897 1040 b 932 1065 911 1040 922 1051 l 1056 1225 b 1049 1250 1068 1240 1063 1250 l 881 1250 b 851 1225 867 1250 860 1242 z m 340 0 l 1090 0 b 1340 251 1263 0 1340 90 l 1340 951 b 1319 972 1340 965 1333 972 l 1188 972 b 1167 951 1174 972 1167 965 l 1167 265 b 1054 154 1167 185 1132 154 l 378 154 b 264 265 300 154 264 185 l 264 951 b 243 972 264 965 257 972 l 111 972 b 90 951 97 972 90 965 l 90 251 b 340 0 90 90 168 0 z "},"Ū":{"ha":1431,"x_min":0,"x_max":0,"o":"m 490 1100 l 940 1100 b 961 1121 953 1100 961 1107 l 961 1229 b 940 1250 961 1243 953 1250 l 490 1250 b 469 1229 476 1250 469 1243 l 469 1121 b 490 1100 469 1107 476 1100 z m 340 0 l 1090 0 b 1340 251 1263 0 1340 90 l 1340 951 b 1319 972 1340 965 1333 972 l 1188 972 b 1167 951 1174 972 1167 965 l 1167 265 b 1054 154 1167 185 1132 154 l 378 154 b 264 265 300 154 264 185 l 264 951 b 243 972 264 965 257 972 l 111 972 b 90 951 97 972 90 965 l 90 251 b 340 0 90 90 168 0 z "},"Ų":{"ha":1431,"x_min":0,"x_max":0,"o":"m 1319 972 l 1188 972 b 1167 951 1174 972 1167 965 l 1167 265 b 1054 154 1167 185 1132 154 l 378 154 b 264 265 300 154 264 185 l 264 951 b 243 972 264 965 257 972 l 111 972 b 90 951 97 972 90 965 l 90 251 b 340 0 90 90 168 0 l 731 0 b 685 -22 726 -18 711 -19 l 633 -28 b 532 -144 556 -36 532 -53 b 674 -267 532 -246 563 -267 l 864 -267 b 878 -253 874 -267 878 -261 l 878 -175 b 864 -158 878 -165 872 -158 l 703 -158 b 682 -142 686 -158 682 -153 b 700 -122 682 -128 685 -124 l 803 -110 b 899 -28 868 -101 899 -96 l 899 0 l 1090 0 b 1340 251 1263 0 1340 90 l 1340 951 b 1319 972 1340 965 1333 972 z "},"Ů":{"ha":1431,"x_min":0,"x_max":0,"o":"m 724 1272 l 706 1272 b 589 1156 638 1272 589 1221 l 589 1140 b 706 1025 589 1075 638 1025 l 724 1025 b 840 1140 792 1025 840 1075 l 840 1156 b 724 1272 840 1221 792 1272 z m 751 1154 l 751 1144 b 721 1114 751 1128 739 1114 l 708 1114 b 679 1144 692 1114 679 1128 l 679 1154 b 708 1183 679 1169 692 1183 l 721 1183 b 751 1154 739 1183 751 1169 z m 340 0 l 1090 0 b 1340 251 1263 0 1340 90 l 1340 951 b 1319 972 1340 965 1333 972 l 1188 972 b 1167 951 1174 972 1167 965 l 1167 265 b 1054 154 1167 185 1132 154 l 378 154 b 264 265 300 154 264 185 l 264 951 b 243 972 264 965 257 972 l 111 972 b 90 951 97 972 90 965 l 90 251 b 340 0 90 90 168 0 z "},"Ũ":{"ha":1431,"x_min":0,"x_max":0,"o":"m 807 1056 b 944 1101 854 1056 896 1065 b 957 1133 956 1110 963 1118 l 922 1221 b 896 1228 918 1229 908 1235 b 811 1200 861 1208 844 1200 b 624 1257 742 1200 719 1257 b 486 1211 578 1257 536 1247 b 474 1179 475 1203 468 1194 l 510 1092 b 536 1086 514 1083 522 1076 b 619 1113 568 1106 586 1113 b 807 1056 690 1113 711 1056 z m 340 0 l 1090 0 b 1340 251 1263 0 1340 90 l 1340 951 b 1319 972 1340 965 1333 972 l 1188 972 b 1167 951 1174 972 1167 965 l 1167 265 b 1054 154 1167 185 1132 154 l 378 154 b 264 265 300 154 264 185 l 264 951 b 243 972 264 965 257 972 l 111 972 b 90 951 97 972 90 965 l 90 251 b 340 0 90 90 168 0 z "},"V":{"ha":1522,"x_min":0,"x_max":0,"o":"m 689 0 l 833 0 b 864 22 849 0 856 8 l 1463 946 b 1450 972 1474 963 1464 972 l 1296 972 b 1265 949 1281 972 1275 964 l 769 183 l 753 183 l 258 949 b 226 972 249 964 242 972 l 72 972 b 60 946 58 972 49 963 l 660 22 b 689 0 668 8 675 0 z "},"W":{"ha":2557,"x_min":0,"x_max":0,"o":"m 624 0 l 767 0 b 796 22 781 0 788 8 l 1278 800 l 1760 22 b 1789 0 1768 8 1775 0 l 1933 0 b 1963 22 1947 0 1954 8 l 2497 946 b 2485 972 2507 963 2499 972 l 2331 972 b 2300 949 2315 972 2308 964 l 1868 199 l 1851 199 l 1385 949 b 1354 972 1375 964 1369 972 l 1203 972 b 1172 949 1188 972 1182 964 l 706 199 l 689 199 l 256 949 b 225 972 249 964 240 972 l 72 972 b 60 946 58 972 50 963 l 593 22 b 624 0 601 8 610 0 z "},"Ẃ":{"ha":2557,"x_min":0,"x_max":0,"o":"m 1289 1225 l 1217 1065 b 1229 1040 1208 1049 1214 1040 l 1335 1040 b 1369 1065 1349 1040 1361 1051 l 1493 1225 b 1486 1250 1506 1240 1500 1250 l 1318 1250 b 1289 1225 1304 1250 1297 1242 z m 624 0 l 767 0 b 796 22 781 0 788 8 l 1278 800 l 1760 22 b 1789 0 1768 8 1775 0 l 1933 0 b 1963 22 1947 0 1954 8 l 2497 946 b 2485 972 2507 963 2499 972 l 2331 972 b 2300 949 2315 972 2308 964 l 1868 199 l 1851 199 l 1385 949 b 1354 972 1375 964 1369 972 l 1203 972 b 1172 949 1188 972 1182 964 l 706 199 l 689 199 l 256 949 b 225 972 249 964 240 972 l 72 972 b 60 946 58 972 50 963 l 593 22 b 624 0 601 8 610 0 z "},"Ŵ":{"ha":2557,"x_min":0,"x_max":0,"o":"m 1211 1250 b 1174 1231 1196 1250 1185 1244 l 1031 1067 b 1042 1040 1019 1054 1028 1040 l 1161 1040 b 1204 1067 1181 1040 1190 1050 l 1271 1146 l 1285 1146 l 1353 1067 b 1396 1040 1367 1050 1376 1040 l 1515 1040 b 1526 1067 1529 1040 1538 1054 l 1383 1231 b 1344 1250 1372 1243 1360 1250 z m 624 0 l 767 0 b 796 22 781 0 788 8 l 1278 800 l 1760 22 b 1789 0 1768 8 1775 0 l 1933 0 b 1963 22 1947 0 1954 8 l 2497 946 b 2485 972 2507 963 2499 972 l 2331 972 b 2300 949 2315 972 2308 964 l 1868 199 l 1851 199 l 1385 949 b 1354 972 1375 964 1369 972 l 1203 972 b 1172 949 1188 972 1182 964 l 706 199 l 689 199 l 256 949 b 225 972 249 964 240 972 l 72 972 b 60 946 58 972 50 963 l 593 22 b 624 0 601 8 610 0 z "},"Ẅ":{"ha":2557,"x_min":0,"x_max":0,"o":"m 1028 1078 l 1158 1078 b 1179 1099 1172 1078 1179 1085 l 1179 1229 b 1158 1250 1179 1243 1172 1250 l 1028 1250 b 1007 1229 1014 1250 1007 1243 l 1007 1099 b 1028 1078 1007 1085 1014 1078 z m 1375 1078 l 1504 1078 b 1526 1099 1518 1078 1526 1085 l 1526 1229 b 1504 1250 1526 1243 1518 1250 l 1375 1250 b 1354 1229 1361 1250 1354 1243 l 1354 1099 b 1375 1078 1354 1085 1361 1078 z m 624 0 l 767 0 b 796 22 781 0 788 8 l 1278 800 l 1760 22 b 1789 0 1768 8 1775 0 l 1933 0 b 1963 22 1947 0 1954 8 l 2497 946 b 2485 972 2507 963 2499 972 l 2331 972 b 2300 949 2315 972 2308 964 l 1868 199 l 1851 199 l 1385 949 b 1354 972 1375 964 1369 972 l 1203 972 b 1172 949 1188 972 1182 964 l 706 199 l 689 199 l 256 949 b 225 972 249 964 240 972 l 72 972 b 60 946 58 972 50 963 l 593 22 b 624 0 601 8 610 0 z "},"Ẁ":{"ha":2557,"x_min":0,"x_max":0,"o":"m 1268 1225 b 1239 1250 1260 1242 1253 1250 l 1078 1250 b 1064 1225 1063 1250 1051 1240 l 1188 1065 b 1221 1040 1197 1051 1207 1040 l 1326 1040 b 1340 1065 1342 1040 1349 1049 z m 624 0 l 767 0 b 796 22 781 0 788 8 l 1278 800 l 1760 22 b 1789 0 1768 8 1775 0 l 1933 0 b 1963 22 1947 0 1954 8 l 2497 946 b 2485 972 2507 963 2499 972 l 2331 972 b 2300 949 2315 972 2308 964 l 1868 199 l 1851 199 l 1385 949 b 1354 972 1375 964 1369 972 l 1203 972 b 1172 949 1188 972 1182 964 l 706 199 l 689 199 l 256 949 b 225 972 249 964 240 972 l 72 972 b 60 946 58 972 50 963 l 593 22 b 624 0 601 8 610 0 z "},"X":{"ha":1392,"x_min":0,"x_max":0,"o":"m 1324 31 l 813 486 l 1324 942 b 1317 972 1347 963 1331 972 l 1139 972 b 1099 951 1125 972 1115 967 l 696 592 l 292 951 b 251 972 276 965 265 972 l 72 972 b 68 942 58 972 44 963 l 578 486 l 68 31 b 72 0 44 10 58 0 l 251 0 b 292 22 265 0 276 8 l 696 382 l 1099 22 b 1139 0 1115 7 1126 0 l 1318 0 b 1324 31 1332 0 1347 10 z "},"Y":{"ha":1357,"x_min":0,"x_max":0,"o":"m 1285 972 l 1131 972 b 1092 951 1114 972 1104 964 l 686 514 l 672 514 l 265 951 b 226 972 253 964 243 972 l 72 972 b 63 949 58 972 49 963 l 593 375 l 593 21 b 614 0 593 7 600 0 l 743 0 b 764 21 757 0 764 7 l 764 375 l 1296 949 b 1285 972 1310 963 1299 972 z "},"Ý":{"ha":1357,"x_min":0,"x_max":0,"o":"m 690 1225 l 618 1065 b 631 1040 610 1049 615 1040 l 736 1040 b 771 1065 750 1040 763 1051 l 894 1225 b 888 1250 907 1240 901 1250 l 719 1250 b 690 1225 706 1250 699 1242 z m 1285 972 l 1131 972 b 1092 951 1114 972 1104 964 l 686 514 l 672 514 l 265 951 b 226 972 253 964 243 972 l 72 972 b 63 949 58 972 49 963 l 593 375 l 593 21 b 614 0 593 7 600 0 l 743 0 b 764 21 757 0 764 7 l 764 375 l 1296 949 b 1285 972 1310 963 1299 972 z "},"Ŷ":{"ha":1357,"x_min":0,"x_max":0,"o":"m 611 1250 b 574 1231 596 1250 585 1244 l 431 1067 b 442 1040 419 1054 428 1040 l 561 1040 b 604 1067 581 1040 590 1050 l 671 1146 l 685 1146 l 753 1067 b 796 1040 767 1050 776 1040 l 915 1040 b 926 1067 929 1040 938 1054 l 783 1231 b 744 1250 772 1243 760 1250 z m 1285 972 l 1131 972 b 1092 951 1114 972 1104 964 l 686 514 l 672 514 l 265 951 b 226 972 253 964 243 972 l 72 972 b 63 949 58 972 49 963 l 593 375 l 593 21 b 614 0 593 7 600 0 l 743 0 b 764 21 757 0 764 7 l 764 375 l 1296 949 b 1285 972 1310 963 1299 972 z "},"Ÿ":{"ha":1357,"x_min":0,"x_max":0,"o":"m 428 1078 l 558 1078 b 579 1099 572 1078 579 1085 l 579 1229 b 558 1250 579 1243 572 1250 l 428 1250 b 407 1229 414 1250 407 1243 l 407 1099 b 428 1078 407 1085 414 1078 z m 775 1078 l 904 1078 b 926 1099 918 1078 926 1085 l 926 1229 b 904 1250 926 1243 918 1250 l 775 1250 b 754 1229 761 1250 754 1243 l 754 1099 b 775 1078 754 1085 761 1078 z m 1285 972 l 1131 972 b 1092 951 1114 972 1104 964 l 686 514 l 672 514 l 265 951 b 226 972 253 964 243 972 l 72 972 b 63 949 58 972 49 963 l 593 375 l 593 21 b 614 0 593 7 600 0 l 743 0 b 764 21 757 0 764 7 l 764 375 l 1296 949 b 1285 972 1310 963 1299 972 z "},"Ỳ":{"ha":1357,"x_min":0,"x_max":0,"o":"m 668 1225 b 639 1250 660 1242 653 1250 l 478 1250 b 464 1225 463 1250 451 1240 l 588 1065 b 621 1040 597 1051 607 1040 l 726 1040 b 740 1065 742 1040 749 1049 z m 1285 972 l 1131 972 b 1092 951 1114 972 1104 964 l 686 514 l 672 514 l 265 951 b 226 972 253 964 243 972 l 72 972 b 63 949 58 972 49 963 l 593 375 l 593 21 b 614 0 593 7 600 0 l 743 0 b 764 21 757 0 764 7 l 764 375 l 1296 949 b 1285 972 1310 963 1299 972 z "},"Z":{"ha":1264,"x_min":0,"x_max":0,"o":"m 90 0 l 1174 0 b 1194 21 1188 0 1194 7 l 1194 133 b 1174 154 1194 147 1188 154 l 325 154 l 325 168 l 1179 799 b 1193 829 1193 810 1193 821 l 1193 951 b 1172 972 1193 965 1186 972 l 93 972 b 72 951 79 972 72 965 l 72 839 b 93 818 72 825 79 818 l 938 818 l 938 804 l 83 174 b 69 143 69 163 69 151 l 69 21 b 90 0 69 7 76 0 z "},"Ź":{"ha":1264,"x_min":0,"x_max":0,"o":"m 644 1225 l 572 1065 b 585 1040 564 1049 569 1040 l 690 1040 b 725 1065 704 1040 717 1051 l 849 1225 b 842 1250 861 1240 856 1250 l 674 1250 b 644 1225 660 1250 653 1242 z m 90 0 l 1174 0 b 1194 21 1188 0 1194 7 l 1194 133 b 1174 154 1194 147 1188 154 l 325 154 l 325 168 l 1179 799 b 1193 829 1193 810 1193 821 l 1193 951 b 1172 972 1193 965 1186 972 l 93 972 b 72 951 79 972 72 965 l 72 839 b 93 818 72 825 79 818 l 938 818 l 938 804 l 83 174 b 69 143 69 163 69 151 l 69 21 b 90 0 69 7 76 0 z "},"Ž":{"ha":1264,"x_min":0,"x_max":0,"o":"m 567 1040 l 700 1040 b 739 1060 715 1040 728 1047 l 882 1224 b 871 1250 893 1236 885 1250 l 751 1250 b 708 1224 732 1250 722 1240 l 640 1144 l 626 1144 l 560 1224 b 517 1250 546 1240 536 1250 l 397 1250 b 386 1224 383 1250 375 1236 l 529 1060 b 567 1040 540 1046 551 1040 z m 90 0 l 1174 0 b 1194 21 1188 0 1194 7 l 1194 133 b 1174 154 1194 147 1188 154 l 325 154 l 325 168 l 1179 799 b 1193 829 1193 810 1193 821 l 1193 951 b 1172 972 1193 965 1186 972 l 93 972 b 72 951 79 972 72 965 l 72 839 b 93 818 72 825 79 818 l 938 818 l 938 804 l 83 174 b 69 143 69 163 69 151 l 69 21 b 90 0 69 7 76 0 z "},"Ż":{"ha":1264,"x_min":0,"x_max":0,"o":"m 568 1078 l 699 1078 b 719 1099 713 1078 719 1085 l 719 1229 b 699 1250 719 1243 713 1250 l 568 1250 b 547 1229 554 1250 547 1243 l 547 1099 b 568 1078 547 1085 554 1078 z m 90 0 l 1174 0 b 1194 21 1188 0 1194 7 l 1194 133 b 1174 154 1194 147 1188 154 l 325 154 l 325 168 l 1179 799 b 1193 829 1193 810 1193 821 l 1193 951 b 1172 972 1193 965 1186 972 l 93 972 b 72 951 79 972 72 965 l 72 839 b 93 818 72 825 79 818 l 938 818 l 938 804 l 83 174 b 69 143 69 163 69 151 l 69 21 b 90 0 69 7 76 0 z "},"a":{"ha":1029,"x_min":0,"x_max":0,"o":"m 268 -7 l 582 -7 b 782 93 688 -7 743 39 l 793 93 l 793 21 b 814 0 793 7 800 0 l 939 0 b 960 21 953 0 960 7 l 960 464 b 692 700 960 624 878 700 l 313 700 b 88 519 160 700 88 643 b 124 482 88 494 96 482 l 225 482 b 254 504 243 482 250 490 b 351 554 265 539 299 554 l 664 554 b 793 457 754 554 793 535 l 793 413 l 265 413 b 42 210 110 413 42 351 b 268 -7 42 68 129 -7 z m 272 143 b 207 213 233 143 207 160 b 272 285 207 269 233 285 l 793 285 l 793 231 b 688 143 793 189 782 143 z "},"á":{"ha":1029,"x_min":0,"x_max":0,"o":"m 522 947 l 450 788 b 463 763 442 771 447 763 l 568 763 b 603 788 582 763 594 774 l 726 947 b 719 972 739 963 733 972 l 551 972 b 522 947 538 972 531 964 z m 268 -7 l 582 -7 b 782 93 688 -7 743 39 l 793 93 l 793 21 b 814 0 793 7 800 0 l 939 0 b 960 21 953 0 960 7 l 960 464 b 692 700 960 624 878 700 l 313 700 b 88 519 160 700 88 643 b 124 482 88 494 96 482 l 225 482 b 254 504 243 482 250 490 b 351 554 265 539 299 554 l 664 554 b 793 457 754 554 793 535 l 793 413 l 265 413 b 42 210 110 413 42 351 b 268 -7 42 68 129 -7 z m 272 143 b 207 213 233 143 207 160 b 272 285 207 269 233 285 l 793 285 l 793 231 b 688 143 793 189 782 143 z "},"ă":{"ha":1029,"x_min":0,"x_max":0,"o":"m 469 754 l 553 754 b 743 951 683 754 743 818 b 722 972 743 965 736 972 l 628 972 b 607 951 614 972 608 965 b 529 869 603 907 588 869 l 493 869 b 415 951 435 869 419 907 b 394 972 414 965 408 972 l 300 972 b 279 951 286 972 279 965 b 469 754 279 818 339 754 z m 268 -7 l 582 -7 b 782 93 688 -7 743 39 l 793 93 l 793 21 b 814 0 793 7 800 0 l 939 0 b 960 21 953 0 960 7 l 960 464 b 692 700 960 624 878 700 l 313 700 b 88 519 160 700 88 643 b 124 482 88 494 96 482 l 225 482 b 254 504 243 482 250 490 b 351 554 265 539 299 554 l 664 554 b 793 457 754 554 793 535 l 793 413 l 265 413 b 42 210 110 413 42 351 b 268 -7 42 68 129 -7 z m 272 143 b 207 213 233 143 207 160 b 272 285 207 269 233 285 l 793 285 l 793 231 b 688 143 793 189 782 143 z "},"ǎ":{"ha":1029,"x_min":0,"x_max":0,"o":"m 444 763 l 578 763 b 617 782 593 763 606 769 l 760 946 b 749 972 771 958 763 972 l 629 972 b 586 946 610 972 600 963 l 518 867 l 504 867 l 438 946 b 394 972 424 963 414 972 l 275 972 b 264 946 261 972 253 958 l 407 782 b 444 763 418 768 429 763 z m 268 -7 l 582 -7 b 782 93 688 -7 743 39 l 793 93 l 793 21 b 814 0 793 7 800 0 l 939 0 b 960 21 953 0 960 7 l 960 464 b 692 700 960 624 878 700 l 313 700 b 88 519 160 700 88 643 b 124 482 88 494 96 482 l 225 482 b 254 504 243 482 250 490 b 351 554 265 539 299 554 l 664 554 b 793 457 754 554 793 535 l 793 413 l 265 413 b 42 210 110 413 42 351 b 268 -7 42 68 129 -7 z m 272 143 b 207 213 233 143 207 160 b 272 285 207 269 233 285 l 793 285 l 793 231 b 688 143 793 189 782 143 z "},"â":{"ha":1029,"x_min":0,"x_max":0,"o":"m 444 972 b 407 953 429 972 418 967 l 264 789 b 275 763 253 776 261 763 l 394 763 b 438 789 414 763 424 772 l 504 868 l 518 868 l 586 789 b 629 763 600 772 610 763 l 749 763 b 760 789 763 763 771 776 l 617 953 b 578 972 606 965 593 972 z m 268 -7 l 582 -7 b 782 93 688 -7 743 39 l 793 93 l 793 21 b 814 0 793 7 800 0 l 939 0 b 960 21 953 0 960 7 l 960 464 b 692 700 960 624 878 700 l 313 700 b 88 519 160 700 88 643 b 124 482 88 494 96 482 l 225 482 b 254 504 243 482 250 490 b 351 554 265 539 299 554 l 664 554 b 793 457 754 554 793 535 l 793 413 l 265 413 b 42 210 110 413 42 351 b 268 -7 42 68 129 -7 z m 272 143 b 207 213 233 143 207 160 b 272 285 207 269 233 285 l 793 285 l 793 231 b 688 143 793 189 782 143 z "},"ä":{"ha":1029,"x_min":0,"x_max":0,"o":"m 261 800 l 392 800 b 413 821 406 800 413 807 l 413 951 b 392 972 413 965 406 972 l 261 972 b 240 951 247 972 240 965 l 240 821 b 261 800 240 807 247 800 z m 608 800 l 738 800 b 760 821 751 800 760 807 l 760 951 b 738 972 760 965 751 972 l 608 972 b 588 951 594 972 588 965 l 588 821 b 608 800 588 807 594 800 z m 268 -7 l 582 -7 b 782 93 688 -7 743 39 l 793 93 l 793 21 b 814 0 793 7 800 0 l 939 0 b 960 21 953 0 960 7 l 960 464 b 692 700 960 624 878 700 l 313 700 b 88 519 160 700 88 643 b 124 482 88 494 96 482 l 225 482 b 254 504 243 482 250 490 b 351 554 265 539 299 554 l 664 554 b 793 457 754 554 793 535 l 793 413 l 265 413 b 42 210 110 413 42 351 b 268 -7 42 68 129 -7 z m 272 143 b 207 213 233 143 207 160 b 272 285 207 269 233 285 l 793 285 l 793 231 b 688 143 793 189 782 143 z "},"à":{"ha":1029,"x_min":0,"x_max":0,"o":"m 501 947 b 472 972 493 964 486 972 l 311 972 b 297 947 296 972 285 963 l 421 788 b 454 763 431 774 440 763 l 560 763 b 574 788 575 763 582 771 z m 268 -7 l 582 -7 b 782 93 688 -7 743 39 l 793 93 l 793 21 b 814 0 793 7 800 0 l 939 0 b 960 21 953 0 960 7 l 960 464 b 692 700 960 624 878 700 l 313 700 b 88 519 160 700 88 643 b 124 482 88 494 96 482 l 225 482 b 254 504 243 482 250 490 b 351 554 265 539 299 554 l 664 554 b 793 457 754 554 793 535 l 793 413 l 265 413 b 42 210 110 413 42 351 b 268 -7 42 68 129 -7 z m 272 143 b 207 213 233 143 207 160 b 272 285 207 269 233 285 l 793 285 l 793 231 b 688 143 793 189 782 143 z "},"ā":{"ha":1029,"x_min":0,"x_max":0,"o":"m 286 822 l 736 822 b 757 843 749 822 757 829 l 757 951 b 736 972 757 965 749 972 l 286 972 b 265 951 272 972 265 965 l 265 843 b 286 822 265 829 272 822 z m 268 -7 l 582 -7 b 782 93 688 -7 743 39 l 793 93 l 793 21 b 814 0 793 7 800 0 l 939 0 b 960 21 953 0 960 7 l 960 464 b 692 700 960 624 878 700 l 313 700 b 88 519 160 700 88 643 b 124 482 88 494 96 482 l 225 482 b 254 504 243 482 250 490 b 351 554 265 539 299 554 l 664 554 b 793 457 754 554 793 535 l 793 413 l 265 413 b 42 210 110 413 42 351 b 268 -7 42 68 129 -7 z m 272 143 b 207 213 233 143 207 160 b 272 285 207 269 233 285 l 793 285 l 793 231 b 688 143 793 189 782 143 z "},"ą":{"ha":1029,"x_min":0,"x_max":0,"o":"m 692 700 l 313 700 b 88 519 160 700 88 643 b 124 482 88 494 96 482 l 225 482 b 254 504 243 482 250 490 b 351 554 265 539 299 554 l 664 554 b 793 457 754 554 793 535 l 793 413 l 265 413 b 42 210 110 413 42 351 b 268 -7 42 68 129 -7 l 582 -7 b 782 93 688 -7 743 39 l 793 93 l 793 8 b 746 -28 793 -24 778 -25 l 694 -33 b 593 -150 617 -42 593 -58 b 735 -272 593 -251 624 -272 l 925 -272 b 939 -258 935 -272 939 -267 l 939 -181 b 925 -164 939 -171 933 -164 l 764 -164 b 743 -147 747 -164 743 -158 b 761 -128 743 -133 746 -129 l 864 -115 b 960 -33 929 -107 960 -101 l 960 464 b 692 700 960 624 878 700 z m 688 143 l 272 143 b 207 213 233 143 207 160 b 272 285 207 269 233 285 l 793 285 l 793 231 b 688 143 793 189 782 143 z "},"å":{"ha":1029,"x_min":0,"x_max":0,"o":"m 519 994 l 501 994 b 385 878 433 994 385 943 l 385 863 b 501 747 385 797 433 747 l 519 747 b 636 863 588 747 636 797 l 636 878 b 519 994 636 943 588 994 z m 547 876 l 547 867 b 517 836 547 850 535 836 l 504 836 b 475 867 488 836 475 850 l 475 876 b 504 906 475 892 488 906 l 517 906 b 547 876 535 906 547 892 z m 268 -7 l 582 -7 b 782 93 688 -7 743 39 l 793 93 l 793 21 b 814 0 793 7 800 0 l 939 0 b 960 21 953 0 960 7 l 960 464 b 692 700 960 624 878 700 l 313 700 b 88 519 160 700 88 643 b 124 482 88 494 96 482 l 225 482 b 254 504 243 482 250 490 b 351 554 265 539 299 554 l 664 554 b 793 457 754 554 793 535 l 793 413 l 265 413 b 42 210 110 413 42 351 b 268 -7 42 68 129 -7 z m 272 143 b 207 213 233 143 207 160 b 272 285 207 269 233 285 l 793 285 l 793 231 b 688 143 793 189 782 143 z "},"ã":{"ha":1029,"x_min":0,"x_max":0,"o":"m 603 778 b 740 824 650 778 692 788 b 753 856 751 832 758 840 l 718 943 b 692 950 714 951 704 957 b 607 922 657 931 640 922 b 419 979 538 922 515 979 b 282 933 374 979 332 969 b 269 901 271 925 264 917 l 306 814 b 332 808 310 806 318 799 b 415 835 364 828 382 835 b 603 778 486 835 507 778 z m 268 -7 l 582 -7 b 782 93 688 -7 743 39 l 793 93 l 793 21 b 814 0 793 7 800 0 l 939 0 b 960 21 953 0 960 7 l 960 464 b 692 700 960 624 878 700 l 313 700 b 88 519 160 700 88 643 b 124 482 88 494 96 482 l 225 482 b 254 504 243 482 250 490 b 351 554 265 539 299 554 l 664 554 b 793 457 754 554 793 535 l 793 413 l 265 413 b 42 210 110 413 42 351 b 268 -7 42 68 129 -7 z m 272 143 b 207 213 233 143 207 160 b 272 285 207 269 233 285 l 793 285 l 793 231 b 688 143 793 189 782 143 z "},"æ":{"ha":1749,"x_min":0,"x_max":0,"o":"m 1601 286 b 1686 371 1658 286 1686 317 l 1686 465 b 1447 700 1686 613 1600 700 l 1032 700 b 871 651 965 700 911 683 b 692 700 833 685 776 700 l 313 700 b 88 522 158 700 88 644 b 124 483 88 496 96 483 l 225 483 b 254 506 243 483 250 492 b 351 554 265 540 299 554 l 664 554 b 793 457 754 554 793 535 l 793 413 l 265 413 b 42 210 110 413 42 351 b 268 -7 42 68 129 -7 l 625 -7 b 824 92 729 -7 786 39 l 828 92 b 1032 -7 865 29 936 -7 l 1406 -7 b 1672 108 1563 -7 1624 28 b 1663 143 1681 122 1681 135 l 1615 165 b 1568 169 1594 175 1582 175 b 1397 140 1501 143 1488 140 l 1056 140 b 960 229 994 140 960 171 l 960 286 z m 1056 551 l 1425 551 b 1519 463 1485 551 1519 521 l 1519 406 l 960 406 l 960 463 b 1056 551 960 521 994 551 z m 688 143 l 272 143 b 207 213 233 143 207 160 b 272 285 207 269 233 285 l 793 285 l 793 231 b 688 143 793 189 782 143 z "},"b":{"ha":1040,"x_min":0,"x_max":0,"o":"m 739 -7 b 978 229 892 -7 978 82 l 978 465 b 739 700 978 613 892 700 l 419 700 b 249 628 313 700 285 675 l 236 628 l 236 951 b 217 972 236 965 226 972 l 90 972 b 69 951 76 972 69 965 l 69 21 b 90 0 69 7 76 0 l 215 0 b 236 21 229 0 236 7 l 236 65 l 249 65 b 419 -7 285 18 313 -7 z m 721 143 l 314 143 b 236 231 268 143 236 172 l 236 463 b 314 551 236 521 268 551 l 721 551 b 811 463 775 551 811 521 l 811 231 b 721 143 811 172 775 143 z "},"c":{"ha":1010,"x_min":0,"x_max":0,"o":"m 301 -7 l 675 -7 b 940 108 832 -7 893 28 b 932 143 949 122 950 135 l 885 165 b 838 169 864 175 851 175 b 667 140 771 143 757 140 l 325 140 b 229 229 264 140 229 171 l 229 463 b 325 551 229 521 264 551 l 701 551 b 792 478 764 551 792 528 l 792 444 b 818 424 792 431 803 424 l 928 424 b 954 449 944 424 954 432 l 954 482 b 724 700 954 621 888 700 l 301 700 b 63 465 149 700 63 613 l 63 229 b 301 -7 63 82 149 -7 z "},"ć":{"ha":1010,"x_min":0,"x_max":0,"o":"m 515 947 l 443 788 b 456 763 435 771 440 763 l 561 763 b 596 788 575 763 588 774 l 719 947 b 713 972 732 963 726 972 l 544 972 b 515 947 531 972 524 964 z m 301 -7 l 675 -7 b 940 108 832 -7 893 28 b 932 143 949 122 950 135 l 885 165 b 838 169 864 175 851 175 b 667 140 771 143 757 140 l 325 140 b 229 229 264 140 229 171 l 229 463 b 325 551 229 521 264 551 l 701 551 b 792 478 764 551 792 528 l 792 444 b 818 424 792 431 803 424 l 928 424 b 954 449 944 424 954 432 l 954 482 b 724 700 954 621 888 700 l 301 700 b 63 465 149 700 63 613 l 63 229 b 301 -7 63 82 149 -7 z "},"č":{"ha":1010,"x_min":0,"x_max":0,"o":"m 436 763 l 569 763 b 608 782 585 763 597 769 l 751 946 b 740 972 763 958 754 972 l 621 972 b 578 946 601 972 592 963 l 510 867 l 496 867 l 429 946 b 386 972 415 963 406 972 l 267 972 b 256 946 253 972 244 958 l 399 782 b 436 763 410 768 421 763 z m 301 -7 l 675 -7 b 940 108 832 -7 893 28 b 932 143 949 122 950 135 l 885 165 b 838 169 864 175 851 175 b 667 140 771 143 757 140 l 325 140 b 229 229 264 140 229 171 l 229 463 b 325 551 229 521 264 551 l 701 551 b 792 478 764 551 792 528 l 792 444 b 818 424 792 431 803 424 l 928 424 b 954 449 944 424 954 432 l 954 482 b 724 700 954 621 888 700 l 301 700 b 63 465 149 700 63 613 l 63 229 b 301 -7 63 82 149 -7 z "},"ç":{"ha":1010,"x_min":0,"x_max":0,"o":"m 724 700 l 301 700 b 63 465 149 700 63 613 l 63 229 b 301 -7 63 82 149 -7 l 453 -7 b 399 -82 414 -42 399 -57 b 454 -131 399 -115 424 -128 b 596 -167 572 -142 596 -144 b 553 -189 596 -185 579 -189 l 525 -189 b 485 -168 501 -189 489 -179 b 469 -154 483 -160 478 -154 l 371 -154 b 357 -172 360 -154 357 -161 b 479 -285 357 -240 388 -285 l 589 -285 b 724 -165 679 -285 724 -242 b 599 -46 724 -79 692 -56 b 594 -7 569 -43 542 -39 l 675 -7 b 940 108 832 -7 893 28 b 932 143 949 122 950 135 l 885 165 b 838 169 864 175 851 175 b 667 140 771 143 757 140 l 325 140 b 229 229 264 140 229 171 l 229 463 b 325 551 229 521 264 551 l 701 551 b 792 478 764 551 792 528 l 792 444 b 818 424 792 431 803 424 l 928 424 b 954 449 944 424 954 432 l 954 482 b 724 700 954 621 888 700 z "},"ċ":{"ha":1010,"x_min":0,"x_max":0,"o":"m 438 800 l 568 800 b 589 821 582 800 589 807 l 589 951 b 568 972 589 965 582 972 l 438 972 b 417 951 424 972 417 965 l 417 821 b 438 800 417 807 424 800 z m 301 -7 l 675 -7 b 940 108 832 -7 893 28 b 932 143 949 122 950 135 l 885 165 b 838 169 864 175 851 175 b 667 140 771 143 757 140 l 325 140 b 229 229 264 140 229 171 l 229 463 b 325 551 229 521 264 551 l 701 551 b 792 478 764 551 792 528 l 792 444 b 818 424 792 431 803 424 l 928 424 b 954 449 944 424 954 432 l 954 482 b 724 700 954 621 888 700 l 301 700 b 63 465 149 700 63 613 l 63 229 b 301 -7 63 82 149 -7 z "},"d":{"ha":1040,"x_min":0,"x_max":0,"o":"m 301 -7 l 621 -7 b 792 65 728 -7 756 18 l 804 65 l 804 21 b 825 0 804 7 811 0 l 950 0 b 971 21 964 0 971 7 l 971 951 b 950 972 971 965 964 972 l 824 972 b 804 951 814 972 804 965 l 804 628 l 792 628 b 621 700 756 675 728 700 l 301 700 b 63 465 149 700 63 613 l 63 229 b 301 -7 63 82 149 -7 z m 318 143 b 229 231 264 143 229 172 l 229 463 b 318 551 229 521 264 551 l 726 551 b 804 463 772 551 804 521 l 804 231 b 726 143 804 172 772 143 z "},"ð":{"ha":1078,"x_min":0,"x_max":0,"o":"m 990 1007 l 897 1007 b 853 983 883 1007 871 1003 l 825 954 b 711 972 792 967 754 972 l 318 972 b 297 951 304 972 297 965 l 297 844 b 318 824 297 831 304 824 l 683 824 l 697 824 l 635 758 b 649 733 624 746 632 733 l 742 733 b 785 757 756 733 768 740 l 797 769 b 804 724 801 757 804 742 l 804 628 l 792 628 b 621 700 756 675 728 700 l 301 700 b 63 465 149 700 63 613 l 63 229 b 301 -7 63 82 149 -7 l 621 -7 b 792 65 728 -7 756 18 l 804 65 l 804 21 b 825 0 804 7 811 0 l 950 0 b 971 21 964 0 971 7 l 971 729 b 917 893 971 796 953 853 l 1003 982 b 990 1007 1015 996 1007 1007 z m 804 231 b 726 143 804 172 772 143 l 318 143 b 229 231 264 143 229 172 l 229 463 b 318 551 229 521 264 551 l 726 551 b 804 463 772 551 804 521 z "},"ď":{"ha":1214,"x_min":0,"x_max":0,"o":"m 301 -7 l 621 -7 b 792 65 728 -7 756 18 l 804 65 l 804 21 b 825 0 804 7 811 0 l 950 0 b 971 21 964 0 971 7 l 971 951 b 950 972 971 965 964 972 l 824 972 b 804 951 814 972 804 965 l 804 628 l 792 628 b 621 700 756 675 728 700 l 301 700 b 63 465 149 700 63 613 l 63 229 b 301 -7 63 82 149 -7 z m 1233 972 l 1129 972 b 1108 951 1115 972 1108 965 l 1108 715 l 1049 715 b 1028 693 1035 715 1028 707 l 1028 596 b 1049 575 1028 582 1035 575 l 1206 575 b 1254 625 1238 575 1254 592 l 1254 951 b 1233 972 1254 965 1247 972 z m 318 143 b 229 231 264 143 229 172 l 229 463 b 318 551 229 521 264 551 l 726 551 b 804 463 772 551 804 521 l 804 231 b 726 143 804 172 772 143 z "},"đ":{"ha":1058,"x_min":0,"x_max":0,"o":"m 1017 881 l 971 881 l 971 951 b 950 972 971 965 964 972 l 824 972 b 804 951 814 972 804 965 l 804 881 l 567 881 b 546 860 553 881 546 874 l 546 751 b 567 731 546 738 553 731 l 804 731 l 804 628 l 792 628 b 621 700 756 675 728 700 l 301 700 b 63 465 149 700 63 613 l 63 229 b 301 -7 63 82 149 -7 l 621 -7 b 792 65 728 -7 756 18 l 804 65 l 804 21 b 825 0 804 7 811 0 l 950 0 b 971 21 964 0 971 7 l 971 731 l 1017 731 b 1038 751 1029 731 1038 738 l 1038 860 b 1017 881 1038 874 1029 881 z m 804 231 b 726 143 804 172 772 143 l 318 143 b 229 231 264 143 229 172 l 229 463 b 318 551 229 521 264 551 l 726 551 b 804 463 772 551 804 521 z "},"e":{"ha":1018,"x_min":0,"x_max":0,"o":"m 871 286 b 956 371 928 286 956 317 l 956 465 b 717 700 956 613 869 700 l 301 700 b 63 465 149 700 63 613 l 63 229 b 301 -7 63 82 149 -7 l 675 -7 b 940 108 832 -7 893 28 b 932 143 949 122 950 135 l 885 165 b 838 169 864 175 851 175 b 667 140 771 143 757 140 l 325 140 b 229 229 264 140 229 171 l 229 286 z m 325 551 l 694 551 b 789 463 754 551 789 521 l 789 406 l 229 406 l 229 463 b 325 551 229 521 264 551 z "},"é":{"ha":1018,"x_min":0,"x_max":0,"o":"m 457 763 l 563 763 b 597 788 576 763 589 774 l 721 947 b 714 972 733 963 728 972 l 546 972 b 517 947 532 972 525 964 l 444 788 b 457 763 436 771 442 763 z m 871 286 b 956 371 928 286 956 317 l 956 465 b 717 700 956 613 869 700 l 301 700 b 63 465 149 700 63 613 l 63 229 b 301 -7 63 82 149 -7 l 675 -7 b 940 108 832 -7 893 28 b 932 143 949 122 950 135 l 885 165 b 838 169 864 175 851 175 b 667 140 771 143 757 140 l 325 140 b 229 229 264 140 229 171 l 229 286 z m 325 551 l 694 551 b 789 463 754 551 789 521 l 789 406 l 229 406 l 229 463 b 325 551 229 521 264 551 z "},"ě":{"ha":1018,"x_min":0,"x_max":0,"o":"m 401 782 b 439 763 413 768 424 763 l 572 763 b 611 782 588 763 600 769 l 754 946 b 743 972 765 958 757 972 l 624 972 b 581 946 604 972 594 963 l 513 867 l 499 867 l 432 946 b 389 972 418 963 408 972 l 269 972 b 258 946 256 972 247 958 z m 871 286 b 956 371 928 286 956 317 l 956 465 b 717 700 956 613 869 700 l 301 700 b 63 465 149 700 63 613 l 63 229 b 301 -7 63 82 149 -7 l 675 -7 b 940 108 832 -7 893 28 b 932 143 949 122 950 135 l 885 165 b 838 169 864 175 851 175 b 667 140 771 143 757 140 l 325 140 b 229 229 264 140 229 171 l 229 286 z m 325 551 l 694 551 b 789 463 754 551 789 521 l 789 406 l 229 406 l 229 463 b 325 551 229 521 264 551 z "},"ȩ":{"ha":1018,"x_min":0,"x_max":0,"o":"m 871 286 b 956 371 928 286 956 317 l 956 465 b 717 700 956 613 869 700 l 301 700 b 63 465 149 700 63 613 l 63 229 b 301 -7 63 82 149 -7 l 456 -7 b 401 -82 417 -42 401 -57 b 457 -131 401 -115 426 -128 b 599 -167 575 -142 599 -144 b 556 -189 599 -185 582 -189 l 528 -189 b 488 -168 504 -189 492 -179 b 472 -154 486 -160 481 -154 l 374 -154 b 360 -172 363 -154 360 -161 b 482 -285 360 -240 390 -285 l 592 -285 b 726 -165 682 -285 726 -242 b 601 -46 726 -79 694 -56 b 597 -7 572 -43 544 -39 l 675 -7 b 940 108 832 -7 893 28 b 932 143 949 122 950 135 l 885 165 b 838 169 864 175 851 175 b 667 140 771 143 757 140 l 325 140 b 229 229 264 140 229 171 l 229 286 z m 325 551 l 694 551 b 789 463 754 551 789 521 l 789 406 l 229 406 l 229 463 b 325 551 229 521 264 551 z "},"ê":{"ha":1018,"x_min":0,"x_max":0,"o":"m 269 763 l 389 763 b 432 789 408 763 418 772 l 499 868 l 513 868 l 581 789 b 624 763 594 772 604 763 l 743 763 b 754 789 757 763 765 776 l 611 953 b 572 972 600 965 588 972 l 439 972 b 401 953 424 972 413 967 l 258 789 b 269 763 247 776 256 763 z m 871 286 b 956 371 928 286 956 317 l 956 465 b 717 700 956 613 869 700 l 301 700 b 63 465 149 700 63 613 l 63 229 b 301 -7 63 82 149 -7 l 675 -7 b 940 108 832 -7 893 28 b 932 143 949 122 950 135 l 885 165 b 838 169 864 175 851 175 b 667 140 771 143 757 140 l 325 140 b 229 229 264 140 229 171 l 229 286 z m 325 551 l 694 551 b 789 463 754 551 789 521 l 789 406 l 229 406 l 229 463 b 325 551 229 521 264 551 z "},"ë":{"ha":1018,"x_min":0,"x_max":0,"o":"m 254 800 l 385 800 b 406 821 399 800 406 807 l 406 951 b 385 972 406 965 399 972 l 254 972 b 233 951 240 972 233 965 l 233 821 b 254 800 233 807 240 800 z m 601 800 l 731 800 b 753 821 744 800 753 807 l 753 951 b 731 972 753 965 744 972 l 601 972 b 581 951 588 972 581 965 l 581 821 b 601 800 581 807 588 800 z m 871 286 b 956 371 928 286 956 317 l 956 465 b 717 700 956 613 869 700 l 301 700 b 63 465 149 700 63 613 l 63 229 b 301 -7 63 82 149 -7 l 675 -7 b 940 108 832 -7 893 28 b 932 143 949 122 950 135 l 885 165 b 838 169 864 175 851 175 b 667 140 771 143 757 140 l 325 140 b 229 229 264 140 229 171 l 229 286 z m 325 551 l 694 551 b 789 463 754 551 789 521 l 789 406 l 229 406 l 229 463 b 325 551 229 521 264 551 z "},"ė":{"ha":1018,"x_min":0,"x_max":0,"o":"m 440 800 l 571 800 b 592 821 585 800 592 807 l 592 951 b 571 972 592 965 585 972 l 440 972 b 419 951 426 972 419 965 l 419 821 b 440 800 419 807 426 800 z m 871 286 b 956 371 928 286 956 317 l 956 465 b 717 700 956 613 869 700 l 301 700 b 63 465 149 700 63 613 l 63 229 b 301 -7 63 82 149 -7 l 675 -7 b 940 108 832 -7 893 28 b 932 143 949 122 950 135 l 885 165 b 838 169 864 175 851 175 b 667 140 771 143 757 140 l 325 140 b 229 229 264 140 229 171 l 229 286 z m 325 551 l 694 551 b 789 463 754 551 789 521 l 789 406 l 229 406 l 229 463 b 325 551 229 521 264 551 z "},"è":{"ha":1018,"x_min":0,"x_max":0,"o":"m 415 788 b 449 763 425 774 435 763 l 554 763 b 568 788 569 763 576 771 l 496 947 b 467 972 488 964 481 972 l 306 972 b 292 947 290 972 279 963 z m 871 286 b 956 371 928 286 956 317 l 956 465 b 717 700 956 613 869 700 l 301 700 b 63 465 149 700 63 613 l 63 229 b 301 -7 63 82 149 -7 l 675 -7 b 940 108 832 -7 893 28 b 932 143 949 122 950 135 l 885 165 b 838 169 864 175 851 175 b 667 140 771 143 757 140 l 325 140 b 229 229 264 140 229 171 l 229 286 z m 325 551 l 694 551 b 789 463 754 551 789 521 l 789 406 l 229 406 l 229 463 b 325 551 229 521 264 551 z "},"ē":{"ha":1018,"x_min":0,"x_max":0,"o":"m 281 822 l 731 822 b 751 843 743 822 751 829 l 751 951 b 731 972 751 965 743 972 l 281 972 b 260 951 267 972 260 965 l 260 843 b 281 822 260 829 267 822 z m 871 286 b 956 371 928 286 956 317 l 956 465 b 717 700 956 613 869 700 l 301 700 b 63 465 149 700 63 613 l 63 229 b 301 -7 63 82 149 -7 l 675 -7 b 940 108 832 -7 893 28 b 932 143 949 122 950 135 l 885 165 b 838 169 864 175 851 175 b 667 140 771 143 757 140 l 325 140 b 229 229 264 140 229 171 l 229 286 z m 325 551 l 694 551 b 789 463 754 551 789 521 l 789 406 l 229 406 l 229 463 b 325 551 229 521 264 551 z "},"ę":{"ha":1018,"x_min":0,"x_max":0,"o":"m 871 286 b 956 371 928 286 956 317 l 956 465 b 717 700 956 613 869 700 l 301 700 b 63 465 149 700 63 613 l 63 229 b 301 -7 63 82 149 -7 l 494 -7 b 447 -42 494 -37 479 -39 l 396 -47 b 294 -164 318 -56 294 -72 b 436 -286 294 -265 325 -286 l 626 -286 b 640 -272 636 -286 640 -281 l 640 -194 b 626 -178 640 -185 635 -178 l 465 -178 b 444 -161 449 -178 444 -172 b 463 -142 444 -147 447 -143 l 565 -129 b 661 -47 631 -121 661 -115 l 661 -7 l 675 -7 b 940 108 832 -7 893 28 b 932 143 949 122 950 135 l 885 165 b 838 169 864 175 851 175 b 667 140 771 143 757 140 l 325 140 b 229 229 264 140 229 171 l 229 286 z m 325 551 l 694 551 b 789 463 754 551 789 521 l 789 406 l 229 406 l 229 463 b 325 551 229 521 264 551 z "},"f":{"ha":851,"x_min":0,"x_max":0,"o":"m 782 972 l 389 972 b 150 738 236 972 150 885 l 150 694 l 76 694 b 56 674 63 694 56 688 l 56 567 b 76 546 56 553 63 546 l 150 546 l 150 21 b 171 0 150 7 157 0 l 296 0 b 317 21 310 0 317 7 l 317 546 l 768 546 b 789 567 782 546 789 553 l 789 674 b 768 694 789 688 782 694 l 317 694 l 317 735 b 407 824 317 793 353 824 l 782 824 b 803 844 796 824 803 831 l 803 951 b 782 972 803 965 796 972 z "},"g":{"ha":1040,"x_min":0,"x_max":0,"o":"m 243 -251 l 732 -251 b 971 -17 885 -251 971 -164 l 971 674 b 950 694 971 688 964 694 l 824 694 b 804 674 814 694 804 688 l 804 628 l 792 628 b 621 700 756 675 728 700 l 301 700 b 63 465 149 700 63 613 l 63 229 b 301 -7 63 82 149 -7 l 621 -7 b 792 65 728 -7 756 18 l 804 65 l 804 -8 b 685 -114 804 -81 768 -114 l 243 -114 b 222 -136 229 -114 222 -121 l 222 -231 b 243 -251 222 -244 229 -251 z m 318 143 b 229 231 264 143 229 172 l 229 463 b 318 551 229 521 264 551 l 726 551 b 804 463 772 551 804 521 l 804 231 b 726 143 804 172 772 143 z "},"ğ":{"ha":1040,"x_min":0,"x_max":0,"o":"m 485 754 l 568 754 b 758 951 699 754 758 818 b 738 972 758 965 751 972 l 643 972 b 622 951 629 972 624 965 b 544 869 618 907 603 869 l 508 869 b 431 951 450 869 435 907 b 410 972 429 965 424 972 l 315 972 b 294 951 301 972 294 965 b 485 754 294 818 354 754 z m 243 -251 l 732 -251 b 971 -17 885 -251 971 -164 l 971 674 b 950 694 971 688 964 694 l 824 694 b 804 674 814 694 804 688 l 804 628 l 792 628 b 621 700 756 675 728 700 l 301 700 b 63 465 149 700 63 613 l 63 229 b 301 -7 63 82 149 -7 l 621 -7 b 792 65 728 -7 756 18 l 804 65 l 804 -8 b 685 -114 804 -81 768 -114 l 243 -114 b 222 -136 229 -114 222 -121 l 222 -231 b 243 -251 222 -244 229 -251 z m 318 143 b 229 231 264 143 229 172 l 229 463 b 318 551 229 521 264 551 l 726 551 b 804 463 772 551 804 521 l 804 231 b 726 143 804 172 772 143 z "},"ǧ":{"ha":1040,"x_min":0,"x_max":0,"o":"m 460 763 l 593 763 b 632 782 608 763 621 769 l 775 946 b 764 972 786 958 778 972 l 644 972 b 601 946 625 972 615 963 l 533 867 l 519 867 l 453 946 b 410 972 439 963 429 972 l 290 972 b 279 946 276 972 268 958 l 422 782 b 460 763 433 768 444 763 z m 243 -251 l 732 -251 b 971 -17 885 -251 971 -164 l 971 674 b 950 694 971 688 964 694 l 824 694 b 804 674 814 694 804 688 l 804 628 l 792 628 b 621 700 756 675 728 700 l 301 700 b 63 465 149 700 63 613 l 63 229 b 301 -7 63 82 149 -7 l 621 -7 b 792 65 728 -7 756 18 l 804 65 l 804 -8 b 685 -114 804 -81 768 -114 l 243 -114 b 222 -136 229 -114 222 -121 l 222 -231 b 243 -251 222 -244 229 -251 z m 318 143 b 229 231 264 143 229 172 l 229 463 b 318 551 229 521 264 551 l 726 551 b 804 463 772 551 804 521 l 804 231 b 726 143 804 172 772 143 z "},"ģ":{"ha":1054,"x_min":0,"x_max":0,"o":"m 419 785 l 525 785 b 546 806 539 785 546 792 l 546 1043 l 604 1043 b 625 1064 618 1043 625 1050 l 625 1161 b 604 1182 625 1175 618 1182 l 449 1182 b 399 1133 415 1182 399 1165 l 399 806 b 419 785 399 792 406 785 z m 243 -251 l 732 -251 b 971 -17 885 -251 971 -164 l 971 674 b 950 694 971 688 964 694 l 824 694 b 804 674 814 694 804 688 l 804 628 l 792 628 b 621 700 756 675 728 700 l 301 700 b 63 465 149 700 63 613 l 63 229 b 301 -7 63 82 149 -7 l 621 -7 b 792 65 728 -7 756 18 l 804 65 l 804 -8 b 685 -114 804 -81 768 -114 l 243 -114 b 222 -136 229 -114 222 -121 l 222 -231 b 243 -251 222 -244 229 -251 z m 318 143 b 229 231 264 143 229 172 l 229 463 b 318 551 229 521 264 551 l 726 551 b 804 463 772 551 804 521 l 804 231 b 726 143 804 172 772 143 z "},"ġ":{"ha":1040,"x_min":0,"x_max":0,"o":"m 461 800 l 592 800 b 613 821 606 800 613 807 l 613 951 b 592 972 613 965 606 972 l 461 972 b 440 951 447 972 440 965 l 440 821 b 461 800 440 807 447 800 z m 243 -251 l 732 -251 b 971 -17 885 -251 971 -164 l 971 674 b 950 694 971 688 964 694 l 824 694 b 804 674 814 694 804 688 l 804 628 l 792 628 b 621 700 756 675 728 700 l 301 700 b 63 465 149 700 63 613 l 63 229 b 301 -7 63 82 149 -7 l 621 -7 b 792 65 728 -7 756 18 l 804 65 l 804 -8 b 685 -114 804 -81 768 -114 l 243 -114 b 222 -136 229 -114 222 -121 l 222 -231 b 243 -251 222 -244 229 -251 z m 318 143 b 229 231 264 143 229 172 l 229 463 b 318 551 229 521 264 551 l 726 551 b 804 463 772 551 804 521 l 804 231 b 726 143 804 172 772 143 z "},"h":{"ha":1047,"x_min":0,"x_max":0,"o":"m 739 700 l 419 700 b 249 628 313 700 285 675 l 236 628 l 236 951 b 215 972 236 965 229 972 l 90 972 b 69 951 76 972 69 965 l 69 21 b 90 0 69 7 76 0 l 215 0 b 236 21 229 0 236 7 l 236 463 b 329 551 236 521 268 551 l 715 551 b 811 463 775 551 811 521 l 811 21 b 832 0 811 7 818 0 l 957 0 b 978 21 971 0 978 7 l 978 465 b 739 700 978 613 892 700 z "},"ħ":{"ha":1089,"x_min":0,"x_max":0,"o":"m 781 700 l 461 700 b 290 628 354 700 326 675 l 278 628 l 278 746 l 407 746 b 428 767 421 746 428 753 l 428 867 b 407 888 428 881 421 888 l 278 888 l 278 951 b 257 972 278 965 271 972 l 132 972 b 111 951 118 972 111 965 l 111 888 l 63 888 b 42 867 49 888 42 881 l 42 767 b 63 746 42 753 49 746 l 111 746 l 111 21 b 132 0 111 7 118 0 l 257 0 b 278 21 271 0 278 7 l 278 463 b 371 551 278 521 310 551 l 757 551 b 853 463 817 551 853 521 l 853 21 b 874 0 853 7 860 0 l 999 0 b 1019 21 1013 0 1019 7 l 1019 465 b 781 700 1019 613 933 700 z "},"i":{"ha":306,"x_min":0,"x_max":0,"o":"m 69 951 l 69 831 b 90 810 69 817 76 810 l 215 810 b 236 831 229 810 236 817 l 236 951 b 215 972 236 965 229 972 l 90 972 b 69 951 76 972 69 965 z m 69 674 l 69 21 b 90 0 69 7 76 0 l 215 0 b 236 21 229 0 236 7 l 236 674 b 215 694 236 688 229 694 l 90 694 b 69 674 76 694 69 688 z "},"ı":{"ha":306,"x_min":0,"x_max":0,"o":"m 69 674 l 69 21 b 90 0 69 7 76 0 l 215 0 b 236 21 229 0 236 7 l 236 674 b 215 694 236 688 229 694 l 90 694 b 69 674 76 694 69 688 z "},"í":{"ha":306,"x_min":0,"x_max":0,"o":"m 163 947 l 90 788 b 103 763 82 771 88 763 l 208 763 b 243 788 222 763 235 774 l 367 947 b 360 972 379 963 374 972 l 192 972 b 163 947 178 972 171 964 z m 69 674 l 69 21 b 90 0 69 7 76 0 l 215 0 b 236 21 229 0 236 7 l 236 674 b 215 694 236 688 229 694 l 90 694 b 69 674 76 694 69 688 z "},"ǐ":{"ha":306,"x_min":0,"x_max":0,"o":"m 83 763 l 217 763 b 256 782 232 763 244 769 l 399 946 b 388 972 410 958 401 972 l 268 972 b 225 946 249 972 239 963 l 157 867 l 143 867 l 76 946 b 33 972 63 963 53 972 l -86 972 b -97 946 -100 972 -108 958 l 46 782 b 83 763 57 768 68 763 z m 69 674 l 69 21 b 90 0 69 7 76 0 l 215 0 b 236 21 229 0 236 7 l 236 674 b 215 694 236 688 229 694 l 90 694 b 69 674 76 694 69 688 z "},"î":{"ha":306,"x_min":0,"x_max":0,"o":"m 83 972 b 46 953 68 972 57 967 l -97 789 b -86 763 -108 776 -100 763 l 33 763 b 76 789 53 763 63 772 l 143 868 l 157 868 l 225 789 b 268 763 239 772 249 763 l 388 763 b 399 789 401 763 410 776 l 256 953 b 217 972 244 965 232 972 z m 69 674 l 69 21 b 90 0 69 7 76 0 l 215 0 b 236 21 229 0 236 7 l 236 674 b 215 694 236 688 229 694 l 90 694 b 69 674 76 694 69 688 z "},"ï":{"ha":306,"x_min":0,"x_max":0,"o":"m -100 800 l 31 800 b 51 821 44 800 51 807 l 51 951 b 31 972 51 965 44 972 l -100 972 b -121 951 -114 972 -121 965 l -121 821 b -100 800 -121 807 -114 800 z m 247 800 l 376 800 b 399 821 390 800 399 807 l 399 951 b 376 972 399 965 390 972 l 247 972 b 226 951 233 972 226 965 l 226 821 b 247 800 226 807 233 800 z m 69 674 l 69 21 b 90 0 69 7 76 0 l 215 0 b 236 21 229 0 236 7 l 236 674 b 215 694 236 688 229 694 l 90 694 b 69 674 76 694 69 688 z "},"ì":{"ha":306,"x_min":0,"x_max":0,"o":"m 140 947 b 111 972 132 964 125 972 l -50 972 b -64 947 -65 972 -76 963 l 60 788 b 93 763 69 774 79 763 l 199 763 b 213 788 214 763 221 771 z m 69 674 l 69 21 b 90 0 69 7 76 0 l 215 0 b 236 21 229 0 236 7 l 236 674 b 215 694 236 688 229 694 l 90 694 b 69 674 76 694 69 688 z "},"ĳ":{"ha":643,"x_min":0,"x_max":0,"o":"m 69 951 l 69 831 b 90 810 69 817 76 810 l 215 810 b 236 831 229 810 236 817 l 236 951 b 215 972 236 965 229 972 l 90 972 b 69 951 76 972 69 965 z m 428 810 l 553 810 b 574 831 567 810 574 817 l 574 951 b 553 972 574 965 567 972 l 428 972 b 407 951 414 972 407 965 l 407 831 b 428 810 407 817 414 810 z m 69 674 l 69 21 b 90 0 69 7 76 0 l 215 0 b 236 21 229 0 236 7 l 236 674 b 215 694 236 688 229 694 l 90 694 b 69 674 76 694 69 688 z m 335 -251 b 574 -17 488 -251 574 -164 l 574 674 b 553 694 574 688 567 694 l 428 694 b 407 674 414 694 407 688 l 407 0 b 288 -106 407 -72 371 -106 l 213 -106 b 181 -132 193 -106 181 -112 l 181 -206 b 213 -244 181 -232 192 -242 b 335 -251 242 -249 276 -251 z "},"ī":{"ha":306,"x_min":0,"x_max":0,"o":"m -75 822 l 375 822 b 396 843 388 822 396 829 l 396 951 b 375 972 396 965 388 972 l -75 972 b -96 951 -89 972 -96 965 l -96 843 b -75 822 -96 829 -89 822 z m 69 674 l 69 21 b 90 0 69 7 76 0 l 215 0 b 236 21 229 0 236 7 l 236 674 b 215 694 236 688 229 694 l 90 694 b 69 674 76 694 69 688 z "},"į":{"ha":306,"x_min":0,"x_max":0,"o":"m 215 972 l 85 972 b 64 951 71 972 64 965 l 64 821 b 85 800 64 807 71 800 l 215 800 b 236 821 229 800 236 807 l 236 951 b 215 972 236 965 229 972 z m 215 694 l 90 694 b 69 674 76 694 69 688 l 69 -6 b 22 -42 69 -37 54 -39 l -29 -47 b -131 -164 -107 -56 -131 -72 b 11 -286 -131 -265 -100 -286 l 201 -286 b 215 -272 211 -286 215 -281 l 215 -194 b 201 -178 215 -185 210 -178 l 40 -178 b 19 -161 24 -178 19 -172 b 38 -142 19 -147 22 -143 l 140 -129 b 236 -47 206 -121 236 -115 l 236 674 b 215 694 236 688 229 694 z "},"j":{"ha":310,"x_min":0,"x_max":0,"o":"m 94 810 l 219 810 b 240 831 233 810 240 817 l 240 951 b 219 972 240 965 233 972 l 94 972 b 74 951 81 972 74 965 l 74 831 b 94 810 74 817 81 810 z m 1 -251 b 240 -17 154 -251 240 -164 l 240 674 b 219 694 240 688 233 694 l 94 694 b 74 674 81 694 74 688 l 74 0 b -46 -106 74 -72 38 -106 l -121 -106 b -153 -132 -140 -106 -153 -112 l -153 -206 b -122 -244 -153 -232 -142 -242 b 1 -251 -92 -249 -57 -251 z "},"ȷ":{"ha":310,"x_min":0,"x_max":0,"o":"m 1 -251 b 240 -17 154 -251 240 -164 l 240 674 b 219 694 240 688 233 694 l 94 694 b 74 674 81 694 74 688 l 74 0 b -46 -106 74 -72 38 -106 l -121 -106 b -153 -132 -140 -106 -153 -112 l -153 -206 b -122 -244 -153 -232 -142 -242 b 1 -251 -92 -249 -57 -251 z "},"k":{"ha":1040,"x_min":0,"x_max":0,"o":"m 990 36 l 517 403 l 954 649 b 950 694 983 665 975 694 l 788 694 b 739 681 765 694 753 689 l 236 393 l 236 951 b 215 972 236 965 229 972 l 90 972 b 69 951 76 972 69 965 l 69 21 b 90 0 69 7 76 0 l 215 0 b 236 21 229 0 236 7 l 236 244 l 388 331 l 783 24 b 844 0 801 10 819 0 l 971 0 b 990 36 997 0 1006 24 z "},"ķ":{"ha":1040,"x_min":0,"x_max":0,"o":"m 990 36 l 517 403 l 954 649 b 950 694 983 665 975 694 l 788 694 b 739 681 765 694 753 689 l 236 393 l 236 951 b 215 972 236 965 229 972 l 90 972 b 69 951 76 972 69 965 l 69 21 b 90 0 69 7 76 0 l 215 0 b 236 21 229 0 236 7 l 236 244 l 388 331 l 783 24 b 844 0 801 10 819 0 l 971 0 b 990 36 997 0 1006 24 z m 528 -83 l 424 -83 b 403 -104 410 -83 403 -90 l 403 -342 l 343 -342 b 322 -362 329 -342 322 -349 l 322 -460 b 343 -481 322 -474 329 -481 l 500 -481 b 549 -431 532 -481 549 -464 l 549 -104 b 528 -83 549 -90 542 -83 z "},"l":{"ha":306,"x_min":0,"x_max":0,"o":"m 69 951 l 69 21 b 90 0 69 7 76 0 l 215 0 b 236 21 229 0 236 7 l 236 951 b 215 972 236 965 229 972 l 90 972 b 69 951 76 972 69 965 z "},"ĺ":{"ha":306,"x_min":0,"x_max":0,"o":"m 165 1225 l 93 1065 b 106 1040 85 1049 90 1040 l 211 1040 b 246 1065 225 1040 238 1051 l 369 1225 b 363 1250 382 1240 376 1250 l 194 1250 b 165 1225 181 1250 174 1242 z m 69 951 l 69 21 b 90 0 69 7 76 0 l 215 0 b 236 21 229 0 236 7 l 236 951 b 215 972 236 965 229 972 l 90 972 b 69 951 76 972 69 965 z "},"ľ":{"ha":461,"x_min":0,"x_max":0,"o":"m 69 951 l 69 21 b 90 0 69 7 76 0 l 215 0 b 236 21 229 0 236 7 l 236 951 b 215 972 236 965 229 972 l 90 972 b 69 951 76 972 69 965 z m 494 972 l 390 972 b 369 951 376 972 369 965 l 369 715 l 310 715 b 289 693 296 715 289 707 l 289 596 b 310 575 289 582 296 575 l 467 575 b 517 625 499 575 517 592 l 517 951 b 494 972 517 965 508 972 z "},"ļ":{"ha":306,"x_min":0,"x_max":0,"o":"m 69 951 l 69 21 b 90 0 69 7 76 0 l 215 0 b 236 21 229 0 236 7 l 236 951 b 215 972 236 965 229 972 l 90 972 b 69 951 76 972 69 965 z m 207 -83 l 103 -83 b 82 -104 89 -83 82 -90 l 82 -342 l 22 -342 b 1 -362 8 -342 1 -349 l 1 -460 b 22 -481 1 -474 8 -481 l 179 -481 b 228 -431 211 -481 228 -464 l 228 -104 b 207 -83 228 -90 221 -83 z "},"ŀ":{"ha":453,"x_min":0,"x_max":0,"o":"m 69 951 l 69 21 b 90 0 69 7 76 0 l 215 0 b 236 21 229 0 236 7 l 236 951 b 215 972 236 965 229 972 l 90 972 b 69 951 76 972 69 965 z m 329 401 l 460 401 b 481 422 474 401 481 408 l 481 551 b 460 572 481 565 474 572 l 329 572 b 308 551 315 572 308 565 l 308 422 b 329 401 308 408 315 401 z "},"ł":{"ha":364,"x_min":0,"x_max":0,"o":"m 353 624 l 267 624 l 267 951 b 246 972 267 965 260 972 l 121 972 b 100 951 107 972 100 965 l 100 479 l -1 375 b 13 350 -12 363 -4 350 l 100 350 l 100 21 b 121 0 100 7 107 0 l 246 0 b 267 21 260 0 267 7 l 267 496 l 367 599 b 353 624 379 613 369 624 z "},"m":{"ha":1594,"x_min":0,"x_max":0,"o":"m 1286 700 l 1050 700 b 854 614 943 700 890 675 l 839 614 b 642 700 799 669 732 700 l 419 700 b 249 628 313 700 285 675 l 236 628 l 236 674 b 217 694 236 688 226 694 l 90 694 b 69 674 76 694 69 688 l 69 21 b 90 0 69 7 76 0 l 215 0 b 236 21 229 0 236 7 l 236 463 b 329 551 236 521 268 551 l 618 551 b 714 463 679 551 714 521 l 714 21 b 735 0 714 7 721 0 l 860 0 b 881 21 874 0 881 7 l 881 463 b 974 551 881 521 913 551 l 1263 551 b 1358 463 1324 551 1358 521 l 1358 21 b 1379 0 1358 7 1365 0 l 1504 0 b 1525 21 1518 0 1525 7 l 1525 465 b 1286 700 1525 613 1439 700 z "},"ḿ":{"ha":1594,"x_min":0,"x_max":0,"o":"m 750 763 l 856 763 b 890 788 869 763 882 774 l 1014 947 b 1007 972 1026 963 1021 972 l 839 972 b 810 947 825 972 818 964 l 738 788 b 750 763 729 771 735 763 z m 1286 700 l 1050 700 b 854 614 943 700 890 675 l 839 614 b 642 700 799 669 732 700 l 419 700 b 249 628 313 700 285 675 l 236 628 l 236 674 b 217 694 236 688 226 694 l 90 694 b 69 674 76 694 69 688 l 69 21 b 90 0 69 7 76 0 l 215 0 b 236 21 229 0 236 7 l 236 463 b 329 551 236 521 268 551 l 618 551 b 714 463 679 551 714 521 l 714 21 b 735 0 714 7 721 0 l 860 0 b 881 21 874 0 881 7 l 881 463 b 974 551 881 521 913 551 l 1263 551 b 1358 463 1324 551 1358 521 l 1358 21 b 1379 0 1358 7 1365 0 l 1504 0 b 1525 21 1518 0 1525 7 l 1525 465 b 1286 700 1525 613 1439 700 z "},"n":{"ha":1047,"x_min":0,"x_max":0,"o":"m 90 0 l 215 0 b 236 21 229 0 236 7 l 236 463 b 329 551 236 521 268 551 l 715 551 b 811 463 775 551 811 521 l 811 21 b 832 0 811 7 818 0 l 957 0 b 978 21 971 0 978 7 l 978 465 b 739 700 978 613 892 700 l 419 700 b 249 628 313 700 285 675 l 236 628 l 236 674 b 217 694 236 688 226 694 l 90 694 b 69 674 76 694 69 688 l 69 21 b 90 0 69 7 76 0 z "},"ń":{"ha":1047,"x_min":0,"x_max":0,"o":"m 536 947 l 464 788 b 476 763 456 771 461 763 l 582 763 b 617 788 596 763 608 774 l 740 947 b 733 972 753 963 747 972 l 565 972 b 536 947 551 972 544 964 z m 90 0 l 215 0 b 236 21 229 0 236 7 l 236 463 b 329 551 236 521 268 551 l 715 551 b 811 463 775 551 811 521 l 811 21 b 832 0 811 7 818 0 l 957 0 b 978 21 971 0 978 7 l 978 465 b 739 700 978 613 892 700 l 419 700 b 249 628 313 700 285 675 l 236 628 l 236 674 b 217 694 236 688 226 694 l 90 694 b 69 674 76 694 69 688 l 69 21 b 90 0 69 7 76 0 z "},"ň":{"ha":1047,"x_min":0,"x_max":0,"o":"m 457 763 l 590 763 b 629 782 606 763 618 769 l 772 946 b 761 972 783 958 775 972 l 642 972 b 599 946 622 972 613 963 l 531 867 l 517 867 l 450 946 b 407 972 436 963 426 972 l 288 972 b 276 946 274 972 265 958 l 419 782 b 457 763 431 768 442 763 z m 90 0 l 215 0 b 236 21 229 0 236 7 l 236 463 b 329 551 236 521 268 551 l 715 551 b 811 463 775 551 811 521 l 811 21 b 832 0 811 7 818 0 l 957 0 b 978 21 971 0 978 7 l 978 465 b 739 700 978 613 892 700 l 419 700 b 249 628 313 700 285 675 l 236 628 l 236 674 b 217 694 236 688 226 694 l 90 694 b 69 674 76 694 69 688 l 69 21 b 90 0 69 7 76 0 z "},"ņ":{"ha":1047,"x_min":0,"x_max":0,"o":"m 90 0 l 215 0 b 236 21 229 0 236 7 l 236 463 b 329 551 236 521 268 551 l 715 551 b 811 463 775 551 811 521 l 811 21 b 832 0 811 7 818 0 l 957 0 b 978 21 971 0 978 7 l 978 465 b 739 700 978 613 892 700 l 419 700 b 249 628 313 700 285 675 l 236 628 l 236 674 b 217 694 236 688 226 694 l 90 694 b 69 674 76 694 69 688 l 69 21 b 90 0 69 7 76 0 z m 576 -83 l 472 -83 b 451 -104 458 -83 451 -90 l 451 -342 l 392 -342 b 371 -362 378 -342 371 -349 l 371 -460 b 392 -481 371 -474 378 -481 l 549 -481 b 597 -431 581 -481 597 -464 l 597 -104 b 576 -83 597 -90 590 -83 z "},"ŋ":{"ha":1047,"x_min":0,"x_max":0,"o":"m 739 700 l 419 700 b 249 628 313 700 285 675 l 236 628 l 236 674 b 217 694 236 688 226 694 l 90 694 b 69 674 76 694 69 688 l 69 21 b 90 0 69 7 76 0 l 215 0 b 236 21 229 0 236 7 l 236 463 b 329 551 236 521 268 551 l 715 551 b 811 463 775 551 811 521 l 811 -26 b 692 -132 811 -99 775 -132 l 617 -132 b 585 -158 597 -132 585 -139 l 585 -232 b 615 -271 585 -258 596 -268 b 738 -278 646 -275 681 -278 b 978 -43 890 -278 978 -190 l 978 465 b 739 700 978 613 892 700 z "},"ñ":{"ha":1047,"x_min":0,"x_max":0,"o":"m 615 778 b 753 824 663 778 704 788 b 765 856 764 832 771 840 l 731 943 b 704 950 726 951 717 957 b 619 922 669 931 653 922 b 432 979 550 922 528 979 b 294 933 386 979 344 969 b 282 901 283 925 276 917 l 318 814 b 344 808 322 806 331 799 b 428 835 376 828 394 835 b 615 778 499 835 519 778 z m 90 0 l 215 0 b 236 21 229 0 236 7 l 236 463 b 329 551 236 521 268 551 l 715 551 b 811 463 775 551 811 521 l 811 21 b 832 0 811 7 818 0 l 957 0 b 978 21 971 0 978 7 l 978 465 b 739 700 978 613 892 700 l 419 700 b 249 628 313 700 285 675 l 236 628 l 236 674 b 217 694 236 688 226 694 l 90 694 b 69 674 76 694 69 688 l 69 21 b 90 0 69 7 76 0 z "},"o":{"ha":1033,"x_min":0,"x_max":0,"o":"m 301 -7 l 732 -7 b 971 228 883 -7 971 81 l 971 465 b 732 700 971 613 883 700 l 301 700 b 63 465 149 700 63 613 l 63 229 b 301 -7 63 82 149 -7 z m 325 143 b 229 231 264 143 229 172 l 229 463 b 325 551 229 521 264 551 l 708 551 b 804 463 768 551 804 521 l 804 231 b 708 143 804 172 768 143 z "},"ó":{"ha":1033,"x_min":0,"x_max":0,"o":"m 517 947 l 444 788 b 457 763 436 771 442 763 l 563 763 b 597 788 576 763 589 774 l 721 947 b 714 972 733 963 728 972 l 546 972 b 517 947 532 972 525 964 z m 301 -7 l 732 -7 b 971 228 883 -7 971 81 l 971 465 b 732 700 971 613 883 700 l 301 700 b 63 465 149 700 63 613 l 63 229 b 301 -7 63 82 149 -7 z m 325 143 b 229 231 264 143 229 172 l 229 463 b 325 551 229 521 264 551 l 708 551 b 804 463 768 551 804 521 l 804 231 b 708 143 804 172 768 143 z "},"ǒ":{"ha":1033,"x_min":0,"x_max":0,"o":"m 439 763 l 572 763 b 611 782 588 763 600 769 l 754 946 b 743 972 765 958 757 972 l 624 972 b 581 946 604 972 594 963 l 513 867 l 499 867 l 432 946 b 389 972 418 963 408 972 l 269 972 b 258 946 256 972 247 958 l 401 782 b 439 763 413 768 424 763 z m 301 -7 l 732 -7 b 971 228 883 -7 971 81 l 971 465 b 732 700 971 613 883 700 l 301 700 b 63 465 149 700 63 613 l 63 229 b 301 -7 63 82 149 -7 z m 325 143 b 229 231 264 143 229 172 l 229 463 b 325 551 229 521 264 551 l 708 551 b 804 463 768 551 804 521 l 804 231 b 708 143 804 172 768 143 z "},"ô":{"ha":1033,"x_min":0,"x_max":0,"o":"m 439 972 b 401 953 424 972 413 967 l 258 789 b 269 763 247 776 256 763 l 389 763 b 432 789 408 763 418 772 l 499 868 l 513 868 l 581 789 b 624 763 594 772 604 763 l 743 763 b 754 789 757 763 765 776 l 611 953 b 572 972 600 965 588 972 z m 301 -7 l 732 -7 b 971 228 883 -7 971 81 l 971 465 b 732 700 971 613 883 700 l 301 700 b 63 465 149 700 63 613 l 63 229 b 301 -7 63 82 149 -7 z m 325 143 b 229 231 264 143 229 172 l 229 463 b 325 551 229 521 264 551 l 708 551 b 804 463 768 551 804 521 l 804 231 b 708 143 804 172 768 143 z "},"ö":{"ha":1033,"x_min":0,"x_max":0,"o":"m 254 800 l 385 800 b 406 821 399 800 406 807 l 406 951 b 385 972 406 965 399 972 l 254 972 b 233 951 240 972 233 965 l 233 821 b 254 800 233 807 240 800 z m 601 800 l 731 800 b 753 821 744 800 753 807 l 753 951 b 731 972 753 965 744 972 l 601 972 b 581 951 588 972 581 965 l 581 821 b 601 800 581 807 588 800 z m 301 -7 l 732 -7 b 971 228 883 -7 971 81 l 971 465 b 732 700 971 613 883 700 l 301 700 b 63 465 149 700 63 613 l 63 229 b 301 -7 63 82 149 -7 z m 325 143 b 229 231 264 143 229 172 l 229 463 b 325 551 229 521 264 551 l 708 551 b 804 463 768 551 804 521 l 804 231 b 708 143 804 172 768 143 z "},"ò":{"ha":1033,"x_min":0,"x_max":0,"o":"m 496 947 b 467 972 488 964 481 972 l 306 972 b 292 947 290 972 279 963 l 415 788 b 449 763 425 774 435 763 l 554 763 b 568 788 569 763 576 771 z m 301 -7 l 732 -7 b 971 228 883 -7 971 81 l 971 465 b 732 700 971 613 883 700 l 301 700 b 63 465 149 700 63 613 l 63 229 b 301 -7 63 82 149 -7 z m 325 143 b 229 231 264 143 229 172 l 229 463 b 325 551 229 521 264 551 l 708 551 b 804 463 768 551 804 521 l 804 231 b 708 143 804 172 768 143 z "},"ő":{"ha":1033,"x_min":0,"x_max":0,"o":"m 378 947 l 306 788 b 318 763 297 771 303 763 l 424 763 b 458 788 438 763 450 774 l 582 947 b 575 972 594 963 589 972 l 407 972 b 378 947 393 972 386 964 z m 642 947 l 569 788 b 582 763 561 771 567 763 l 688 763 b 722 788 701 763 713 774 l 846 947 b 839 972 858 963 853 972 l 671 972 b 642 947 657 972 650 964 z m 301 -7 l 732 -7 b 971 228 883 -7 971 81 l 971 465 b 732 700 971 613 883 700 l 301 700 b 63 465 149 700 63 613 l 63 229 b 301 -7 63 82 149 -7 z m 325 143 b 229 231 264 143 229 172 l 229 463 b 325 551 229 521 264 551 l 708 551 b 804 463 768 551 804 521 l 804 231 b 708 143 804 172 768 143 z "},"ō":{"ha":1033,"x_min":0,"x_max":0,"o":"m 281 822 l 731 822 b 751 843 743 822 751 829 l 751 951 b 731 972 751 965 743 972 l 281 972 b 260 951 267 972 260 965 l 260 843 b 281 822 260 829 267 822 z m 301 -7 l 732 -7 b 971 228 883 -7 971 81 l 971 465 b 732 700 971 613 883 700 l 301 700 b 63 465 149 700 63 613 l 63 229 b 301 -7 63 82 149 -7 z m 325 143 b 229 231 264 143 229 172 l 229 463 b 325 551 229 521 264 551 l 708 551 b 804 463 768 551 804 521 l 804 231 b 708 143 804 172 768 143 z "},"ø":{"ha":1033,"x_min":0,"x_max":0,"o":"m 747 701 l 756 719 b 742 740 761 733 756 740 l 629 740 b 601 719 615 740 607 733 l 593 701 l 301 701 b 63 467 149 701 63 614 l 63 231 b 288 -6 63 88 143 0 l 279 -24 b 293 -44 274 -37 279 -44 l 404 -44 b 432 -24 418 -44 426 -37 l 440 -6 l 732 -6 b 971 229 883 -6 971 82 l 971 467 b 747 701 971 608 889 696 z m 325 144 b 229 232 264 144 229 174 l 229 464 b 325 553 229 522 264 553 l 529 553 l 351 144 z m 804 232 b 708 144 804 174 768 144 l 506 144 l 683 553 l 708 553 b 804 464 768 553 804 522 z "},"õ":{"ha":1033,"x_min":0,"x_max":0,"o":"m 596 778 b 733 824 643 778 685 788 b 746 856 744 832 751 840 l 711 943 b 685 950 707 951 697 957 b 600 922 650 931 633 922 b 413 979 531 922 508 979 b 275 933 367 979 325 969 b 263 901 264 925 257 917 l 299 814 b 325 808 303 806 311 799 b 408 835 357 828 375 835 b 596 778 479 835 500 778 z m 301 -7 l 732 -7 b 971 228 883 -7 971 81 l 971 465 b 732 700 971 613 883 700 l 301 700 b 63 465 149 700 63 613 l 63 229 b 301 -7 63 82 149 -7 z m 325 143 b 229 231 264 143 229 172 l 229 463 b 325 551 229 521 264 551 l 708 551 b 804 463 768 551 804 521 l 804 231 b 708 143 804 172 768 143 z "},"œ":{"ha":1760,"x_min":0,"x_max":0,"o":"m 1613 286 b 1697 371 1668 286 1697 317 l 1697 465 b 1458 700 1697 613 1611 700 l 1043 700 b 888 656 979 700 926 685 b 732 700 847 685 796 700 l 301 700 b 63 465 149 700 63 613 l 63 229 b 301 -7 63 82 149 -7 l 732 -7 b 888 38 796 -7 849 8 b 1043 -7 926 8 979 -7 l 1415 -7 b 1682 108 1572 -7 1635 28 b 1674 143 1690 122 1692 135 l 1625 165 b 1579 169 1606 175 1593 175 b 1408 140 1513 143 1499 140 l 1065 140 b 971 229 1006 140 971 171 l 971 286 z m 708 143 l 325 143 b 229 231 264 143 229 172 l 229 463 b 325 551 229 521 264 551 l 708 551 b 804 463 768 551 804 521 l 804 231 b 708 143 804 172 768 143 z m 1065 551 l 1435 551 b 1531 463 1496 551 1531 521 l 1531 406 l 971 406 l 971 463 b 1065 551 971 521 1006 551 z "},"p":{"ha":1040,"x_min":0,"x_max":0,"o":"m 217 -246 b 236 -225 226 -246 236 -239 l 236 65 l 249 65 b 421 -7 285 18 313 -7 l 739 -7 b 978 228 892 -7 978 81 l 978 464 b 739 700 978 611 892 700 l 421 700 b 249 628 313 700 285 675 l 236 628 l 236 674 b 215 694 236 688 229 694 l 90 694 b 69 674 76 694 69 688 l 69 -225 b 90 -246 69 -239 76 -246 z m 722 143 l 314 143 b 236 231 269 143 236 172 l 236 463 b 314 551 236 521 269 551 l 722 551 b 811 463 776 551 811 521 l 811 231 b 722 143 811 172 776 143 z "},"þ":{"ha":1040,"x_min":0,"x_max":0,"o":"m 735 700 l 367 700 b 236 635 300 700 261 672 l 236 988 b 215 1008 236 1001 229 1008 l 90 1008 b 69 988 76 1008 69 1001 l 69 -257 b 90 -278 69 -271 76 -278 l 221 -278 b 236 -257 231 -278 236 -269 l 236 63 b 367 -7 261 24 300 -7 l 735 -7 b 978 242 888 -7 978 94 l 978 449 b 735 700 978 596 888 700 z m 811 222 b 733 143 811 167 779 143 l 314 143 b 236 222 268 143 236 167 l 236 472 b 314 551 236 529 268 551 l 733 551 b 811 472 779 551 811 529 z "},"q":{"ha":1040,"x_min":0,"x_max":0,"o":"m 824 -246 l 950 -246 b 971 -225 964 -246 971 -239 l 971 674 b 950 694 971 688 964 694 l 825 694 b 804 674 811 694 804 688 l 804 628 l 792 628 b 621 700 756 675 728 700 l 301 700 b 63 464 149 700 63 611 l 63 228 b 301 -7 63 81 149 -7 l 621 -7 b 792 65 728 -7 756 18 l 804 65 l 804 -225 b 824 -246 804 -239 814 -246 z m 318 143 b 229 231 264 143 229 172 l 229 463 b 318 551 229 521 264 551 l 726 551 b 804 463 772 551 804 521 l 804 231 b 726 143 804 172 772 143 z "},"r":{"ha":1029,"x_min":0,"x_max":0,"o":"m 90 0 l 215 0 b 236 21 229 0 236 7 l 236 463 b 329 551 236 521 268 551 l 694 551 b 793 501 749 551 781 539 b 822 479 797 488 804 479 l 924 479 b 960 517 950 479 960 492 b 733 700 960 643 888 700 l 419 700 b 249 628 313 700 285 675 l 236 628 l 236 674 b 217 694 236 688 226 694 l 90 694 b 69 674 76 694 69 688 l 69 21 b 90 0 69 7 76 0 z "},"ŕ":{"ha":1029,"x_min":0,"x_max":0,"o":"m 533 947 l 461 788 b 474 763 453 771 458 763 l 579 763 b 614 788 593 763 606 774 l 738 947 b 731 972 750 963 744 972 l 563 972 b 533 947 549 972 542 964 z m 90 0 l 215 0 b 236 21 229 0 236 7 l 236 463 b 329 551 236 521 268 551 l 694 551 b 793 501 749 551 781 539 b 822 479 797 488 804 479 l 924 479 b 960 517 950 479 960 492 b 733 700 960 643 888 700 l 419 700 b 249 628 313 700 285 675 l 236 628 l 236 674 b 217 694 236 688 226 694 l 90 694 b 69 674 76 694 69 688 l 69 21 b 90 0 69 7 76 0 z "},"ř":{"ha":1029,"x_min":0,"x_max":0,"o":"m 454 763 l 588 763 b 626 782 603 763 615 769 l 769 946 b 758 972 781 958 772 972 l 639 972 b 596 946 619 972 610 963 l 528 867 l 514 867 l 447 946 b 404 972 433 963 424 972 l 285 972 b 274 946 271 972 263 958 l 417 782 b 454 763 428 768 439 763 z m 90 0 l 215 0 b 236 21 229 0 236 7 l 236 463 b 329 551 236 521 268 551 l 694 551 b 793 501 749 551 781 539 b 822 479 797 488 804 479 l 924 479 b 960 517 950 479 960 492 b 733 700 960 643 888 700 l 419 700 b 249 628 313 700 285 675 l 236 628 l 236 674 b 217 694 236 688 226 694 l 90 694 b 69 674 76 694 69 688 l 69 21 b 90 0 69 7 76 0 z "},"ŗ":{"ha":1029,"x_min":0,"x_max":0,"o":"m 90 0 l 215 0 b 236 21 229 0 236 7 l 236 463 b 329 551 236 521 268 551 l 694 551 b 793 501 749 551 781 539 b 822 479 797 488 804 479 l 924 479 b 960 517 950 479 960 492 b 733 700 960 643 888 700 l 419 700 b 249 628 313 700 285 675 l 236 628 l 236 674 b 217 694 236 688 226 694 l 90 694 b 69 674 76 694 69 688 l 69 21 b 90 0 69 7 76 0 z m 208 -83 l 104 -83 b 83 -104 90 -83 83 -90 l 83 -342 l 24 -342 b 3 -362 10 -342 3 -349 l 3 -460 b 24 -481 3 -474 10 -481 l 181 -481 b 229 -431 213 -481 229 -464 l 229 -104 b 208 -83 229 -90 222 -83 z "},"s":{"ha":1036,"x_min":0,"x_max":0,"o":"m 288 0 l 735 0 b 974 208 879 0 974 57 b 731 406 974 351 888 399 l 306 424 b 229 489 247 426 229 450 b 300 549 229 526 254 549 l 689 549 b 786 500 742 549 775 535 b 821 478 790 486 803 478 l 924 478 b 953 517 950 478 953 490 b 728 694 953 639 882 694 l 300 694 b 63 492 157 694 63 636 b 306 288 63 342 147 294 l 731 269 b 807 207 789 267 807 244 b 735 147 807 167 782 147 l 326 147 b 229 194 274 147 240 160 b 200 217 225 208 218 217 l 97 217 b 63 179 71 217 63 204 b 288 0 63 56 133 0 z "},"ś":{"ha":1036,"x_min":0,"x_max":0,"o":"m 531 947 l 458 788 b 471 763 450 771 456 763 l 576 763 b 611 788 590 763 603 774 l 735 947 b 728 972 747 963 742 972 l 560 972 b 531 947 546 972 539 964 z m 288 0 l 735 0 b 974 208 879 0 974 57 b 731 406 974 351 888 399 l 306 424 b 229 489 247 426 229 450 b 300 549 229 526 254 549 l 689 549 b 786 500 742 549 775 535 b 821 478 790 486 803 478 l 924 478 b 953 517 950 478 953 490 b 728 694 953 639 882 694 l 300 694 b 63 492 157 694 63 636 b 306 288 63 342 147 294 l 731 269 b 807 207 789 267 807 244 b 735 147 807 167 782 147 l 326 147 b 229 194 274 147 240 160 b 200 217 225 208 218 217 l 97 217 b 63 179 71 217 63 204 b 288 0 63 56 133 0 z "},"š":{"ha":1036,"x_min":0,"x_max":0,"o":"m 451 763 l 585 763 b 624 782 600 763 613 769 l 767 946 b 756 972 778 958 769 972 l 636 972 b 593 946 617 972 607 963 l 525 867 l 511 867 l 444 946 b 401 972 431 963 421 972 l 282 972 b 271 946 268 972 260 958 l 414 782 b 451 763 425 768 436 763 z m 288 0 l 735 0 b 974 208 879 0 974 57 b 731 406 974 351 888 399 l 306 424 b 229 489 247 426 229 450 b 300 549 229 526 254 549 l 689 549 b 786 500 742 549 775 535 b 821 478 790 486 803 478 l 924 478 b 953 517 950 478 953 490 b 728 694 953 639 882 694 l 300 694 b 63 492 157 694 63 636 b 306 288 63 342 147 294 l 731 269 b 807 207 789 267 807 244 b 735 147 807 167 782 147 l 326 147 b 229 194 274 147 240 160 b 200 217 225 208 218 217 l 97 217 b 63 179 71 217 63 204 b 288 0 63 56 133 0 z "},"ş":{"ha":1036,"x_min":0,"x_max":0,"o":"m 622 0 l 735 0 b 974 208 879 0 974 57 b 731 406 974 351 888 399 l 306 424 b 229 489 247 426 229 450 b 300 549 229 526 254 549 l 689 549 b 786 500 742 549 775 535 b 821 478 790 486 803 478 l 924 478 b 953 517 950 478 953 490 b 728 694 953 639 882 694 l 300 694 b 63 492 157 694 63 636 b 306 288 63 342 147 294 l 731 269 b 807 207 789 267 807 244 b 735 147 807 167 782 147 l 326 147 b 229 194 274 147 240 160 b 200 217 225 208 218 217 l 97 217 b 63 179 71 217 63 204 b 288 0 63 56 133 0 l 475 0 b 414 -82 432 -40 414 -56 b 469 -131 414 -115 439 -128 b 611 -167 588 -142 611 -144 b 568 -189 611 -185 594 -189 l 540 -189 b 500 -168 517 -189 504 -179 b 485 -154 499 -160 493 -154 l 386 -154 b 372 -172 375 -154 372 -161 b 494 -285 372 -240 403 -285 l 604 -285 b 739 -165 694 -285 739 -242 b 614 -46 739 -79 707 -56 b 622 0 582 -43 553 -37 z "},"ș":{"ha":1036,"x_min":0,"x_max":0,"o":"m 288 0 l 735 0 b 974 208 879 0 974 57 b 731 406 974 351 888 399 l 306 424 b 229 489 247 426 229 450 b 300 549 229 526 254 549 l 689 549 b 786 500 742 549 775 535 b 821 478 790 486 803 478 l 924 478 b 953 517 950 478 953 490 b 728 694 953 639 882 694 l 300 694 b 63 492 157 694 63 636 b 306 288 63 342 147 294 l 731 269 b 807 207 789 267 807 244 b 735 147 807 167 782 147 l 326 147 b 229 194 274 147 240 160 b 200 217 225 208 218 217 l 97 217 b 63 179 71 217 63 204 b 288 0 63 56 133 0 z m 572 -83 l 468 -83 b 447 -104 454 -83 447 -90 l 447 -342 l 388 -342 b 367 -362 374 -342 367 -349 l 367 -460 b 388 -481 367 -474 374 -481 l 544 -481 b 593 -431 576 -481 593 -464 l 593 -104 b 572 -83 593 -90 586 -83 z "},"ß":{"ha":1308,"x_min":0,"x_max":0,"o":"m 1099 519 b 1204 690 1183 540 1204 614 l 1204 753 b 965 978 1204 893 1104 978 l 332 978 b 90 754 185 978 90 893 l 92 21 b 113 0 92 7 99 0 l 238 0 b 258 21 251 0 258 7 l 260 754 b 332 828 260 807 286 828 l 965 828 b 1038 753 1022 828 1038 807 l 1038 681 b 957 590 1038 628 1022 590 l 414 590 b 393 569 400 590 393 583 l 393 463 b 414 442 393 449 400 442 l 957 442 b 1079 324 1042 442 1079 406 l 1079 264 b 956 150 1079 164 1039 150 l 414 150 b 393 129 400 150 393 143 l 393 21 b 414 0 393 7 400 0 l 956 0 b 1246 249 1158 0 1246 76 l 1246 321 b 1099 519 1246 432 1197 494 z "},"t":{"ha":803,"x_min":0,"x_max":0,"o":"m 418 0 l 719 0 b 740 21 729 0 740 7 l 740 129 b 718 150 740 143 733 150 l 436 150 b 346 238 381 150 346 179 l 346 546 l 719 546 b 740 567 729 546 740 553 l 740 674 b 718 694 740 688 733 694 l 346 694 l 346 783 b 325 804 346 797 339 804 l 200 804 b 179 783 186 804 179 797 l 179 694 l 63 694 b 42 672 49 694 42 688 l 42 567 b 63 546 42 553 49 546 l 179 546 l 179 236 b 418 0 179 89 265 0 z "},"ŧ":{"ha":810,"x_min":0,"x_max":0,"o":"m 726 450 l 346 450 l 346 546 l 719 546 b 740 567 729 546 740 553 l 740 674 b 718 694 740 688 733 694 l 346 694 l 346 783 b 325 804 346 797 339 804 l 200 804 b 179 783 186 804 179 797 l 179 694 l 63 694 b 42 672 49 694 42 688 l 42 567 b 63 546 42 553 49 546 l 179 546 l 179 450 l 69 450 b 49 429 56 450 49 443 l 49 321 b 69 300 49 307 56 300 l 179 300 l 179 236 b 418 0 179 89 265 0 l 719 0 b 740 21 729 0 740 7 l 740 129 b 718 150 740 143 733 150 l 436 150 b 346 238 381 150 346 179 l 346 300 l 726 300 b 747 321 739 300 747 307 l 747 429 b 726 450 747 443 739 450 z "},"ť":{"ha":803,"x_min":0,"x_max":0,"o":"m 606 1143 l 501 1143 b 481 1122 488 1143 481 1136 l 481 885 l 421 885 b 400 864 407 885 400 878 l 400 767 b 421 746 400 753 407 746 l 578 746 b 626 794 610 746 626 763 l 626 1122 b 606 1143 626 1136 619 1143 z m 418 0 l 719 0 b 740 21 729 0 740 7 l 740 129 b 718 150 740 143 733 150 l 436 150 b 346 238 381 150 346 179 l 346 546 l 719 546 b 740 567 729 546 740 553 l 740 674 b 718 694 740 688 733 694 l 346 694 l 346 783 b 325 804 346 797 339 804 l 200 804 b 179 783 186 804 179 797 l 179 694 l 63 694 b 42 672 49 694 42 688 l 42 567 b 63 546 42 553 49 546 l 179 546 l 179 236 b 418 0 179 89 265 0 z "},"ţ":{"ha":803,"x_min":0,"x_max":0,"o":"m 719 546 b 740 567 729 546 740 553 l 740 674 b 718 694 740 688 733 694 l 346 694 l 346 783 b 325 804 346 797 339 804 l 200 804 b 179 783 186 804 179 797 l 179 694 l 63 694 b 42 672 49 694 42 688 l 42 567 b 63 546 42 553 49 546 l 179 546 l 179 236 b 418 0 179 89 265 0 l 451 0 b 390 -82 408 -40 390 -56 b 446 -131 390 -115 415 -128 b 588 -167 564 -142 588 -144 b 544 -189 588 -185 571 -189 l 517 -189 b 476 -168 493 -189 481 -179 b 461 -154 475 -160 469 -154 l 363 -154 b 349 -172 351 -154 349 -161 b 471 -285 349 -240 379 -285 l 581 -285 b 715 -165 671 -285 715 -242 b 590 -46 715 -79 683 -56 b 599 0 558 -43 529 -37 l 719 0 b 740 21 729 0 740 7 l 740 129 b 718 150 740 143 733 150 l 436 150 b 346 238 381 150 346 179 l 346 546 z "},"ț":{"ha":803,"x_min":0,"x_max":0,"o":"m 418 0 l 719 0 b 740 21 729 0 740 7 l 740 129 b 718 150 740 143 733 150 l 436 150 b 346 238 381 150 346 179 l 346 546 l 719 546 b 740 567 729 546 740 553 l 740 674 b 718 694 740 688 733 694 l 346 694 l 346 783 b 325 804 346 797 339 804 l 200 804 b 179 783 186 804 179 797 l 179 694 l 63 694 b 42 672 49 694 42 688 l 42 567 b 63 546 42 553 49 546 l 179 546 l 179 236 b 418 0 179 89 265 0 z m 501 -83 l 397 -83 b 376 -104 383 -83 376 -90 l 376 -342 l 317 -342 b 296 -362 303 -342 296 -349 l 296 -460 b 317 -481 296 -474 303 -481 l 474 -481 b 522 -431 506 -481 522 -464 l 522 -104 b 501 -83 522 -90 515 -83 z "},"u":{"ha":1047,"x_min":0,"x_max":0,"o":"m 957 694 l 832 694 b 811 674 818 694 811 688 l 811 232 b 718 144 811 174 779 144 l 332 144 b 236 232 272 144 236 174 l 236 674 b 215 694 236 688 229 694 l 90 694 b 69 674 76 694 69 688 l 69 229 b 308 -6 69 82 157 -6 l 628 -6 b 799 67 735 -6 763 19 l 811 67 l 811 21 b 831 0 811 7 821 0 l 957 0 b 978 21 971 0 978 7 l 978 674 b 957 694 978 688 971 694 z "},"ú":{"ha":1047,"x_min":0,"x_max":0,"o":"m 536 947 l 464 788 b 476 763 456 771 461 763 l 582 763 b 617 788 596 763 608 774 l 740 947 b 733 972 753 963 747 972 l 565 972 b 536 947 551 972 544 964 z m 957 694 l 832 694 b 811 674 818 694 811 688 l 811 232 b 718 144 811 174 779 144 l 332 144 b 236 232 272 144 236 174 l 236 674 b 215 694 236 688 229 694 l 90 694 b 69 674 76 694 69 688 l 69 229 b 308 -6 69 82 157 -6 l 628 -6 b 799 67 735 -6 763 19 l 811 67 l 811 21 b 831 0 811 7 821 0 l 957 0 b 978 21 971 0 978 7 l 978 674 b 957 694 978 688 971 694 z "},"ŭ":{"ha":1047,"x_min":0,"x_max":0,"o":"m 482 754 l 565 754 b 756 951 696 754 756 818 b 735 972 756 965 749 972 l 640 972 b 619 951 626 972 621 965 b 542 869 615 907 600 869 l 506 869 b 428 951 447 869 432 907 b 407 972 426 965 421 972 l 313 972 b 292 951 299 972 292 965 b 482 754 292 818 351 754 z m 957 694 l 832 694 b 811 674 818 694 811 688 l 811 232 b 718 144 811 174 779 144 l 332 144 b 236 232 272 144 236 174 l 236 674 b 215 694 236 688 229 694 l 90 694 b 69 674 76 694 69 688 l 69 229 b 308 -6 69 82 157 -6 l 628 -6 b 799 67 735 -6 763 19 l 811 67 l 811 21 b 831 0 811 7 821 0 l 957 0 b 978 21 971 0 978 7 l 978 674 b 957 694 978 688 971 694 z "},"ǔ":{"ha":1047,"x_min":0,"x_max":0,"o":"m 457 763 l 590 763 b 629 782 606 763 618 769 l 772 946 b 761 972 783 958 775 972 l 642 972 b 599 946 622 972 613 963 l 531 867 l 517 867 l 450 946 b 407 972 436 963 426 972 l 288 972 b 276 946 274 972 265 958 l 419 782 b 457 763 431 768 442 763 z m 957 694 l 832 694 b 811 674 818 694 811 688 l 811 232 b 718 144 811 174 779 144 l 332 144 b 236 232 272 144 236 174 l 236 674 b 215 694 236 688 229 694 l 90 694 b 69 674 76 694 69 688 l 69 229 b 308 -6 69 82 157 -6 l 628 -6 b 799 67 735 -6 763 19 l 811 67 l 811 21 b 831 0 811 7 821 0 l 957 0 b 978 21 971 0 978 7 l 978 674 b 957 694 978 688 971 694 z "},"û":{"ha":1047,"x_min":0,"x_max":0,"o":"m 457 972 b 419 953 442 972 431 967 l 276 789 b 288 763 265 776 274 763 l 407 763 b 450 789 426 763 436 772 l 517 868 l 531 868 l 599 789 b 642 763 613 772 622 763 l 761 763 b 772 789 775 763 783 776 l 629 953 b 590 972 618 965 606 972 z m 957 694 l 832 694 b 811 674 818 694 811 688 l 811 232 b 718 144 811 174 779 144 l 332 144 b 236 232 272 144 236 174 l 236 674 b 215 694 236 688 229 694 l 90 694 b 69 674 76 694 69 688 l 69 229 b 308 -6 69 82 157 -6 l 628 -6 b 799 67 735 -6 763 19 l 811 67 l 811 21 b 831 0 811 7 821 0 l 957 0 b 978 21 971 0 978 7 l 978 674 b 957 694 978 688 971 694 z "},"ü":{"ha":1047,"x_min":0,"x_max":0,"o":"m 274 800 l 404 800 b 425 821 418 800 425 807 l 425 951 b 404 972 425 965 418 972 l 274 972 b 253 951 260 972 253 965 l 253 821 b 274 800 253 807 260 800 z m 621 800 l 750 800 b 772 821 764 800 772 807 l 772 951 b 750 972 772 965 764 972 l 621 972 b 600 951 607 972 600 965 l 600 821 b 621 800 600 807 607 800 z m 957 694 l 832 694 b 811 674 818 694 811 688 l 811 232 b 718 144 811 174 779 144 l 332 144 b 236 232 272 144 236 174 l 236 674 b 215 694 236 688 229 694 l 90 694 b 69 674 76 694 69 688 l 69 229 b 308 -6 69 82 157 -6 l 628 -6 b 799 67 735 -6 763 19 l 811 67 l 811 21 b 831 0 811 7 821 0 l 957 0 b 978 21 971 0 978 7 l 978 674 b 957 694 978 688 971 694 z "},"ù":{"ha":1047,"x_min":0,"x_max":0,"o":"m 514 947 b 485 972 506 964 499 972 l 324 972 b 310 947 308 972 297 963 l 433 788 b 467 763 443 774 453 763 l 572 763 b 586 788 588 763 594 771 z m 957 694 l 832 694 b 811 674 818 694 811 688 l 811 232 b 718 144 811 174 779 144 l 332 144 b 236 232 272 144 236 174 l 236 674 b 215 694 236 688 229 694 l 90 694 b 69 674 76 694 69 688 l 69 229 b 308 -6 69 82 157 -6 l 628 -6 b 799 67 735 -6 763 19 l 811 67 l 811 21 b 831 0 811 7 821 0 l 957 0 b 978 21 971 0 978 7 l 978 674 b 957 694 978 688 971 694 z "},"ű":{"ha":1047,"x_min":0,"x_max":0,"o":"m 397 947 l 325 788 b 338 763 317 771 322 763 l 443 763 b 478 788 457 763 469 774 l 601 947 b 594 972 614 963 608 972 l 426 972 b 397 947 413 972 406 964 z m 661 947 l 589 788 b 601 763 581 771 586 763 l 707 763 b 742 788 721 763 732 774 l 865 947 b 858 972 878 963 872 972 l 690 972 b 661 947 676 972 669 964 z m 957 694 l 832 694 b 811 674 818 694 811 688 l 811 232 b 718 144 811 174 779 144 l 332 144 b 236 232 272 144 236 174 l 236 674 b 215 694 236 688 229 694 l 90 694 b 69 674 76 694 69 688 l 69 229 b 308 -6 69 82 157 -6 l 628 -6 b 799 67 735 -6 763 19 l 811 67 l 811 21 b 831 0 811 7 821 0 l 957 0 b 978 21 971 0 978 7 l 978 674 b 957 694 978 688 971 694 z "},"ū":{"ha":1047,"x_min":0,"x_max":0,"o":"m 299 822 l 749 822 b 769 843 761 822 769 829 l 769 951 b 749 972 769 965 761 972 l 299 972 b 278 951 285 972 278 965 l 278 843 b 299 822 278 829 285 822 z m 957 694 l 832 694 b 811 674 818 694 811 688 l 811 232 b 718 144 811 174 779 144 l 332 144 b 236 232 272 144 236 174 l 236 674 b 215 694 236 688 229 694 l 90 694 b 69 674 76 694 69 688 l 69 229 b 308 -6 69 82 157 -6 l 628 -6 b 799 67 735 -6 763 19 l 811 67 l 811 21 b 831 0 811 7 821 0 l 957 0 b 978 21 971 0 978 7 l 978 674 b 957 694 978 688 971 694 z "},"ų":{"ha":1047,"x_min":0,"x_max":0,"o":"m 957 694 l 832 694 b 811 674 818 694 811 688 l 811 232 b 718 144 811 174 779 144 l 332 144 b 236 232 272 144 236 174 l 236 674 b 215 694 236 688 229 694 l 90 694 b 69 674 76 694 69 688 l 69 229 b 308 -6 69 82 157 -6 l 475 -6 b 410 -36 469 -25 453 -32 b 283 -150 333 -46 283 -56 b 422 -261 283 -240 333 -261 l 601 -261 b 615 -247 611 -261 615 -256 l 615 -172 b 601 -156 615 -162 610 -156 l 425 -156 b 400 -146 410 -156 400 -153 b 418 -132 400 -137 403 -133 l 535 -119 b 643 -6 593 -112 636 -92 b 799 67 738 -3 764 22 l 811 67 l 811 21 b 831 0 811 7 821 0 l 957 0 b 978 21 971 0 978 7 l 978 674 b 957 694 978 688 971 694 z "},"ů":{"ha":1047,"x_min":0,"x_max":0,"o":"m 532 994 l 514 994 b 397 878 446 994 397 943 l 397 863 b 514 747 397 797 446 747 l 532 747 b 649 863 600 747 649 797 l 649 878 b 532 994 649 943 600 994 z m 560 876 l 560 867 b 529 836 560 850 547 836 l 517 836 b 488 867 500 836 488 850 l 488 876 b 517 906 488 892 500 906 l 529 906 b 560 876 547 906 560 892 z m 957 694 l 832 694 b 811 674 818 694 811 688 l 811 232 b 718 144 811 174 779 144 l 332 144 b 236 232 272 144 236 174 l 236 674 b 215 694 236 688 229 694 l 90 694 b 69 674 76 694 69 688 l 69 229 b 308 -6 69 82 157 -6 l 628 -6 b 799 67 735 -6 763 19 l 811 67 l 811 21 b 831 0 811 7 821 0 l 957 0 b 978 21 971 0 978 7 l 978 674 b 957 694 978 688 971 694 z "},"ũ":{"ha":1047,"x_min":0,"x_max":0,"o":"m 615 778 b 753 824 663 778 704 788 b 765 856 764 832 771 840 l 731 943 b 704 950 726 951 717 957 b 619 922 669 931 653 922 b 432 979 550 922 528 979 b 294 933 386 979 344 969 b 282 901 283 925 276 917 l 318 814 b 344 808 322 806 331 799 b 428 835 376 828 394 835 b 615 778 499 835 519 778 z m 957 694 l 832 694 b 811 674 818 694 811 688 l 811 232 b 718 144 811 174 779 144 l 332 144 b 236 232 272 144 236 174 l 236 674 b 215 694 236 688 229 694 l 90 694 b 69 674 76 694 69 688 l 69 229 b 308 -6 69 82 157 -6 l 628 -6 b 799 67 735 -6 763 19 l 811 67 l 811 21 b 831 0 811 7 821 0 l 957 0 b 978 21 971 0 978 7 l 978 674 b 957 694 978 688 971 694 z "},"v":{"ha":1129,"x_min":0,"x_max":0,"o":"m 51 671 l 469 28 b 503 0 482 8 486 0 l 626 0 b 660 28 643 0 647 8 l 1078 671 b 1060 694 1088 686 1074 694 l 917 694 b 882 671 901 694 893 688 l 572 199 l 556 199 l 246 671 b 211 694 235 688 226 694 l 68 694 b 51 671 54 694 42 686 z "},"w":{"ha":1819,"x_min":0,"x_max":0,"o":"m 1751 694 l 1610 694 b 1575 671 1594 694 1585 688 l 1304 201 l 1288 201 l 1015 671 b 981 694 1006 688 996 694 l 839 694 b 804 671 824 694 814 688 l 532 201 l 515 201 l 244 671 b 210 694 235 688 225 694 l 68 694 b 51 671 54 694 43 686 l 428 28 b 461 0 439 8 444 0 l 583 0 b 617 28 600 0 606 8 l 911 524 l 1203 28 b 1236 0 1214 8 1219 0 l 1358 0 b 1392 28 1375 0 1381 8 l 1768 671 b 1751 694 1776 686 1765 694 z "},"ẃ":{"ha":1819,"x_min":0,"x_max":0,"o":"m 922 947 l 850 788 b 863 763 842 771 847 763 l 968 763 b 1003 788 982 763 994 774 l 1126 947 b 1119 972 1139 963 1133 972 l 951 972 b 922 947 938 972 931 964 z m 1751 694 l 1610 694 b 1575 671 1594 694 1585 688 l 1304 201 l 1288 201 l 1015 671 b 981 694 1006 688 996 694 l 839 694 b 804 671 824 694 814 688 l 532 201 l 515 201 l 244 671 b 210 694 235 688 225 694 l 68 694 b 51 671 54 694 43 686 l 428 28 b 461 0 439 8 444 0 l 583 0 b 617 28 600 0 606 8 l 911 524 l 1203 28 b 1236 0 1214 8 1219 0 l 1358 0 b 1392 28 1375 0 1381 8 l 1768 671 b 1751 694 1776 686 1765 694 z "},"ŵ":{"ha":1819,"x_min":0,"x_max":0,"o":"m 843 972 b 806 953 828 972 817 967 l 663 789 b 674 763 651 776 660 763 l 793 763 b 836 789 813 763 822 772 l 903 868 l 917 868 l 985 789 b 1028 763 999 772 1008 763 l 1147 763 b 1158 789 1161 763 1169 776 l 1015 953 b 976 972 1004 965 992 972 z m 1751 694 l 1610 694 b 1575 671 1594 694 1585 688 l 1304 201 l 1288 201 l 1015 671 b 981 694 1006 688 996 694 l 839 694 b 804 671 824 694 814 688 l 532 201 l 515 201 l 244 671 b 210 694 235 688 225 694 l 68 694 b 51 671 54 694 43 686 l 428 28 b 461 0 439 8 444 0 l 583 0 b 617 28 600 0 606 8 l 911 524 l 1203 28 b 1236 0 1214 8 1219 0 l 1358 0 b 1392 28 1375 0 1381 8 l 1768 671 b 1751 694 1776 686 1765 694 z "},"ẅ":{"ha":1819,"x_min":0,"x_max":0,"o":"m 660 800 l 790 800 b 811 821 804 800 811 807 l 811 951 b 790 972 811 965 804 972 l 660 972 b 639 951 646 972 639 965 l 639 821 b 660 800 639 807 646 800 z m 1007 800 l 1136 800 b 1158 821 1150 800 1158 807 l 1158 951 b 1136 972 1158 965 1150 972 l 1007 972 b 986 951 993 972 986 965 l 986 821 b 1007 800 986 807 993 800 z m 1751 694 l 1610 694 b 1575 671 1594 694 1585 688 l 1304 201 l 1288 201 l 1015 671 b 981 694 1006 688 996 694 l 839 694 b 804 671 824 694 814 688 l 532 201 l 515 201 l 244 671 b 210 694 235 688 225 694 l 68 694 b 51 671 54 694 43 686 l 428 28 b 461 0 439 8 444 0 l 583 0 b 617 28 600 0 606 8 l 911 524 l 1203 28 b 1236 0 1214 8 1219 0 l 1358 0 b 1392 28 1375 0 1381 8 l 1768 671 b 1751 694 1776 686 1765 694 z "},"ẁ":{"ha":1819,"x_min":0,"x_max":0,"o":"m 900 947 b 871 972 892 964 885 972 l 710 972 b 696 947 694 972 683 963 l 819 788 b 853 763 829 774 839 763 l 958 763 b 972 788 974 763 981 771 z m 1751 694 l 1610 694 b 1575 671 1594 694 1585 688 l 1304 201 l 1288 201 l 1015 671 b 981 694 1006 688 996 694 l 839 694 b 804 671 824 694 814 688 l 532 201 l 515 201 l 244 671 b 210 694 235 688 225 694 l 68 694 b 51 671 54 694 43 686 l 428 28 b 461 0 439 8 444 0 l 583 0 b 617 28 600 0 606 8 l 911 524 l 1203 28 b 1236 0 1214 8 1219 0 l 1358 0 b 1392 28 1375 0 1381 8 l 1768 671 b 1751 694 1776 686 1765 694 z "},"x":{"ha":1014,"x_min":0,"x_max":0,"o":"m 618 347 l 958 668 b 944 694 972 681 961 694 l 783 694 b 739 669 772 694 760 689 l 507 451 l 275 669 b 231 694 254 689 242 694 l 68 694 b 56 668 51 694 42 681 l 396 347 l 56 26 b 69 0 40 13 53 0 l 232 0 b 276 25 243 0 256 6 l 507 243 l 738 25 b 782 0 758 6 771 0 l 943 0 b 958 26 960 0 972 13 z "},"y":{"ha":1129,"x_min":0,"x_max":0,"o":"m 1060 694 l 917 694 b 882 671 901 694 893 688 l 572 199 l 556 199 l 246 671 b 211 694 235 688 226 694 l 68 694 b 51 671 54 694 42 686 l 465 33 l 296 -228 b 313 -251 286 -243 299 -251 l 456 -251 b 492 -228 471 -251 479 -244 l 650 13 b 660 28 653 17 656 22 l 1078 671 b 1060 694 1088 686 1074 694 z "},"ý":{"ha":1129,"x_min":0,"x_max":0,"o":"m 515 763 l 621 763 b 656 788 635 763 647 774 l 779 947 b 772 972 792 963 786 972 l 604 972 b 575 947 590 972 583 964 l 503 788 b 515 763 494 771 500 763 z m 1060 694 l 917 694 b 882 671 901 694 893 688 l 572 199 l 556 199 l 246 671 b 211 694 235 688 226 694 l 68 694 b 51 671 54 694 42 686 l 465 33 l 296 -228 b 313 -251 286 -243 299 -251 l 456 -251 b 492 -228 471 -251 479 -244 l 650 13 b 660 28 653 17 656 22 l 1078 671 b 1060 694 1088 686 1074 694 z "},"ŷ":{"ha":1129,"x_min":0,"x_max":0,"o":"m 328 763 l 447 763 b 490 789 467 763 476 772 l 557 868 l 571 868 l 639 789 b 682 763 653 772 663 763 l 801 763 b 813 789 815 763 824 776 l 669 953 b 631 972 658 965 646 972 l 497 972 b 460 953 482 972 471 967 l 317 789 b 328 763 306 776 314 763 z m 1060 694 l 917 694 b 882 671 901 694 893 688 l 572 199 l 556 199 l 246 671 b 211 694 235 688 226 694 l 68 694 b 51 671 54 694 42 686 l 465 33 l 296 -228 b 313 -251 286 -243 299 -251 l 456 -251 b 492 -228 471 -251 479 -244 l 650 13 b 660 28 653 17 656 22 l 1078 671 b 1060 694 1088 686 1074 694 z "},"ÿ":{"ha":1129,"x_min":0,"x_max":0,"o":"m 314 800 l 444 800 b 465 821 458 800 465 807 l 465 951 b 444 972 465 965 458 972 l 314 972 b 293 951 300 972 293 965 l 293 821 b 314 800 293 807 300 800 z m 661 800 l 790 800 b 813 821 804 800 813 807 l 813 951 b 790 972 813 965 804 972 l 661 972 b 640 951 647 972 640 965 l 640 821 b 661 800 640 807 647 800 z m 1060 694 l 917 694 b 882 671 901 694 893 688 l 572 199 l 556 199 l 246 671 b 211 694 235 688 226 694 l 68 694 b 51 671 54 694 42 686 l 465 33 l 296 -228 b 313 -251 286 -243 299 -251 l 456 -251 b 492 -228 471 -251 479 -244 l 650 13 b 660 28 653 17 656 22 l 1078 671 b 1060 694 1088 686 1074 694 z "},"ỳ":{"ha":1129,"x_min":0,"x_max":0,"o":"m 474 788 b 507 763 483 774 493 763 l 613 763 b 626 788 628 763 635 771 l 554 947 b 525 972 546 964 539 972 l 364 972 b 350 947 349 972 338 963 z m 1060 694 l 917 694 b 882 671 901 694 893 688 l 572 199 l 556 199 l 246 671 b 211 694 235 688 226 694 l 68 694 b 51 671 54 694 42 686 l 465 33 l 296 -228 b 313 -251 286 -243 299 -251 l 456 -251 b 492 -228 471 -251 479 -244 l 650 13 b 660 28 653 17 656 22 l 1078 671 b 1060 694 1088 686 1074 694 z "},"z":{"ha":965,"x_min":0,"x_max":0,"o":"m 910 551 l 910 674 b 888 694 910 688 903 694 l 81 694 b 60 672 67 694 60 688 l 60 561 b 81 540 60 547 67 540 l 636 540 l 636 528 l 69 172 b 56 143 60 165 56 157 l 56 21 b 76 0 56 7 63 0 l 889 0 b 910 21 903 0 910 7 l 910 133 b 888 154 910 147 903 154 l 329 154 l 329 167 l 896 522 b 910 551 906 529 910 539 z "},"ź":{"ha":965,"x_min":0,"x_max":0,"o":"m 501 947 l 429 788 b 442 763 421 771 426 763 l 547 763 b 582 788 561 763 574 774 l 706 947 b 699 972 718 963 713 972 l 531 972 b 501 947 517 972 510 964 z m 910 551 l 910 674 b 888 694 910 688 903 694 l 81 694 b 60 672 67 694 60 688 l 60 561 b 81 540 60 547 67 540 l 636 540 l 636 528 l 69 172 b 56 143 60 165 56 157 l 56 21 b 76 0 56 7 63 0 l 889 0 b 910 21 903 0 910 7 l 910 133 b 888 154 910 147 903 154 l 329 154 l 329 167 l 896 522 b 910 551 906 529 910 539 z "},"ž":{"ha":965,"x_min":0,"x_max":0,"o":"m 424 763 l 557 763 b 596 782 572 763 585 769 l 739 946 b 728 972 750 958 742 972 l 608 972 b 565 946 589 972 579 963 l 497 867 l 483 867 l 417 946 b 374 972 403 963 393 972 l 254 972 b 243 946 240 972 232 958 l 386 782 b 424 763 397 768 408 763 z m 910 551 l 910 674 b 888 694 910 688 903 694 l 81 694 b 60 672 67 694 60 688 l 60 561 b 81 540 60 547 67 540 l 636 540 l 636 528 l 69 172 b 56 143 60 165 56 157 l 56 21 b 76 0 56 7 63 0 l 889 0 b 910 21 903 0 910 7 l 910 133 b 888 154 910 147 903 154 l 329 154 l 329 167 l 896 522 b 910 551 906 529 910 539 z "},"ż":{"ha":965,"x_min":0,"x_max":0,"o":"m 425 800 l 556 800 b 576 821 569 800 576 807 l 576 951 b 556 972 576 965 569 972 l 425 972 b 404 951 411 972 404 965 l 404 821 b 425 800 404 807 411 800 z m 910 551 l 910 674 b 888 694 910 688 903 694 l 81 694 b 60 672 67 694 60 688 l 60 561 b 81 540 60 547 67 540 l 636 540 l 636 528 l 69 172 b 56 143 60 165 56 157 l 56 21 b 76 0 56 7 63 0 l 889 0 b 910 21 903 0 910 7 l 910 133 b 888 154 910 147 903 154 l 329 154 l 329 167 l 896 522 b 910 551 906 529 910 539 z "},"ﬁ":{"ha":1144,"x_min":0,"x_max":0,"o":"m 1053 694 l 317 694 l 317 735 b 407 824 317 793 353 824 l 782 824 b 803 844 796 824 803 831 l 803 951 b 782 972 803 965 796 972 l 389 972 b 150 738 236 972 150 885 l 150 694 l 76 694 b 56 674 63 694 56 688 l 56 567 b 76 546 56 553 63 546 l 150 546 l 150 21 b 171 0 150 7 157 0 l 296 0 b 317 21 310 0 317 7 l 317 546 l 908 546 l 908 21 b 929 0 908 7 915 0 l 1053 0 b 1075 21 1067 0 1075 7 l 1075 674 b 1053 694 1075 688 1067 694 z m 1053 972 l 929 972 b 908 951 915 972 908 965 l 908 831 b 929 810 908 817 915 810 l 1053 810 b 1075 831 1067 810 1075 817 l 1075 951 b 1053 972 1075 965 1067 972 z "},"ﬂ":{"ha":1136,"x_min":0,"x_max":0,"o":"m 1046 972 l 389 972 b 150 738 236 972 150 885 l 150 694 l 76 694 b 56 674 63 694 56 688 l 56 567 b 76 546 56 553 63 546 l 150 546 l 150 21 b 171 0 150 7 157 0 l 296 0 b 317 21 310 0 317 7 l 317 546 l 768 546 b 789 567 782 546 789 553 l 789 674 b 768 694 789 688 782 694 l 317 694 l 317 735 b 407 824 317 793 353 824 l 900 824 l 900 21 b 921 0 900 7 907 0 l 1046 0 b 1067 21 1060 0 1067 7 l 1067 951 b 1046 972 1067 965 1060 972 z "},"ª":{"ha":447,"x_min":0,"x_max":0,"o":"m 253 979 l 225 979 b 100 947 175 979 133 967 b 94 925 93 943 92 933 l 111 885 b 132 879 115 875 124 876 b 214 894 158 889 186 894 l 236 894 b 292 842 271 894 292 881 l 188 842 b 69 732 107 842 69 804 b 188 624 69 656 118 624 l 206 624 b 292 661 236 624 265 639 l 292 640 b 307 624 292 628 297 624 l 361 624 b 378 640 371 624 378 628 l 378 842 b 253 979 378 925 331 979 z m 221 707 l 197 707 b 158 733 172 707 158 715 b 197 758 158 751 172 758 l 292 758 l 292 724 b 221 707 274 714 251 707 z "},"º":{"ha":472,"x_min":0,"x_max":0,"o":"m 260 979 l 213 979 b 69 832 128 979 69 917 l 69 772 b 213 624 69 685 128 624 l 260 624 b 403 772 343 624 403 685 l 403 832 b 260 979 403 917 343 979 z m 315 826 l 315 779 b 258 713 315 743 290 713 l 215 713 b 157 779 181 713 157 743 l 157 826 b 215 890 157 863 181 890 l 258 890 b 315 826 290 890 315 863 z "},"А":{"ha":1522,"x_min":0,"x_max":0,"o":"m 1463 26 l 864 950 b 833 972 856 964 849 972 l 689 972 b 660 950 675 972 668 964 l 60 26 b 72 0 49 10 58 0 l 226 0 b 258 24 242 0 249 8 l 351 167 l 1172 167 l 1265 24 b 1296 0 1275 8 1281 0 l 1450 0 b 1463 26 1464 0 1474 10 z m 447 317 l 753 789 l 769 789 l 1075 317 z "},"Б":{"ha":1335,"x_min":0,"x_max":0,"o":"m 1008 665 l 264 665 l 264 825 l 783 825 b 804 838 797 825 804 832 l 804 951 b 783 972 804 965 797 972 l 111 972 b 90 951 97 972 90 965 l 90 21 b 111 0 90 7 97 0 l 1008 0 b 1258 251 1181 0 1258 90 l 1258 414 b 1008 665 1258 575 1181 665 z m 1085 265 b 971 154 1085 185 1050 154 l 264 154 l 264 511 l 971 511 b 1085 400 1050 511 1085 481 z "},"В":{"ha":1371,"x_min":0,"x_max":0,"o":"m 1168 497 l 1168 514 b 1260 699 1235 547 1260 610 l 1260 725 b 1001 972 1260 896 1178 972 l 111 972 b 90 951 97 972 90 965 l 90 21 b 111 0 90 7 97 0 l 1006 0 b 1294 261 1201 0 1294 88 l 1294 313 b 1168 497 1294 404 1254 465 z m 1089 707 l 1089 678 b 979 567 1089 586 1047 567 l 264 567 l 264 818 l 979 818 b 1089 707 1047 818 1089 804 z m 1124 267 b 994 154 1124 176 1079 154 l 264 154 l 264 428 l 994 428 b 1124 313 1079 428 1124 401 z "},"Г":{"ha":1272,"x_min":0,"x_max":0,"o":"m 1188 972 l 111 972 b 90 951 97 972 90 965 l 90 21 b 111 0 90 7 97 0 l 240 0 b 261 21 254 0 261 7 l 261 818 l 1188 818 b 1210 839 1201 818 1210 825 l 1210 951 b 1188 972 1210 965 1201 972 z "},"Ѓ":{"ha":1272,"x_min":0,"x_max":0,"o":"m 596 1040 l 701 1040 b 736 1065 715 1040 728 1051 l 860 1225 b 853 1250 872 1240 867 1250 l 685 1250 b 656 1225 671 1250 664 1242 l 583 1065 b 596 1040 575 1049 581 1040 z m 1188 972 l 111 972 b 90 951 97 972 90 965 l 90 21 b 111 0 90 7 97 0 l 240 0 b 261 21 254 0 261 7 l 261 818 l 1188 818 b 1210 839 1201 818 1210 825 l 1210 951 b 1188 972 1210 965 1201 972 z "},"Ґ":{"ha":1272,"x_min":0,"x_max":0,"o":"m 1188 1057 l 1060 1057 b 1039 1035 1046 1057 1039 1049 l 1039 972 l 111 972 b 90 951 97 972 90 965 l 90 21 b 111 0 90 7 97 0 l 240 0 b 261 21 254 0 261 7 l 261 818 l 1188 818 b 1210 839 1201 818 1210 825 l 1210 1035 b 1188 1057 1210 1049 1201 1057 z "},"Д":{"ha":1489,"x_min":0,"x_max":0,"o":"m 1440 154 l 1375 154 l 1375 951 b 1354 972 1375 965 1368 972 l 210 972 b 189 951 196 972 189 965 l 189 418 b 79 154 189 235 138 154 l 49 154 b 28 133 35 154 28 147 l 28 -114 b 49 -135 28 -128 35 -135 l 178 -135 b 199 -114 192 -135 199 -128 l 199 0 l 1290 0 l 1290 -114 b 1311 -135 1290 -128 1297 -135 l 1439 -135 b 1461 -114 1453 -135 1461 -128 l 1461 133 b 1440 154 1461 147 1454 154 z m 300 154 b 360 418 342 207 360 292 l 360 818 l 1204 818 l 1204 154 z "},"Е":{"ha":1300,"x_min":0,"x_max":0,"o":"m 1203 154 l 264 154 l 264 410 l 1182 410 b 1203 431 1196 410 1203 417 l 1203 542 b 1182 563 1203 556 1196 563 l 264 563 l 264 818 l 1196 818 b 1217 839 1210 818 1217 825 l 1217 951 b 1196 972 1217 965 1210 972 l 111 972 b 90 951 97 972 90 965 l 90 21 b 111 0 90 7 97 0 l 1203 0 b 1224 21 1217 0 1224 7 l 1224 133 b 1203 154 1224 147 1217 154 z "},"Ё":{"ha":1300,"x_min":0,"x_max":0,"o":"m 414 1078 l 544 1078 b 565 1099 558 1078 565 1085 l 565 1229 b 544 1250 565 1243 558 1250 l 414 1250 b 393 1229 400 1250 393 1243 l 393 1099 b 414 1078 393 1085 400 1078 z m 761 1078 l 890 1078 b 913 1099 904 1078 913 1085 l 913 1229 b 890 1250 913 1243 904 1250 l 761 1250 b 740 1229 747 1250 740 1243 l 740 1099 b 761 1078 740 1085 747 1078 z m 1203 154 l 264 154 l 264 410 l 1182 410 b 1203 431 1196 410 1203 417 l 1203 542 b 1182 563 1203 556 1196 563 l 264 563 l 264 818 l 1196 818 b 1217 839 1210 818 1217 825 l 1217 951 b 1196 972 1217 965 1210 972 l 111 972 b 90 951 97 972 90 965 l 90 21 b 111 0 90 7 97 0 l 1203 0 b 1224 21 1217 0 1224 7 l 1224 133 b 1203 154 1224 147 1217 154 z "},"Ж":{"ha":2417,"x_min":0,"x_max":0,"o":"m 2363 33 l 1722 565 l 2322 938 b 2317 972 2342 950 2333 972 l 2132 972 b 2074 950 2110 972 2092 961 l 1296 474 l 1296 951 b 1275 972 1296 965 1289 972 l 1142 972 b 1121 951 1128 972 1121 965 l 1121 475 l 344 950 b 285 972 326 961 307 972 l 100 972 b 94 938 83 972 75 950 l 696 565 l 56 33 b 67 0 43 22 46 0 l 232 0 b 281 22 253 0 264 8 l 833 481 l 1121 301 l 1121 21 b 1142 0 1121 7 1128 0 l 1275 0 b 1296 21 1289 0 1296 7 l 1296 301 l 1585 479 l 2138 22 b 2185 0 2154 8 2165 0 l 2350 0 b 2363 33 2372 0 2374 22 z "},"З":{"ha":1314,"x_min":0,"x_max":0,"o":"m 1083 493 l 1083 507 b 1235 713 1183 532 1235 574 b 956 979 1235 864 1160 979 l 369 979 b 74 721 167 979 74 896 l 74 694 b 94 672 74 679 81 672 l 219 672 b 240 694 233 672 240 679 b 371 831 240 796 286 831 l 947 831 b 1068 713 1026 831 1068 789 b 928 574 1068 632 1053 574 l 344 574 b 321 551 329 574 321 567 l 321 449 b 344 425 321 433 329 425 l 928 425 b 1085 263 1053 425 1085 371 b 964 143 1085 186 1043 143 l 360 143 b 229 279 275 143 229 176 b 208 300 229 293 222 300 l 83 300 b 63 279 69 300 63 293 l 63 251 b 358 -7 63 76 156 -7 l 972 -7 b 1251 263 1176 -7 1251 111 b 1083 493 1251 432 1183 471 z "},"И":{"ha":1392,"x_min":0,"x_max":0,"o":"m 1281 0 b 1301 21 1294 0 1301 7 l 1301 951 b 1281 972 1301 965 1294 972 l 1115 972 b 1086 957 1103 972 1097 967 l 281 201 l 265 201 l 265 951 b 244 972 265 965 258 972 l 113 972 b 92 951 99 972 92 965 l 92 21 b 113 0 92 7 99 0 l 276 0 b 306 15 289 0 294 6 l 1113 771 l 1128 771 l 1128 21 b 1149 0 1128 7 1135 0 z "},"Й":{"ha":1392,"x_min":0,"x_max":0,"o":"m 636 1032 l 719 1032 b 910 1229 850 1032 910 1096 b 889 1250 910 1243 903 1250 l 794 1250 b 774 1229 781 1250 775 1243 b 696 1147 769 1185 754 1147 l 660 1147 b 582 1229 601 1147 586 1185 b 561 1250 581 1243 575 1250 l 467 1250 b 446 1229 453 1250 446 1243 b 636 1032 446 1096 506 1032 z m 1281 0 b 1301 21 1294 0 1301 7 l 1301 951 b 1281 972 1301 965 1294 972 l 1115 972 b 1086 957 1103 972 1097 967 l 281 201 l 265 201 l 265 951 b 244 972 265 965 258 972 l 113 972 b 92 951 99 972 92 965 l 92 21 b 113 0 92 7 99 0 l 276 0 b 306 15 289 0 294 6 l 1113 771 l 1128 771 l 1128 21 b 1149 0 1128 7 1135 0 z "},"Ѝ":{"ha":1392,"x_min":0,"x_max":0,"o":"m 668 1225 b 639 1250 660 1242 653 1250 l 478 1250 b 464 1225 463 1250 451 1240 l 588 1065 b 621 1040 597 1051 607 1040 l 726 1040 b 740 1065 742 1040 749 1049 z m 1281 0 b 1301 21 1294 0 1301 7 l 1301 951 b 1281 972 1301 965 1294 972 l 1115 972 b 1086 957 1103 972 1097 967 l 281 201 l 265 201 l 265 951 b 244 972 265 965 258 972 l 113 972 b 92 951 99 972 92 965 l 92 21 b 113 0 92 7 99 0 l 276 0 b 306 15 289 0 294 6 l 1113 771 l 1128 771 l 1128 21 b 1149 0 1128 7 1135 0 z "},"К":{"ha":1385,"x_min":0,"x_max":0,"o":"m 1329 33 l 689 565 l 1290 938 b 1285 972 1310 950 1301 972 l 1100 972 b 1040 950 1078 972 1060 961 l 264 474 l 264 951 b 243 972 264 965 257 972 l 111 972 b 90 951 97 972 90 965 l 90 21 b 111 0 90 7 97 0 l 243 0 b 264 21 257 0 264 7 l 264 301 l 553 479 l 1106 22 b 1153 0 1122 8 1133 0 l 1318 0 b 1329 33 1339 0 1342 22 z "},"Ќ":{"ha":1385,"x_min":0,"x_max":0,"o":"m 624 1040 l 729 1040 b 764 1065 743 1040 756 1051 l 888 1225 b 881 1250 900 1240 894 1250 l 713 1250 b 683 1225 699 1250 692 1242 l 611 1065 b 624 1040 603 1049 608 1040 z m 1329 33 l 689 565 l 1290 938 b 1285 972 1310 950 1301 972 l 1100 972 b 1040 950 1078 972 1060 961 l 264 474 l 264 951 b 243 972 264 965 257 972 l 111 972 b 90 951 97 972 90 965 l 90 21 b 111 0 90 7 97 0 l 243 0 b 264 21 257 0 264 7 l 264 301 l 553 479 l 1106 22 b 1153 0 1122 8 1133 0 l 1318 0 b 1329 33 1339 0 1342 22 z "},"Л":{"ha":1494,"x_min":0,"x_max":0,"o":"m 1383 972 l 217 972 b 196 951 203 972 196 965 l 196 276 b 100 171 196 188 150 171 b 76 150 88 171 76 165 l 76 17 b 99 -6 76 3 83 -6 l 156 -6 b 367 214 278 -6 367 58 l 367 818 l 1233 818 l 1233 21 b 1254 0 1233 7 1240 0 l 1382 0 b 1404 21 1396 0 1404 7 l 1404 951 b 1383 972 1404 965 1397 972 z "},"М":{"ha":1629,"x_min":0,"x_max":0,"o":"m 111 0 l 243 0 b 264 21 257 0 264 7 l 264 746 l 278 746 l 724 21 b 754 0 732 7 740 0 l 874 0 b 906 21 889 0 897 7 l 1351 746 l 1365 746 l 1365 21 b 1386 0 1365 7 1372 0 l 1518 0 b 1539 21 1532 0 1539 7 l 1539 951 b 1518 972 1539 965 1532 972 l 1317 972 b 1288 951 1303 972 1296 965 l 822 197 l 806 197 l 342 951 b 313 972 333 965 326 972 l 111 972 b 90 951 97 972 90 965 l 90 21 b 111 0 90 7 97 0 z "},"Н":{"ha":1378,"x_min":0,"x_max":0,"o":"m 1265 972 l 1133 972 b 1113 951 1119 972 1113 965 l 1113 563 l 264 563 l 264 951 b 243 972 264 965 257 972 l 111 972 b 90 951 97 972 90 965 l 90 21 b 111 0 90 7 97 0 l 243 0 b 264 21 257 0 264 7 l 264 410 l 1113 410 l 1113 21 b 1133 0 1113 7 1119 0 l 1265 0 b 1288 21 1279 0 1288 7 l 1288 951 b 1265 972 1288 965 1279 972 z "},"О":{"ha":1417,"x_min":0,"x_max":0,"o":"m 340 -6 l 1076 -6 b 1333 246 1249 -6 1333 85 l 1333 726 b 1076 978 1333 888 1249 978 l 340 978 b 83 726 168 978 83 888 l 83 246 b 340 -6 83 85 168 -6 z m 378 149 b 257 260 300 149 257 179 l 257 713 b 378 824 257 793 300 824 l 1039 824 b 1160 713 1118 824 1160 793 l 1160 260 b 1039 149 1160 179 1118 149 z "},"П":{"ha":1388,"x_min":0,"x_max":0,"o":"m 1276 972 l 111 972 b 90 951 97 972 90 965 l 90 21 b 111 0 90 7 97 0 l 240 0 b 261 21 254 0 261 7 l 261 818 l 1126 818 l 1126 21 b 1149 0 1126 7 1135 0 l 1276 0 b 1297 21 1290 0 1297 7 l 1297 951 b 1276 972 1297 965 1290 972 z "},"Р":{"ha":1342,"x_min":0,"x_max":0,"o":"m 1008 972 l 111 972 b 90 951 97 972 90 965 l 90 21 b 111 0 90 7 97 0 l 243 0 b 264 21 257 0 264 7 l 264 207 l 1008 207 b 1258 458 1181 207 1258 297 l 1258 721 b 1008 972 1258 882 1181 972 z m 1085 472 b 971 360 1085 392 1050 360 l 264 360 l 264 818 l 971 818 b 1085 707 1050 818 1085 788 z "},"С":{"ha":1410,"x_min":0,"x_max":0,"o":"m 1181 643 l 1313 643 b 1333 665 1326 643 1333 651 l 1333 726 b 1085 978 1333 888 1257 978 l 340 978 b 83 726 168 978 83 888 l 83 246 b 340 -6 83 85 168 -6 l 1085 -6 b 1333 242 1257 -6 1333 83 l 1333 274 b 1313 296 1333 288 1326 296 l 1181 296 b 1160 274 1167 296 1160 288 l 1160 256 b 1050 149 1160 178 1128 149 l 378 149 b 257 260 300 149 257 179 l 257 713 b 378 824 257 793 300 824 l 1050 824 b 1160 713 1128 824 1160 793 l 1160 665 b 1181 643 1160 651 1167 643 z "},"Т":{"ha":1349,"x_min":0,"x_max":0,"o":"m 1264 972 l 83 972 b 63 951 69 972 63 965 l 63 839 b 83 818 63 825 69 818 l 589 818 l 589 21 b 610 0 589 7 596 0 l 739 0 b 760 21 753 0 760 7 l 760 818 l 1264 818 b 1286 839 1278 818 1286 825 l 1286 951 b 1264 972 1286 965 1278 972 z "},"У":{"ha":1254,"x_min":0,"x_max":0,"o":"m 1179 972 l 1039 972 b 1003 949 1022 972 1014 964 l 626 464 l 250 949 b 214 972 239 964 231 972 l 74 972 b 60 949 60 972 49 963 l 532 342 l 285 24 b 300 0 274 10 285 0 l 439 0 b 475 24 456 0 464 8 l 1194 949 b 1179 972 1206 963 1193 972 z "},"Ў":{"ha":1254,"x_min":0,"x_max":0,"o":"m 583 1032 l 667 1032 b 857 1229 797 1032 857 1096 b 836 1250 857 1243 850 1250 l 742 1250 b 721 1229 728 1250 722 1243 b 643 1147 717 1185 701 1147 l 607 1147 b 529 1229 549 1147 533 1185 b 508 1250 528 1243 522 1250 l 414 1250 b 393 1229 400 1250 393 1243 b 583 1032 393 1096 453 1032 z m 1179 972 l 1039 972 b 1003 949 1022 972 1014 964 l 626 464 l 250 949 b 214 972 239 964 231 972 l 74 972 b 60 949 60 972 49 963 l 532 342 l 285 24 b 300 0 274 10 285 0 l 439 0 b 475 24 456 0 464 8 l 1194 949 b 1179 972 1206 963 1193 972 z "},"Ф":{"ha":1417,"x_min":0,"x_max":0,"o":"m 1076 839 l 796 839 l 796 951 b 775 972 796 965 789 972 l 643 972 b 622 951 629 972 622 965 l 622 839 l 340 839 b 83 588 168 839 83 749 l 83 385 b 340 133 83 224 168 133 l 622 133 l 622 21 b 643 0 622 7 629 0 l 775 0 b 796 21 789 0 796 7 l 796 133 l 1076 133 b 1333 385 1249 133 1333 224 l 1333 588 b 1076 839 1333 749 1249 839 z m 378 288 b 257 399 300 288 257 318 l 257 574 b 378 685 257 654 300 685 l 622 685 l 622 288 z m 1160 399 b 1039 288 1160 318 1118 288 l 796 288 l 796 685 l 1039 685 b 1160 574 1118 685 1160 654 z "},"Х":{"ha":1392,"x_min":0,"x_max":0,"o":"m 1324 31 l 813 486 l 1324 942 b 1317 972 1347 963 1331 972 l 1139 972 b 1099 951 1125 972 1115 967 l 696 592 l 292 951 b 251 972 276 965 265 972 l 72 972 b 68 942 58 972 44 963 l 578 486 l 68 31 b 72 0 44 10 58 0 l 251 0 b 292 22 265 0 276 8 l 696 382 l 1099 22 b 1139 0 1115 7 1126 0 l 1318 0 b 1324 31 1332 0 1347 10 z "},"Ч":{"ha":1418,"x_min":0,"x_max":0,"o":"m 1306 972 l 1174 972 b 1153 951 1160 972 1153 965 l 1153 469 b 1033 357 1153 389 1111 357 l 385 357 b 264 469 307 357 264 389 l 264 951 b 243 972 264 965 257 972 l 111 972 b 90 951 97 972 90 965 l 90 456 b 347 204 90 294 175 204 l 983 204 b 1153 258 1063 204 1117 224 l 1153 21 b 1174 0 1153 7 1160 0 l 1306 0 b 1328 21 1319 0 1328 7 l 1328 951 b 1306 972 1328 965 1319 972 z "},"Ц":{"ha":1425,"x_min":0,"x_max":0,"o":"m 1363 154 l 1297 154 l 1297 951 b 1276 972 1297 965 1290 972 l 1149 972 b 1126 951 1135 972 1126 965 l 1126 154 l 261 154 l 261 951 b 240 972 261 965 254 972 l 111 972 b 90 951 97 972 90 965 l 90 21 b 111 0 90 7 97 0 l 1213 0 l 1213 -114 b 1233 -135 1213 -128 1219 -135 l 1363 -135 b 1383 -114 1376 -135 1383 -128 l 1383 133 b 1363 154 1383 147 1376 154 z "},"Ш":{"ha":1796,"x_min":0,"x_max":0,"o":"m 111 0 l 1685 0 b 1706 21 1699 0 1706 7 l 1706 951 b 1685 972 1706 965 1699 972 l 1556 972 b 1535 951 1542 972 1535 965 l 1535 154 l 983 154 l 983 951 b 963 972 983 965 976 972 l 833 972 b 813 951 819 972 813 965 l 813 154 l 261 154 l 261 951 b 240 972 261 965 254 972 l 111 972 b 90 951 97 972 90 965 l 90 21 b 111 0 90 7 97 0 z "},"Щ":{"ha":1833,"x_min":0,"x_max":0,"o":"m 1771 154 l 1706 154 l 1706 951 b 1685 972 1706 965 1699 972 l 1556 972 b 1535 951 1542 972 1535 965 l 1535 154 l 983 154 l 983 951 b 963 972 983 965 976 972 l 833 972 b 813 951 819 972 813 965 l 813 154 l 261 154 l 261 951 b 240 972 261 965 254 972 l 111 972 b 90 951 97 972 90 965 l 90 21 b 111 0 90 7 97 0 l 1621 0 l 1621 -114 b 1642 -135 1621 -128 1628 -135 l 1769 -135 b 1792 -114 1783 -135 1792 -128 l 1792 133 b 1771 154 1792 147 1785 154 z "},"Ь":{"ha":1342,"x_min":0,"x_max":0,"o":"m 1008 765 l 264 765 l 264 951 b 243 972 264 965 257 972 l 111 972 b 90 951 97 972 90 965 l 90 21 b 111 0 90 7 97 0 l 1008 0 b 1258 251 1181 0 1258 90 l 1258 514 b 1008 765 1258 675 1181 765 z m 1085 265 b 971 154 1085 185 1050 154 l 264 154 l 264 613 l 971 613 b 1085 500 1050 613 1085 581 z "},"Ъ":{"ha":1467,"x_min":0,"x_max":0,"o":"m 1133 765 l 389 765 l 389 951 b 368 972 389 965 382 972 l 63 972 b 42 951 49 972 42 965 l 42 829 b 63 808 42 815 49 808 l 215 808 l 215 21 b 236 0 215 7 222 0 l 1133 0 b 1383 251 1306 0 1383 90 l 1383 514 b 1133 765 1383 675 1306 765 z m 1208 265 b 1096 154 1208 185 1174 154 l 389 154 l 389 613 l 1096 613 b 1208 500 1174 613 1208 581 z "},"Ы":{"ha":1696,"x_min":0,"x_max":0,"o":"m 1008 765 l 264 765 l 264 951 b 243 972 264 965 257 972 l 111 972 b 90 951 97 972 90 965 l 90 21 b 111 0 90 7 97 0 l 1008 0 b 1258 251 1181 0 1258 90 l 1258 514 b 1008 765 1258 675 1181 765 z m 1585 972 l 1453 972 b 1432 951 1439 972 1432 965 l 1432 21 b 1453 0 1432 7 1439 0 l 1585 0 b 1606 21 1599 0 1606 7 l 1606 951 b 1585 972 1606 965 1599 972 z m 1085 265 b 971 154 1085 185 1050 154 l 264 154 l 264 613 l 971 613 b 1085 500 1050 613 1085 581 z "},"Є":{"ha":1410,"x_min":0,"x_max":0,"o":"m 1181 643 l 1313 643 b 1333 665 1326 643 1333 651 l 1333 726 b 1085 978 1333 888 1257 978 l 340 978 b 83 726 168 978 83 888 l 83 246 b 340 -6 83 85 168 -6 l 1085 -6 b 1333 242 1257 -6 1333 83 l 1333 274 b 1313 296 1333 288 1326 296 l 1181 296 b 1160 274 1167 296 1160 288 l 1160 256 b 1050 149 1160 178 1128 149 l 378 149 b 257 260 300 149 257 179 l 257 411 l 617 411 b 638 432 631 411 638 418 l 638 540 b 617 561 638 554 631 561 l 257 561 l 257 713 b 378 824 257 793 300 824 l 1050 824 b 1160 713 1128 824 1160 793 l 1160 665 b 1181 643 1160 651 1167 643 z "},"Э":{"ha":1411,"x_min":0,"x_max":0,"o":"m 1069 978 l 325 978 b 76 726 153 978 76 888 l 76 665 b 97 643 76 651 83 643 l 229 643 b 250 665 243 643 250 651 l 250 713 b 361 824 250 793 282 824 l 1032 824 b 1153 713 1111 824 1153 793 l 1153 561 l 793 561 b 772 540 779 561 772 554 l 772 432 b 793 411 772 418 779 411 l 1153 411 l 1153 260 b 1032 149 1153 179 1111 149 l 361 149 b 250 256 282 149 250 178 l 250 274 b 229 296 250 288 243 296 l 97 296 b 76 274 83 296 76 288 l 76 242 b 325 -6 76 83 153 -6 l 1069 -6 b 1326 246 1242 -6 1326 85 l 1326 726 b 1069 978 1326 888 1242 978 z "},"І":{"ha":354,"x_min":0,"x_max":0,"o":"m 90 951 l 90 21 b 111 0 90 7 97 0 l 243 0 b 264 21 257 0 264 7 l 264 951 b 243 972 264 965 257 972 l 111 972 b 90 951 97 972 90 965 z "},"Ї":{"ha":354,"x_min":0,"x_max":0,"o":"m -74 1078 l 57 1078 b 78 1099 71 1078 78 1085 l 78 1229 b 57 1250 78 1243 71 1250 l -74 1250 b -94 1229 -87 1250 -94 1243 l -94 1099 b -74 1078 -94 1085 -87 1078 z m 274 1078 l 403 1078 b 425 1099 417 1078 425 1085 l 425 1229 b 403 1250 425 1243 417 1250 l 274 1250 b 253 1229 260 1250 253 1243 l 253 1099 b 274 1078 253 1085 260 1078 z m 90 951 l 90 21 b 111 0 90 7 97 0 l 243 0 b 264 21 257 0 264 7 l 264 951 b 243 972 264 965 257 972 l 111 972 b 90 951 97 972 90 965 z "},"Ј":{"ha":1356,"x_min":0,"x_max":0,"o":"m 97 0 l 1014 0 b 1265 251 1186 0 1265 90 l 1265 951 b 1243 972 1265 965 1257 972 l 1111 972 b 1090 951 1097 972 1090 965 l 1090 265 b 978 154 1090 185 1056 154 l 97 154 b 76 133 83 154 76 147 l 76 21 b 97 0 76 7 83 0 z "},"Ю":{"ha":1782,"x_min":0,"x_max":0,"o":"m 1442 978 l 706 978 b 449 726 533 978 449 888 l 449 575 l 264 575 l 264 951 b 243 972 264 965 257 972 l 111 972 b 90 951 97 972 90 965 l 90 21 b 111 0 90 7 97 0 l 243 0 b 264 21 257 0 264 7 l 264 426 l 449 426 l 449 246 b 706 -6 449 85 533 -6 l 1442 -6 b 1699 246 1614 -6 1699 85 l 1699 726 b 1442 978 1699 888 1614 978 z m 1525 260 b 1404 149 1525 179 1483 149 l 743 149 b 622 260 665 149 622 179 l 622 713 b 743 824 622 793 665 824 l 1404 824 b 1525 713 1483 824 1525 793 z "},"Я":{"ha":1357,"x_min":0,"x_max":0,"o":"m 1244 972 l 347 972 b 97 721 175 972 97 882 l 97 514 b 249 275 97 389 144 306 l 88 32 b 110 0 75 14 89 0 l 232 0 b 265 21 247 0 256 7 l 428 263 l 1092 263 l 1092 21 b 1113 0 1092 7 1099 0 l 1244 0 b 1265 21 1258 0 1265 7 l 1265 951 b 1244 972 1265 965 1258 972 z m 385 417 b 271 529 307 417 271 447 l 271 707 b 385 818 271 788 307 818 l 1092 818 l 1092 417 z "},"Ӏ":{"ha":354,"x_min":0,"x_max":0,"o":"m 90 951 l 90 21 b 111 0 90 7 97 0 l 243 0 b 264 21 257 0 264 7 l 264 951 b 243 972 264 965 257 972 l 111 972 b 90 951 97 972 90 965 z "},"Ӣ":{"ha":1392,"x_min":0,"x_max":0,"o":"m 454 1100 l 904 1100 b 925 1121 917 1100 925 1107 l 925 1229 b 904 1250 925 1243 917 1250 l 454 1250 b 433 1229 440 1250 433 1243 l 433 1121 b 454 1100 433 1107 440 1100 z m 1281 0 b 1301 21 1294 0 1301 7 l 1301 951 b 1281 972 1301 965 1294 972 l 1115 972 b 1086 957 1103 972 1097 967 l 281 201 l 265 201 l 265 951 b 244 972 265 965 258 972 l 113 972 b 92 951 99 972 92 965 l 92 21 b 113 0 92 7 99 0 l 276 0 b 306 15 289 0 294 6 l 1113 771 l 1128 771 l 1128 21 b 1149 0 1128 7 1135 0 z "},"Ө":{"ha":1417,"x_min":0,"x_max":0,"o":"m 1076 978 l 340 978 b 83 726 168 978 83 888 l 83 246 b 340 -6 83 85 168 -6 l 1076 -6 b 1333 246 1249 -6 1333 85 l 1333 726 b 1076 978 1333 888 1249 978 z m 378 824 l 1039 824 b 1160 713 1118 824 1160 793 l 1160 561 l 257 561 l 257 713 b 378 824 257 793 300 824 z m 1039 149 l 378 149 b 257 260 300 149 257 179 l 257 413 l 1160 413 l 1160 260 b 1039 149 1160 179 1118 149 z "},"Ӭ":{"ha":1338,"x_min":0,"x_max":0,"o":"m 431 1078 l 561 1078 b 582 1099 575 1078 582 1085 l 582 1229 b 561 1250 582 1243 575 1250 l 431 1250 b 410 1229 417 1250 410 1243 l 410 1099 b 431 1078 410 1085 417 1078 z m 778 1078 l 907 1078 b 929 1099 921 1078 929 1085 l 929 1229 b 907 1250 929 1243 921 1250 l 778 1250 b 757 1229 764 1250 757 1243 l 757 1099 b 778 1078 757 1085 764 1078 z m 1069 978 l 325 978 b 76 726 153 978 76 888 l 76 665 b 97 643 76 651 83 643 l 229 643 b 250 665 243 643 250 651 l 250 713 b 361 824 250 793 282 824 l 1032 824 b 1153 713 1111 824 1153 793 l 1153 561 l 793 561 b 772 540 779 561 772 554 l 772 432 b 793 411 772 418 779 411 l 1153 411 l 1153 260 b 1032 149 1153 179 1111 149 l 361 149 b 250 256 282 149 250 178 l 250 274 b 229 296 250 288 243 296 l 97 296 b 76 274 83 296 76 288 l 76 242 b 325 -6 76 83 153 -6 l 1069 -6 b 1326 246 1242 -6 1326 85 l 1326 726 b 1069 978 1326 888 1242 978 z "},"Ӯ":{"ha":1254,"x_min":0,"x_max":0,"o":"m 401 1100 l 851 1100 b 872 1121 864 1100 872 1107 l 872 1229 b 851 1250 872 1243 864 1250 l 401 1250 b 381 1229 388 1250 381 1243 l 381 1121 b 401 1100 381 1107 388 1100 z m 1179 972 l 1039 972 b 1003 949 1022 972 1014 964 l 626 464 l 250 949 b 214 972 239 964 231 972 l 74 972 b 60 949 60 972 49 963 l 532 342 l 285 24 b 300 0 274 10 285 0 l 439 0 b 475 24 456 0 464 8 l 1194 949 b 1179 972 1206 963 1193 972 z "},"а":{"ha":1029,"x_min":0,"x_max":0,"o":"m 268 -7 l 582 -7 b 782 93 688 -7 743 39 l 793 93 l 793 21 b 814 0 793 7 800 0 l 939 0 b 960 21 953 0 960 7 l 960 464 b 692 700 960 624 878 700 l 313 700 b 88 519 160 700 88 643 b 124 482 88 494 96 482 l 225 482 b 254 504 243 482 250 490 b 351 554 265 539 299 554 l 664 554 b 793 457 754 554 793 535 l 793 413 l 265 413 b 42 210 110 413 42 351 b 268 -7 42 68 129 -7 z m 272 143 b 207 213 233 143 207 160 b 272 285 207 269 233 285 l 793 285 l 793 231 b 688 143 793 189 782 143 z "},"б":{"ha":1040,"x_min":0,"x_max":0,"o":"m 419 -7 l 739 -7 b 978 229 892 -7 978 82 l 978 465 b 739 700 978 613 892 700 l 419 700 b 249 628 313 700 285 675 l 236 628 l 236 717 b 308 796 236 765 253 796 b 547 789 381 796 493 789 b 743 946 686 789 743 854 b 721 972 743 963 740 972 l 596 972 b 569 964 586 972 575 972 b 474 935 557 943 529 935 b 264 944 418 935 349 944 b 69 736 118 944 69 886 l 69 21 b 90 0 69 7 76 0 l 215 0 b 236 21 229 0 236 7 l 236 65 l 249 65 b 419 -7 285 18 313 -7 z m 314 143 b 236 231 268 143 236 172 l 236 463 b 314 551 236 521 268 551 l 721 551 b 811 463 775 551 811 521 l 811 231 b 721 143 811 172 775 143 z "},"в":{"ha":979,"x_min":0,"x_max":0,"o":"m 90 0 l 699 0 b 917 190 839 0 917 53 b 810 347 917 261 896 318 l 810 358 b 900 500 893 389 900 451 b 696 694 900 644 828 694 l 90 694 b 69 674 76 694 69 688 l 69 21 b 90 0 69 7 76 0 z m 236 419 l 236 549 l 681 549 b 735 485 713 549 735 532 b 678 419 735 436 710 419 z m 236 147 l 236 292 l 683 292 b 751 219 722 292 751 276 b 681 147 751 164 722 147 z "},"г":{"ha":946,"x_min":0,"x_max":0,"o":"m 868 694 l 90 694 b 69 674 76 694 69 688 l 69 21 b 90 0 69 7 76 0 l 215 0 b 236 21 229 0 236 7 l 236 546 l 868 546 b 890 568 882 546 890 554 l 890 674 b 868 694 890 688 882 694 z "},"ѓ":{"ha":946,"x_min":0,"x_max":0,"o":"m 417 763 l 522 763 b 557 788 536 763 549 774 l 681 947 b 674 972 693 963 688 972 l 506 972 b 476 947 492 972 485 964 l 404 788 b 417 763 396 771 401 763 z m 868 694 l 90 694 b 69 674 76 694 69 688 l 69 21 b 90 0 69 7 76 0 l 215 0 b 236 21 229 0 236 7 l 236 546 l 868 546 b 890 568 882 546 890 554 l 890 674 b 868 694 890 688 882 694 z "},"ґ":{"ha":946,"x_min":0,"x_max":0,"o":"m 868 769 l 744 769 b 724 749 731 769 724 763 l 724 694 l 90 694 b 69 674 76 694 69 688 l 69 21 b 90 0 69 7 76 0 l 215 0 b 236 21 229 0 236 7 l 236 546 l 868 546 b 890 568 882 546 890 554 l 890 749 b 868 769 890 763 882 769 z "},"д":{"ha":1238,"x_min":0,"x_max":0,"o":"m 1175 149 l 1094 149 l 1094 674 b 1074 694 1094 688 1088 694 l 231 694 b 210 674 217 694 210 688 l 210 396 b 82 149 210 176 140 149 l 63 149 b 42 128 49 149 42 142 l 42 -86 b 63 -107 42 -100 49 -107 l 188 -107 b 208 -86 201 -107 208 -100 l 208 0 l 1029 0 l 1029 -86 b 1050 -107 1029 -100 1036 -107 l 1175 -107 b 1196 -86 1189 -107 1196 -100 l 1196 128 b 1175 149 1196 142 1189 149 z m 321 149 b 376 364 354 200 376 269 l 376 546 l 928 546 l 928 149 z "},"е":{"ha":1018,"x_min":0,"x_max":0,"o":"m 871 286 b 956 371 928 286 956 317 l 956 465 b 717 700 956 613 869 700 l 301 700 b 63 465 149 700 63 613 l 63 229 b 301 -7 63 82 149 -7 l 675 -7 b 940 108 832 -7 893 28 b 932 143 949 122 950 135 l 885 165 b 838 169 864 175 851 175 b 667 140 771 143 757 140 l 325 140 b 229 229 264 140 229 171 l 229 286 z m 325 551 l 694 551 b 789 463 754 551 789 521 l 789 406 l 229 406 l 229 463 b 325 551 229 521 264 551 z "},"ё":{"ha":1018,"x_min":0,"x_max":0,"o":"m 254 800 l 385 800 b 406 821 399 800 406 807 l 406 951 b 385 972 406 965 399 972 l 254 972 b 233 951 240 972 233 965 l 233 821 b 254 800 233 807 240 800 z m 601 800 l 731 800 b 753 821 744 800 753 807 l 753 951 b 731 972 753 965 744 972 l 601 972 b 581 951 588 972 581 965 l 581 821 b 601 800 581 807 588 800 z m 871 286 b 956 371 928 286 956 317 l 956 465 b 717 700 956 613 869 700 l 301 700 b 63 465 149 700 63 613 l 63 229 b 301 -7 63 82 149 -7 l 675 -7 b 940 108 832 -7 893 28 b 932 143 949 122 950 135 l 885 165 b 838 169 864 175 851 175 b 667 140 771 143 757 140 l 325 140 b 229 229 264 140 229 171 l 229 286 z m 325 551 l 694 551 b 789 463 754 551 789 521 l 789 406 l 229 406 l 229 463 b 325 551 229 521 264 551 z "},"ж":{"ha":1439,"x_min":0,"x_max":0,"o":"m 60 0 l 228 0 b 276 18 243 0 257 6 l 636 246 l 636 22 b 657 0 636 7 643 0 l 782 0 b 803 22 796 0 803 7 l 803 246 l 1161 18 b 1210 0 1181 6 1194 0 l 1378 0 b 1389 36 1400 0 1403 28 l 886 350 l 1369 658 b 1367 694 1392 672 1383 694 l 1193 694 b 1150 679 1178 694 1167 690 l 803 453 l 803 672 b 782 694 803 688 796 694 l 657 694 b 636 672 643 694 636 688 l 636 453 l 289 679 b 244 694 272 690 261 694 l 72 694 b 69 658 56 694 47 672 l 553 350 l 50 36 b 60 0 36 28 39 0 z "},"з":{"ha":1038,"x_min":0,"x_max":0,"o":"m 267 -8 l 757 -8 b 975 182 886 -8 975 64 b 881 340 975 250 961 314 l 881 354 b 969 503 961 379 969 433 b 757 697 969 618 886 697 l 267 697 b 63 490 139 697 63 632 b 78 474 63 479 67 474 l 218 474 b 233 490 228 474 233 479 b 303 547 233 524 250 547 l 724 547 b 799 482 764 547 799 538 b 739 411 799 429 785 411 l 279 411 b 264 396 269 411 264 407 l 264 296 b 279 281 264 285 269 281 l 739 281 b 796 206 785 281 796 250 b 724 142 796 151 765 142 l 303 142 b 233 189 254 142 233 158 b 218 206 233 201 228 206 l 78 206 b 63 189 67 206 63 201 b 267 -8 63 49 139 -8 z "},"и":{"ha":1101,"x_min":0,"x_max":0,"o":"m 90 694 b 69 674 76 694 69 688 l 69 21 b 90 0 69 7 76 0 l 257 0 b 289 15 269 0 278 6 l 849 524 l 861 524 l 861 21 b 882 0 861 7 868 0 l 1011 0 b 1032 21 1025 0 1032 7 l 1032 674 b 1011 694 1032 688 1025 694 l 844 694 b 813 679 832 694 824 689 l 253 171 l 240 171 l 240 674 b 219 694 240 688 233 694 z "},"й":{"ha":1101,"x_min":0,"x_max":0,"o":"m 508 754 l 592 754 b 782 951 722 754 782 818 b 761 972 782 965 775 972 l 667 972 b 646 951 653 972 647 965 b 568 869 642 907 626 869 l 532 869 b 454 951 474 869 458 907 b 433 972 453 965 447 972 l 339 972 b 318 951 325 972 318 965 b 508 754 318 818 378 754 z m 90 694 b 69 674 76 694 69 688 l 69 21 b 90 0 69 7 76 0 l 257 0 b 289 15 269 0 278 6 l 849 524 l 861 524 l 861 21 b 882 0 861 7 868 0 l 1011 0 b 1032 21 1025 0 1032 7 l 1032 674 b 1011 694 1032 688 1025 694 l 844 694 b 813 679 832 694 824 689 l 253 171 l 240 171 l 240 674 b 219 694 240 688 233 694 z "},"ѝ":{"ha":1101,"x_min":0,"x_max":0,"o":"m 540 947 b 511 972 532 964 525 972 l 350 972 b 336 947 335 972 324 963 l 460 788 b 493 763 469 774 479 763 l 599 763 b 613 788 614 763 621 771 z m 90 694 b 69 674 76 694 69 688 l 69 21 b 90 0 69 7 76 0 l 257 0 b 289 15 269 0 278 6 l 849 524 l 861 524 l 861 21 b 882 0 861 7 868 0 l 1011 0 b 1032 21 1025 0 1032 7 l 1032 674 b 1011 694 1032 688 1025 694 l 844 694 b 813 679 832 694 824 689 l 253 171 l 240 171 l 240 674 b 219 694 240 688 233 694 z "},"к":{"ha":872,"x_min":0,"x_max":0,"o":"m 822 36 l 319 350 l 803 658 b 800 694 825 672 817 694 l 626 694 b 583 679 611 694 600 690 l 236 453 l 236 672 b 215 694 236 688 229 694 l 90 694 b 69 672 76 694 69 688 l 69 22 b 90 0 69 7 76 0 l 215 0 b 236 22 229 0 236 7 l 236 246 l 594 18 b 644 0 615 6 629 0 l 813 0 b 822 36 833 0 836 28 z "},"ќ":{"ha":872,"x_min":0,"x_max":0,"o":"m 450 947 l 378 788 b 390 763 369 771 375 763 l 496 763 b 531 788 510 763 522 774 l 654 947 b 647 972 667 963 661 972 l 479 972 b 450 947 465 972 458 964 z m 822 36 l 319 350 l 803 658 b 800 694 825 672 817 694 l 626 694 b 583 679 611 694 600 690 l 236 453 l 236 672 b 215 694 236 688 229 694 l 90 694 b 69 672 76 694 69 688 l 69 22 b 90 0 69 7 76 0 l 215 0 b 236 22 229 0 236 7 l 236 246 l 594 18 b 644 0 615 6 629 0 l 813 0 b 822 36 833 0 836 28 z "},"л":{"ha":1099,"x_min":0,"x_max":0,"o":"m 86 -14 b 283 217 261 -14 283 81 l 283 546 l 863 546 l 863 21 b 883 0 863 7 869 0 l 1007 0 b 1029 21 1021 0 1029 7 l 1029 674 b 1007 694 1029 688 1021 694 l 138 694 b 117 674 124 694 117 688 l 117 214 b 36 133 117 153 92 133 b 0 99 10 133 0 121 l 0 33 b 86 -14 0 0 19 -14 z "},"м":{"ha":1224,"x_min":0,"x_max":0,"o":"m 90 0 l 215 0 b 236 21 229 0 236 7 l 236 476 l 247 476 l 547 75 b 574 60 556 64 560 60 l 650 60 b 676 75 664 60 668 64 l 976 476 l 988 476 l 988 21 b 1008 0 988 7 994 0 l 1133 0 b 1154 21 1147 0 1154 7 l 1154 674 b 1133 694 1154 688 1147 694 l 981 694 b 954 678 969 694 963 689 l 613 226 l 269 678 b 243 694 261 689 254 694 l 90 694 b 69 674 76 694 69 688 l 69 21 b 90 0 69 7 76 0 z "},"н":{"ha":1069,"x_min":0,"x_max":0,"o":"m 978 694 l 854 694 b 833 674 840 694 833 688 l 833 424 l 236 424 l 236 674 b 215 694 236 688 229 694 l 90 694 b 69 674 76 694 69 688 l 69 21 b 90 0 69 7 76 0 l 215 0 b 236 21 229 0 236 7 l 236 271 l 833 271 l 833 21 b 854 0 833 7 840 0 l 978 0 b 1000 21 992 0 1000 7 l 1000 674 b 978 694 1000 688 992 694 z "},"о":{"ha":1033,"x_min":0,"x_max":0,"o":"m 301 -7 l 732 -7 b 971 228 883 -7 971 81 l 971 465 b 732 700 971 613 883 700 l 301 700 b 63 465 149 700 63 613 l 63 229 b 301 -7 63 82 149 -7 z m 325 143 b 229 231 264 143 229 172 l 229 463 b 325 551 229 521 264 551 l 708 551 b 804 463 768 551 804 521 l 804 231 b 708 143 804 172 768 143 z "},"п":{"ha":1085,"x_min":0,"x_max":0,"o":"m 993 694 l 90 694 b 69 674 76 694 69 688 l 69 21 b 88 0 69 7 74 0 l 215 0 b 236 21 229 0 236 7 l 236 546 l 849 546 l 849 21 b 869 0 849 7 856 0 l 993 0 b 1015 21 1007 0 1015 7 l 1015 674 b 993 694 1015 688 1007 694 z "},"р":{"ha":1040,"x_min":0,"x_max":0,"o":"m 217 -246 b 236 -225 226 -246 236 -239 l 236 65 l 249 65 b 421 -7 285 18 313 -7 l 739 -7 b 978 228 892 -7 978 81 l 978 464 b 739 700 978 611 892 700 l 421 700 b 249 628 313 700 285 675 l 236 628 l 236 674 b 215 694 236 688 229 694 l 90 694 b 69 674 76 694 69 688 l 69 -225 b 90 -246 69 -239 76 -246 z m 722 143 l 314 143 b 236 231 269 143 236 172 l 236 463 b 314 551 236 521 269 551 l 722 551 b 811 463 776 551 811 521 l 811 231 b 722 143 811 172 776 143 z "},"с":{"ha":1010,"x_min":0,"x_max":0,"o":"m 301 -7 l 675 -7 b 940 108 832 -7 893 28 b 932 143 949 122 950 135 l 885 165 b 838 169 864 175 851 175 b 667 140 771 143 757 140 l 325 140 b 229 229 264 140 229 171 l 229 463 b 325 551 229 521 264 551 l 701 551 b 792 478 764 551 792 528 l 792 444 b 818 424 792 431 803 424 l 928 424 b 954 449 944 424 954 432 l 954 482 b 724 700 954 621 888 700 l 301 700 b 63 465 149 700 63 613 l 63 229 b 301 -7 63 82 149 -7 z "},"т":{"ha":1015,"x_min":0,"x_max":0,"o":"m 938 694 l 76 694 b 56 674 63 694 56 688 l 56 560 b 76 539 56 546 63 539 l 425 539 l 425 21 b 446 0 425 7 432 0 l 571 0 b 592 21 585 0 592 7 l 592 539 l 938 539 b 960 560 951 539 960 546 l 960 674 b 938 694 960 688 951 694 z "},"у":{"ha":1129,"x_min":0,"x_max":0,"o":"m 1060 694 l 917 694 b 882 671 901 694 893 688 l 572 199 l 556 199 l 246 671 b 211 694 235 688 226 694 l 68 694 b 51 671 54 694 42 686 l 465 33 l 296 -228 b 313 -251 286 -243 299 -251 l 456 -251 b 492 -228 471 -251 479 -244 l 650 13 b 660 28 653 17 656 22 l 1078 671 b 1060 694 1088 686 1074 694 z "},"ў":{"ha":1129,"x_min":0,"x_max":0,"o":"m 522 754 l 606 754 b 796 951 736 754 796 818 b 775 972 796 965 789 972 l 681 972 b 660 951 667 972 661 965 b 582 869 656 907 640 869 l 546 869 b 468 951 488 869 472 907 b 447 972 467 965 461 972 l 353 972 b 332 951 339 972 332 965 b 522 754 332 818 392 754 z m 1060 694 l 917 694 b 882 671 901 694 893 688 l 572 199 l 556 199 l 246 671 b 211 694 235 688 226 694 l 68 694 b 51 671 54 694 42 686 l 465 33 l 296 -228 b 313 -251 286 -243 299 -251 l 456 -251 b 492 -228 471 -251 479 -244 l 650 13 b 660 28 653 17 656 22 l 1078 671 b 1060 694 1088 686 1074 694 z "},"ф":{"ha":1774,"x_min":0,"x_max":0,"o":"m 1474 700 l 1154 700 b 983 628 1047 700 1019 675 l 971 628 l 971 951 b 950 972 971 965 964 972 l 824 972 b 804 951 814 972 804 965 l 804 628 l 792 628 b 621 700 756 675 728 700 l 301 700 b 63 465 149 700 63 613 l 63 229 b 301 -7 63 82 149 -7 l 621 -7 b 792 65 728 -7 756 18 l 804 65 l 804 -225 b 825 -246 804 -239 811 -246 l 951 -246 b 971 -225 961 -246 971 -239 l 971 65 l 983 65 b 1154 -7 1019 18 1047 -7 l 1474 -7 b 1713 228 1626 -7 1713 81 l 1713 464 b 1474 700 1713 611 1626 700 z m 726 143 l 318 143 b 229 231 264 143 229 172 l 229 463 b 318 551 229 521 264 551 l 726 551 b 804 463 772 551 804 521 l 804 231 b 726 143 804 172 772 143 z m 1546 231 b 1456 143 1546 172 1510 143 l 1049 143 b 971 231 1003 143 971 172 l 971 463 b 1049 551 971 521 1003 551 l 1456 551 b 1546 463 1510 551 1546 521 z "},"х":{"ha":1014,"x_min":0,"x_max":0,"o":"m 618 347 l 958 668 b 944 694 972 681 961 694 l 783 694 b 739 669 772 694 760 689 l 507 451 l 275 669 b 231 694 254 689 242 694 l 68 694 b 56 668 51 694 42 681 l 396 347 l 56 26 b 69 0 40 13 53 0 l 232 0 b 276 25 243 0 256 6 l 507 243 l 738 25 b 782 0 758 6 771 0 l 943 0 b 958 26 960 0 972 13 z "},"ч":{"ha":1057,"x_min":0,"x_max":0,"o":"m 965 694 l 842 694 b 821 674 828 694 821 688 l 821 371 b 731 283 821 313 786 283 l 325 283 b 236 371 271 283 236 313 l 236 674 b 215 694 236 688 229 694 l 90 694 b 69 674 76 694 69 688 l 69 369 b 308 133 69 222 156 133 l 685 133 b 821 193 753 133 799 163 l 821 21 b 842 0 821 7 828 0 l 965 0 b 988 21 979 0 988 7 l 988 674 b 965 694 988 688 979 694 z "},"ц":{"ha":1207,"x_min":0,"x_max":0,"o":"m 1131 154 l 1006 154 l 1006 674 b 985 694 1006 688 999 694 l 858 694 b 838 674 844 694 838 688 l 838 154 l 258 154 l 258 674 b 238 694 258 688 251 694 l 111 694 b 90 674 97 694 90 688 l 90 21 b 111 0 90 7 97 0 l 983 0 l 983 -143 b 1004 -164 983 -157 990 -164 l 1131 -164 b 1151 -143 1144 -164 1151 -157 l 1151 133 b 1131 154 1151 147 1144 154 z "},"ш":{"ha":1476,"x_min":0,"x_max":0,"o":"m 1365 694 l 1240 694 b 1219 674 1226 694 1219 688 l 1219 154 l 821 154 l 821 674 b 800 694 821 688 814 694 l 675 694 b 656 674 663 694 656 688 l 656 154 l 257 154 l 257 674 b 236 694 257 688 250 694 l 111 694 b 90 674 97 694 90 688 l 90 21 b 111 0 90 7 97 0 l 1365 0 b 1386 21 1379 0 1386 7 l 1386 674 b 1365 694 1386 688 1379 694 z "},"щ":{"ha":1613,"x_min":0,"x_max":0,"o":"m 1536 154 l 1386 154 l 1386 674 b 1365 694 1386 688 1379 694 l 1240 694 b 1219 674 1226 694 1219 688 l 1219 154 l 821 154 l 821 674 b 800 694 821 688 814 694 l 675 694 b 656 674 663 694 656 688 l 656 154 l 257 154 l 257 674 b 236 694 257 688 250 694 l 111 694 b 90 674 97 694 90 688 l 90 21 b 111 0 90 7 97 0 l 1390 0 l 1390 -143 b 1411 -164 1390 -157 1397 -164 l 1536 -164 b 1557 -143 1550 -164 1557 -157 l 1557 133 b 1536 154 1557 147 1550 154 z "},"ь":{"ha":1015,"x_min":0,"x_max":0,"o":"m 717 431 l 224 431 l 224 674 b 201 694 224 688 215 694 l 90 694 b 69 674 76 694 69 688 l 69 21 b 90 0 69 7 76 0 l 717 0 b 953 215 896 0 953 67 b 717 431 953 351 896 431 z m 719 150 l 224 150 l 224 282 l 719 282 b 800 215 765 282 800 272 b 719 150 800 160 765 150 z "},"ъ":{"ha":1064,"x_min":0,"x_max":0,"o":"m 764 431 l 271 431 l 271 674 b 250 694 271 688 264 694 l 42 694 b 21 674 28 694 21 688 l 21 567 b 42 546 21 553 28 546 l 117 546 l 117 21 b 138 0 117 7 124 0 l 764 0 b 1001 215 943 0 1001 67 b 764 431 1001 351 943 431 z m 767 150 l 271 150 l 271 282 l 767 282 b 847 215 813 282 847 272 b 767 150 847 160 813 150 z "},"ы":{"ha":1296,"x_min":0,"x_max":0,"o":"m 717 431 l 224 431 l 224 674 b 201 694 224 688 215 694 l 90 694 b 69 674 76 694 69 688 l 69 21 b 90 0 69 7 76 0 l 717 0 b 953 215 896 0 953 67 b 717 431 953 351 896 431 z m 1206 694 l 1081 694 b 1060 674 1067 694 1060 688 l 1060 21 b 1081 0 1060 7 1067 0 l 1206 0 b 1226 21 1219 0 1226 7 l 1226 674 b 1206 694 1226 688 1219 694 z m 719 150 l 224 150 l 224 282 l 719 282 b 800 215 765 282 800 272 b 719 150 800 160 765 150 z "},"є":{"ha":1010,"x_min":0,"x_max":0,"o":"m 724 700 l 301 700 b 63 465 149 700 63 613 l 63 229 b 301 -7 63 82 149 -7 l 675 -7 b 940 108 832 -7 893 28 b 932 143 949 122 950 135 l 885 165 b 838 169 864 175 851 175 b 667 140 771 143 757 140 l 325 140 b 229 229 264 140 229 171 l 229 279 l 475 279 b 496 300 489 279 496 286 l 496 394 b 475 415 496 408 489 415 l 229 415 l 229 463 b 325 551 229 521 264 551 l 701 551 b 792 478 764 551 792 528 l 792 444 b 818 424 792 431 803 424 l 928 424 b 954 449 944 424 954 432 l 954 482 b 724 700 954 621 888 700 z "},"э":{"ha":1011,"x_min":0,"x_max":0,"o":"m 708 700 l 286 700 b 56 482 124 700 56 621 l 56 449 b 82 424 56 432 65 424 l 193 424 b 219 444 208 424 219 431 l 219 478 b 310 551 219 528 246 551 l 686 551 b 781 463 746 551 781 521 l 781 415 l 536 415 b 515 394 522 415 515 408 l 515 300 b 536 279 515 286 522 279 l 781 279 l 781 229 b 686 140 781 171 746 140 l 343 140 b 172 169 254 140 239 143 b 126 165 158 175 146 175 l 78 143 b 69 108 60 135 61 122 b 336 -7 117 28 179 -7 l 708 -7 b 947 229 861 -7 947 82 l 947 465 b 708 700 947 613 861 700 z "},"і":{"ha":306,"x_min":0,"x_max":0,"o":"m 69 951 l 69 831 b 90 810 69 817 76 810 l 215 810 b 236 831 229 810 236 817 l 236 951 b 215 972 236 965 229 972 l 90 972 b 69 951 76 972 69 965 z m 69 674 l 69 21 b 90 0 69 7 76 0 l 215 0 b 236 21 229 0 236 7 l 236 674 b 215 694 236 688 229 694 l 90 694 b 69 674 76 694 69 688 z "},"ї":{"ha":306,"x_min":0,"x_max":0,"o":"m -100 800 l 31 800 b 51 821 44 800 51 807 l 51 951 b 31 972 51 965 44 972 l -100 972 b -121 951 -114 972 -121 965 l -121 821 b -100 800 -121 807 -114 800 z m 247 800 l 376 800 b 399 821 390 800 399 807 l 399 951 b 376 972 399 965 390 972 l 247 972 b 226 951 233 972 226 965 l 226 821 b 247 800 226 807 233 800 z m 69 674 l 69 21 b 90 0 69 7 76 0 l 215 0 b 236 21 229 0 236 7 l 236 674 b 215 694 236 688 229 694 l 90 694 b 69 674 76 694 69 688 z "},"ј":{"ha":310,"x_min":0,"x_max":0,"o":"m 94 810 l 219 810 b 240 831 233 810 240 817 l 240 951 b 219 972 240 965 233 972 l 94 972 b 74 951 81 972 74 965 l 74 831 b 94 810 74 817 81 810 z m 1 -251 b 240 -17 154 -251 240 -164 l 240 674 b 219 694 240 688 233 694 l 94 694 b 74 674 81 694 74 688 l 74 0 b -46 -106 74 -72 38 -106 l -121 -106 b -153 -132 -140 -106 -153 -112 l -153 -206 b -122 -244 -153 -232 -142 -242 b 1 -251 -92 -249 -57 -251 z "},"ю":{"ha":1351,"x_min":0,"x_max":0,"o":"m 1050 700 l 619 700 b 381 465 468 700 381 613 l 381 419 l 236 419 l 236 672 b 215 693 236 686 229 693 l 90 693 b 69 672 76 693 69 686 l 69 19 b 90 -1 69 6 76 -1 l 215 -1 b 236 19 229 -1 236 6 l 236 276 l 381 276 l 381 229 b 619 -7 381 82 468 -7 l 1050 -7 b 1289 228 1203 -7 1289 81 l 1289 465 b 1050 700 1289 613 1203 700 z m 1122 231 b 1026 143 1122 172 1088 143 l 643 143 b 547 231 583 143 547 172 l 547 463 b 643 551 547 521 583 551 l 1026 551 b 1122 463 1088 551 1122 521 z "},"я":{"ha":1008,"x_min":0,"x_max":0,"o":"m 208 0 b 229 21 222 0 229 7 l 229 153 b 307 250 229 217 240 250 l 772 250 l 772 21 b 793 0 772 7 779 0 l 918 0 b 939 21 932 0 939 7 l 939 674 b 918 694 939 688 932 694 l 278 694 b 72 494 147 694 72 615 b 158 332 72 444 82 383 b 63 171 79 301 63 235 l 63 21 b 83 0 63 7 69 0 z m 772 546 l 772 394 l 313 394 b 239 469 265 394 239 419 b 313 546 239 522 265 546 z "},"ӣ":{"ha":1101,"x_min":0,"x_max":0,"o":"m 325 822 l 775 822 b 796 843 788 822 796 829 l 796 951 b 775 972 796 965 788 972 l 325 972 b 304 951 311 972 304 965 l 304 843 b 325 822 304 829 311 822 z m 90 694 b 69 674 76 694 69 688 l 69 21 b 90 0 69 7 76 0 l 257 0 b 289 15 269 0 278 6 l 849 524 l 861 524 l 861 21 b 882 0 861 7 868 0 l 1011 0 b 1032 21 1025 0 1032 7 l 1032 674 b 1011 694 1032 688 1025 694 l 844 694 b 813 679 832 694 824 689 l 253 171 l 240 171 l 240 674 b 219 694 240 688 233 694 z "},"ө":{"ha":1033,"x_min":0,"x_max":0,"o":"m 732 700 l 301 700 b 63 465 149 700 63 613 l 63 228 b 301 -7 63 81 149 -7 l 732 -7 b 971 228 883 -7 971 81 l 971 464 b 732 700 971 611 883 700 z m 325 550 l 708 550 b 804 463 768 550 804 521 l 804 421 l 229 421 l 229 463 b 325 550 229 521 264 550 z m 708 142 l 325 142 b 229 231 264 142 229 172 l 229 272 l 804 272 l 804 231 b 708 142 804 172 768 142 z "},"ӭ":{"ha":1011,"x_min":0,"x_max":0,"o":"m 256 800 l 386 800 b 407 821 400 800 407 807 l 407 951 b 386 972 407 965 400 972 l 256 972 b 235 951 242 972 235 965 l 235 821 b 256 800 235 807 242 800 z m 603 800 l 732 800 b 754 821 746 800 754 807 l 754 951 b 732 972 754 965 746 972 l 603 972 b 582 951 589 972 582 965 l 582 821 b 603 800 582 807 589 800 z m 708 700 l 286 700 b 56 482 124 700 56 621 l 56 449 b 82 424 56 432 65 424 l 193 424 b 219 444 208 424 219 431 l 219 478 b 310 551 219 528 246 551 l 686 551 b 781 463 746 551 781 521 l 781 415 l 536 415 b 515 394 522 415 515 408 l 515 300 b 536 279 515 286 522 279 l 781 279 l 781 229 b 686 140 781 171 746 140 l 343 140 b 172 169 254 140 239 143 b 126 165 158 175 146 175 l 78 143 b 69 108 60 135 61 122 b 336 -7 117 28 179 -7 l 708 -7 b 947 229 861 -7 947 82 l 947 465 b 708 700 947 613 861 700 z "},"ӯ":{"ha":1129,"x_min":0,"x_max":0,"o":"m 360 822 l 810 822 b 831 843 822 822 831 829 l 831 951 b 810 972 831 965 822 972 l 360 972 b 339 951 346 972 339 965 l 339 843 b 360 822 339 829 346 822 z m 1060 694 l 917 694 b 882 671 901 694 893 688 l 572 199 l 556 199 l 246 671 b 211 694 235 688 226 694 l 68 694 b 51 671 54 694 42 686 l 465 33 l 296 -228 b 313 -251 286 -243 299 -251 l 456 -251 b 492 -228 471 -251 479 -244 l 650 13 b 660 28 653 17 656 22 l 1078 671 b 1060 694 1088 686 1074 694 z "},"Δ":{"ha":1183,"x_min":0,"x_max":0,"o":"m 1125 32 l 669 990 b 643 1013 663 1004 656 1013 l 542 1013 b 515 990 529 1013 522 1004 l 58 32 b 74 0 51 17 60 0 l 1108 0 b 1125 32 1122 0 1132 17 z m 289 171 l 593 806 l 892 171 z "},"Ω":{"ha":1349,"x_min":0,"x_max":0,"o":"m 1265 378 l 1265 754 b 997 1025 1265 938 1157 1025 l 351 1025 b 83 754 192 1025 83 938 l 83 378 b 192 171 83 260 125 210 l 104 171 b 83 150 90 171 83 164 l 83 21 b 104 0 83 7 90 0 l 353 0 b 374 21 367 0 374 7 l 374 169 b 353 190 374 183 367 190 l 349 190 b 254 407 274 190 254 317 l 254 733 b 371 854 254 832 297 854 l 976 854 b 1094 733 1051 854 1094 832 l 1094 407 b 1000 190 1094 317 1075 190 l 996 190 b 975 169 982 190 975 183 l 975 21 b 996 0 975 7 982 0 l 1244 0 b 1265 21 1258 0 1265 7 l 1265 150 b 1244 171 1265 164 1258 171 l 1157 171 b 1265 378 1224 210 1265 260 z "},"μ":{"ha":1047,"x_min":0,"x_max":0,"o":"m 957 694 l 832 694 b 811 674 818 694 811 688 l 811 232 b 718 144 811 174 779 144 l 332 144 b 236 232 272 144 236 174 l 236 674 b 215 694 236 688 229 694 l 90 694 b 69 674 76 694 69 688 l 69 -257 b 90 -278 69 -271 76 -278 l 215 -278 b 236 -257 229 -278 236 -271 l 236 1 b 308 -6 258 -3 282 -6 l 628 -6 b 799 67 735 -6 763 19 l 811 67 l 811 21 b 831 0 811 7 821 0 l 957 0 b 978 21 971 0 978 7 l 978 674 b 957 694 978 688 971 694 z "},"π":{"ha":1099,"x_min":0,"x_max":0,"o":"m 1022 694 l 75 694 b 56 674 61 694 56 688 l 56 544 b 76 524 56 531 61 524 l 151 524 l 151 21 b 172 0 151 7 158 0 l 301 0 b 322 21 315 0 322 7 l 322 524 l 775 524 l 775 21 b 796 0 775 7 782 0 l 925 0 b 946 21 939 0 946 7 l 946 524 l 1022 524 b 1043 543 1036 524 1043 531 l 1043 674 b 1022 694 1043 686 1036 694 z "},"¹":{"ha":419,"x_min":0,"x_max":0,"o":"m 167 951 l 167 564 b 188 543 167 550 174 543 l 232 543 b 253 564 246 543 253 550 l 253 951 b 232 972 253 965 246 972 l 188 972 b 167 951 174 972 167 965 z "},"²":{"ha":444,"x_min":0,"x_max":0,"o":"m 340 624 l 190 624 l 268 692 b 360 847 317 733 360 776 b 240 972 360 913 322 972 l 206 972 b 83 857 129 972 83 924 l 83 839 b 104 818 83 825 90 818 l 146 818 b 167 839 160 818 167 825 l 167 849 b 218 893 167 878 188 893 b 275 839 253 893 275 874 b 226 761 275 807 250 783 l 106 647 b 86 608 92 635 86 628 l 86 563 b 107 542 86 549 93 542 l 340 542 b 361 563 354 542 361 549 l 361 603 b 340 624 361 617 354 624 z "},"³":{"ha":451,"x_min":0,"x_max":0,"o":"m 301 757 b 360 853 343 778 360 810 b 243 972 360 913 322 972 l 208 972 b 86 857 132 972 86 924 l 86 839 b 107 818 86 825 93 818 l 149 818 b 169 839 163 818 169 825 l 169 849 b 224 893 169 878 190 893 b 278 840 258 893 278 874 b 226 793 278 810 264 793 l 204 793 b 185 772 192 793 185 786 l 185 742 b 204 721 185 728 192 721 l 226 721 b 281 674 267 721 281 704 b 224 621 281 640 261 621 b 167 665 188 621 167 636 l 167 675 b 146 696 167 689 160 696 l 104 696 b 83 675 90 696 83 689 l 83 657 b 208 542 83 590 129 542 l 243 542 b 368 661 331 542 368 601 b 301 757 368 704 346 736 z "},"⁄":{"ha":139,"x_min":0,"x_max":0,"o":"m 289 988 l -272 21 b -258 0 -281 7 -272 0 l -206 0 b -178 21 -192 0 -186 7 l 383 988 b 369 1008 392 1001 383 1008 l 317 1008 b 289 988 303 1008 297 1001 z "},"½":{"ha":1003,"x_min":0,"x_max":0,"o":"m 708 988 l 147 21 b 161 0 139 7 147 0 l 214 0 b 242 21 228 0 233 7 l 803 988 b 789 1008 811 1001 803 1008 l 736 1008 b 708 988 722 1008 717 1001 z m 167 951 l 167 564 b 188 543 167 550 174 543 l 232 543 b 253 564 246 543 253 550 l 253 951 b 232 972 253 965 246 972 l 188 972 b 167 951 174 972 167 965 z m 899 82 l 749 82 l 826 150 b 918 306 875 192 918 235 b 799 431 918 371 881 431 l 764 431 b 642 315 688 431 642 382 l 642 297 b 663 276 642 283 649 276 l 704 276 b 725 297 718 276 725 283 l 725 307 b 776 351 725 336 746 351 b 833 297 811 351 833 332 b 785 219 833 265 808 242 l 664 106 b 644 67 650 93 644 86 l 644 21 b 665 0 644 7 651 0 l 899 0 b 919 21 913 0 919 7 l 919 61 b 899 82 919 75 913 82 z "},"¼":{"ha":1025,"x_min":0,"x_max":0,"o":"m 708 988 l 147 21 b 161 0 139 7 147 0 l 214 0 b 242 21 228 0 233 7 l 803 988 b 789 1008 811 1001 803 1008 l 736 1008 b 708 988 722 1008 717 1001 z m 167 951 l 167 564 b 188 543 167 550 174 543 l 232 543 b 253 564 246 543 253 550 l 253 951 b 232 972 253 965 246 972 l 188 972 b 167 951 174 972 167 965 z m 921 150 l 901 150 l 901 410 b 881 431 901 424 894 431 l 811 431 b 788 415 803 431 793 426 l 649 151 b 642 126 646 146 642 138 l 642 92 b 665 71 642 78 650 71 l 818 71 l 818 21 b 839 0 818 7 825 0 l 881 0 b 901 21 894 0 901 7 l 901 71 l 921 71 b 942 92 935 71 942 78 l 942 129 b 921 150 942 143 935 150 z m 818 153 l 738 153 l 818 315 z "},"¾":{"ha":1057,"x_min":0,"x_max":0,"o":"m 740 988 l 179 21 b 193 0 171 7 179 0 l 246 0 b 274 21 260 0 265 7 l 835 988 b 821 1008 843 1001 835 1008 l 768 1008 b 740 988 754 1008 749 1001 z m 301 757 b 360 853 343 778 360 810 b 243 972 360 913 322 972 l 208 972 b 86 857 132 972 86 924 l 86 839 b 107 818 86 825 93 818 l 149 818 b 169 839 163 818 169 825 l 169 849 b 224 893 169 878 190 893 b 278 840 258 893 278 874 b 226 793 278 810 264 793 l 204 793 b 185 772 192 793 185 786 l 185 742 b 204 721 185 728 192 721 l 226 721 b 281 674 267 721 281 704 b 224 621 281 640 261 621 b 167 665 188 621 167 636 l 167 675 b 146 696 167 689 160 696 l 104 696 b 83 675 90 696 83 689 l 83 657 b 208 542 83 590 129 542 l 243 542 b 368 661 331 542 368 601 b 301 757 368 704 346 736 z m 953 150 l 933 150 l 933 410 b 913 431 933 424 926 431 l 843 431 b 819 415 835 431 825 426 l 681 151 b 674 126 678 146 674 138 l 674 92 b 697 71 674 78 682 71 l 850 71 l 850 21 b 871 0 850 7 857 0 l 913 0 b 933 21 926 0 933 7 l 933 71 l 953 71 b 974 92 967 71 974 78 l 974 129 b 953 150 974 143 967 150 z m 850 153 l 769 153 l 850 315 z "},"⅛":{"ha":1007,"x_min":0,"x_max":0,"o":"m 708 988 l 147 21 b 161 0 139 7 147 0 l 214 0 b 242 21 228 0 233 7 l 803 988 b 789 1008 811 1001 803 1008 l 736 1008 b 708 988 722 1008 717 1001 z m 167 951 l 167 564 b 188 543 167 550 174 543 l 232 543 b 253 564 246 543 253 550 l 253 951 b 232 972 253 965 246 972 l 188 972 b 167 951 174 972 167 965 z m 867 226 b 913 317 894 244 913 274 b 794 431 913 381 871 431 l 771 431 b 653 317 699 431 653 381 b 699 226 653 274 671 244 b 642 122 671 210 642 182 b 769 0 642 50 685 0 l 796 0 b 924 122 881 0 924 50 b 867 226 924 182 894 210 z m 786 258 l 779 258 b 733 307 751 258 733 276 b 779 356 733 338 751 356 l 786 356 b 832 307 814 356 832 338 b 786 258 832 276 814 258 z m 775 78 b 726 131 746 78 726 94 b 775 186 726 165 746 186 l 790 186 b 839 131 819 186 839 165 b 790 78 839 94 819 78 z "},"⅜":{"ha":1039,"x_min":0,"x_max":0,"o":"m 740 988 l 179 21 b 193 0 171 7 179 0 l 246 0 b 274 21 260 0 265 7 l 835 988 b 821 1008 843 1001 835 1008 l 768 1008 b 740 988 754 1008 749 1001 z m 301 757 b 360 853 343 778 360 810 b 243 972 360 913 322 972 l 208 972 b 86 857 132 972 86 924 l 86 839 b 107 818 86 825 93 818 l 149 818 b 169 839 163 818 169 825 l 169 849 b 224 893 169 878 190 893 b 278 840 258 893 278 874 b 226 793 278 810 264 793 l 204 793 b 185 772 192 793 185 786 l 185 742 b 204 721 185 728 192 721 l 226 721 b 281 674 267 721 281 704 b 224 621 281 640 261 621 b 167 665 188 621 167 636 l 167 675 b 146 696 167 689 160 696 l 104 696 b 83 675 90 696 83 689 l 83 657 b 208 542 83 590 129 542 l 243 542 b 368 661 331 542 368 601 b 301 757 368 704 346 736 z m 899 226 b 944 317 926 244 944 274 b 826 431 944 381 903 431 l 803 431 b 685 317 731 431 685 381 b 731 226 685 274 703 244 b 674 122 703 210 674 182 b 801 0 674 50 717 0 l 828 0 b 956 122 913 0 956 50 b 899 226 956 182 926 210 z m 818 258 l 811 258 b 765 307 783 258 765 276 b 811 356 765 338 783 356 l 818 356 b 864 307 846 356 864 338 b 818 258 864 276 846 258 z m 807 78 b 758 131 778 78 758 94 b 807 186 758 165 778 186 l 822 186 b 871 131 851 186 871 165 b 822 78 871 94 851 78 z "},"⅝":{"ha":1039,"x_min":0,"x_max":0,"o":"m 740 988 l 179 21 b 193 0 171 7 179 0 l 246 0 b 274 21 260 0 265 7 l 835 988 b 821 1008 843 1001 835 1008 l 768 1008 b 740 988 754 1008 749 1001 z m 238 824 b 169 799 215 824 188 818 l 169 892 l 332 892 b 353 913 346 892 353 899 l 353 951 b 332 972 353 965 346 972 l 110 972 b 89 951 96 972 89 965 l 89 757 b 110 736 89 743 96 736 l 168 736 b 221 754 181 749 201 754 b 281 682 268 754 281 726 b 224 621 281 640 261 621 b 167 665 188 621 167 636 l 167 675 b 146 696 167 689 160 696 l 104 696 b 83 675 90 696 83 689 l 83 657 b 208 542 83 590 129 542 l 243 542 b 368 682 331 542 368 601 b 238 824 368 769 325 824 z m 899 226 b 944 317 926 244 944 274 b 826 431 944 381 903 431 l 803 431 b 685 317 731 431 685 381 b 731 226 685 274 703 244 b 674 122 703 210 674 182 b 801 0 674 50 717 0 l 828 0 b 956 122 913 0 956 50 b 899 226 956 182 926 210 z m 818 258 l 811 258 b 765 307 783 258 765 276 b 811 356 765 338 783 356 l 818 356 b 864 307 846 356 864 338 b 818 258 864 276 846 258 z m 807 78 b 758 131 778 78 758 94 b 807 186 758 165 778 186 l 822 186 b 871 131 851 186 871 165 b 822 78 871 94 851 78 z "},"⅞":{"ha":1024,"x_min":0,"x_max":0,"o":"m 725 988 l 164 21 b 178 0 156 7 164 0 l 231 0 b 258 21 244 0 250 7 l 819 988 b 806 1008 828 1001 819 1008 l 753 1008 b 725 988 739 1008 733 1001 z m 353 908 l 353 951 b 332 972 353 965 346 972 l 104 972 b 83 951 90 972 83 965 l 83 910 b 104 889 83 896 90 889 l 260 889 l 104 561 b 117 542 100 551 104 542 l 175 542 b 197 561 186 542 193 551 l 347 885 b 353 908 353 896 353 903 z m 883 226 b 929 317 911 244 929 274 b 811 431 929 381 888 431 l 788 431 b 669 317 715 431 669 381 b 715 226 669 274 688 244 b 658 122 688 210 658 182 b 786 0 658 50 701 0 l 813 0 b 940 122 897 0 940 50 b 883 226 940 182 911 210 z m 803 258 l 796 258 b 750 307 768 258 750 276 b 796 356 750 338 768 356 l 803 356 b 849 307 831 356 849 338 b 803 258 849 276 831 258 z m 792 78 b 743 131 763 78 743 94 b 792 186 743 165 763 186 l 807 186 b 856 131 836 186 856 165 b 807 78 856 94 836 78 z "},".":{"ha":269,"x_min":0,"x_max":0,"o":"m 69 0 l 200 0 b 221 21 214 0 221 7 l 221 151 b 200 172 221 165 214 172 l 69 172 b 49 151 56 172 49 165 l 49 21 b 69 0 49 7 56 0 z "},",":{"ha":310,"x_min":0,"x_max":0,"o":"m 240 172 l 136 172 b 115 151 122 172 115 165 l 115 -86 l 56 -86 b 35 -107 42 -86 35 -93 l 35 -204 b 56 -225 35 -218 42 -225 l 213 -225 b 261 -176 244 -225 261 -208 l 261 151 b 240 172 261 165 254 172 z "},":":{"ha":269,"x_min":0,"x_max":0,"o":"m 69 522 l 200 522 b 221 543 214 522 221 529 l 221 674 b 200 694 221 688 214 694 l 69 694 b 49 674 56 694 49 688 l 49 543 b 69 522 49 529 56 522 z m 69 0 l 200 0 b 221 21 214 0 221 7 l 221 151 b 200 172 221 165 214 172 l 69 172 b 49 151 56 172 49 165 l 49 21 b 69 0 49 7 56 0 z "},";":{"ha":338,"x_min":0,"x_max":0,"o":"m 139 522 l 268 522 b 289 543 282 522 289 529 l 289 674 b 268 694 289 688 282 694 l 139 694 b 118 674 125 694 118 688 l 118 543 b 139 522 118 529 125 522 z m 254 172 l 150 172 b 129 151 136 172 129 165 l 129 -86 l 69 -86 b 49 -107 56 -86 49 -93 l 49 -204 b 69 -225 49 -218 56 -225 l 226 -225 b 275 -176 258 -225 275 -208 l 275 151 b 254 172 275 165 268 172 z "},"…":{"ha":906,"x_min":0,"x_max":0,"o":"m 69 0 l 200 0 b 221 21 214 0 221 7 l 221 151 b 200 172 221 165 214 172 l 69 172 b 49 151 56 172 49 165 l 49 21 b 69 0 49 7 56 0 z m 388 0 l 518 0 b 539 21 532 0 539 7 l 539 151 b 518 172 539 165 532 172 l 388 172 b 367 151 374 172 367 165 l 367 21 b 388 0 367 7 374 0 z m 706 0 l 835 0 b 857 21 849 0 857 7 l 857 151 b 835 172 857 165 849 172 l 706 172 b 685 151 692 172 685 165 l 685 21 b 706 0 685 7 692 0 z "},"!":{"ha":353,"x_min":0,"x_max":0,"o":"m 111 292 l 242 292 b 263 313 256 292 263 299 l 263 951 b 242 972 263 965 256 972 l 111 972 b 90 951 97 972 90 965 l 90 313 b 111 292 90 299 97 292 z m 111 0 l 242 0 b 263 21 256 0 263 7 l 263 151 b 242 172 263 165 256 172 l 111 172 b 90 151 97 172 90 165 l 90 21 b 111 0 90 7 97 0 z "},"¡":{"ha":353,"x_min":0,"x_max":0,"o":"m 242 694 l 111 694 b 90 674 97 694 90 688 l 90 543 b 111 522 90 529 97 522 l 242 522 b 263 543 256 522 263 529 l 263 674 b 242 694 263 688 256 694 z m 242 403 l 111 403 b 90 382 97 403 90 396 l 90 -257 b 111 -278 90 -271 97 -278 l 242 -278 b 263 -257 256 -278 263 -271 l 263 382 b 242 403 263 396 256 403 z "},"?":{"ha":1222,"x_min":0,"x_max":0,"o":"m 508 292 l 639 292 b 660 314 653 292 660 300 l 660 374 b 739 449 660 424 685 449 l 897 449 b 1160 706 1076 449 1160 503 b 897 978 1160 907 1076 978 l 358 978 b 63 721 157 978 63 894 l 63 694 b 83 672 63 679 69 672 l 213 672 b 233 694 226 672 233 679 b 360 824 233 794 275 824 l 878 824 b 989 714 969 824 989 788 b 878 596 989 640 969 596 l 678 596 b 488 414 525 596 488 515 l 488 314 b 508 292 488 300 494 292 z m 507 0 l 636 0 b 658 21 650 0 658 7 l 658 151 b 636 172 658 165 650 172 l 507 172 b 486 151 493 172 486 165 l 486 21 b 507 0 486 7 493 0 z "}}}
